<?xml version="1.0" encoding="utf-8"?>
<svg version="1.1" xmlns:xlink="http://www.w3.org/1999/xlink" width="100px" height="100px" xmlns="http://www.w3.org/2000/svg">
  <g transform="matrix(1 0 0 1 -1080 -59 )">
    <path d="M 1080 59  L 1180 59  L 1180 159  L 1080 159  L 1080 59  " fill-rule="nonzero" fill="#cccccc" stroke="none" />
    <path d="M 1087 66  L 1173 66  L 1173 152  L 1087 152  L 1087 66  " fill-rule="nonzero" fill="#ffffff" stroke="none" />
    <path d="M 1139.5 89  C 1135.3 89  1132 85.7  1132 81.5  C 1132 77.3  1135.3 74  1139.5 74  C 1143.7 74  1147 77.3  1147 81.5  C 1147 85.7  1143.7 89  1139.5 89  " fill-rule="nonzero" fill="#cccccc" stroke="none" />
    <path d="M 1090 150  L 1090 105.45  L 1110.25 85.2  L 1138.6 101.4  L 1154.8 97.35  L 1171 101.4  L 1171 150  L 1090 150  " fill-rule="nonzero" fill="#169bd5" stroke="none" />
  </g>
</svg>