<?xml version="1.0" encoding="utf-8"?>
<svg version="1.1" xmlns:xlink="http://www.w3.org/1999/xlink" width="12px" height="14px" xmlns="http://www.w3.org/2000/svg">
  <g transform="matrix(1 0 0 1 -322 -38 )">
    <path d="M 11.443359375 1.375  C 11.443359375 1.8935546875  11.021484375 2.3125  10.5029296875 2.3125  L 1.1279296875 2.3125  C 0.609375000000002 2.3125  0.1904296875 1.8935546875  0.1904296875 1.375  C 0.1904296875 0.8564453125  0.609375000000002 0.4375  1.1279296875 0.4375  L 10.505859375 0.4375  C 11.0244140625 0.4375  11.443359375 0.8564453125  11.443359375 1.375  Z M 11.443359375 12.5634765625  C 11.4404296875 13.08203125  11.021484375 13.5009765625  10.5029296875 13.5009765625  L 1.1279296875 13.5009765625  C 0.609375000000002 13.5009765625  0.1904296875 13.08203125  0.1904296875 12.5634765625  C 0.1904296875 12.044921875  0.609375000000002 11.6259765625  1.1279296875 11.6259765625  L 10.505859375 11.6259765625  C 11.0244140625 11.6259765625  11.443359375 12.044921875  11.443359375 12.5634765625  Z " fill-rule="nonzero" fill="#ffffff" stroke="none" transform="matrix(1 0 0 1 322 38 )" />
  </g>
</svg>