<?xml version="1.0" encoding="utf-8"?>
<svg version="1.1" xmlns:xlink="http://www.w3.org/1999/xlink" width="28px" height="26px" xmlns="http://www.w3.org/2000/svg">
  <g transform="matrix(1 0 0 1 -311 -32 )">
    <path d="M 27.125 23.9013671875  C 27.125 24.6044921875  26.5478515625 25.17578125  25.8359375 25  L 2.1728515625 25  C 1.4609375 25.17578125  0.8837890625 24.6044921875  0.8837890625 23.9013671875  L 0.8837890625 14.2890625  L 1.84765625 14.3037109375  L 1.8681640625 14.3037109375  C 2.8994140625 14.3037109375  3.740234375 13.515625  3.740234375 12.5458984375  C 3.740234375 11.576171875  2.8994140625 10.7880859375  1.8681640625 10.7880859375  L 1.84765625 10.7880859375  L 0.886718749999999 10.802734375  L 0.886718749999999 2.0869140625  C 0.886718749999999 1.3837890625  1.4638671875 0.8125  2.17578125 1  L 25.8359375 1  C 26.5478515625 0.8125  27.125 1.3837890625  27.125 2.0869140625  L 27.125 10.7880859375  L 26.1875 10.7880859375  C 25.15625 10.7880859375  24.318359375 11.576171875  24.318359375 12.5458984375  C 24.318359375 13.515625  25.15625 14.3037109375  26.1875 14.3037109375  L 27.125 14.3037109375  L 27.125 23.9013671875  Z M 2.7587890625 16.076171875  L 2.7587890625 23  L 25.25 23  L 25.25 16.064453125  C 23.638671875 15.66015625  22.443359375 14.236328125  22.443359375 12.5458984375  C 22.443359375 10.85546875  23.638671875 9.4345703125  25.25 9.02734375  L 25.25 3  L 2.7587890625 3  L 2.7587890625 9.0185546875  C 4.396484375 9.408203125  5.6123046875 10.8408203125  5.6123046875 12.5458984375  C 5.6123046875 14.2509765625  4.396484375 15.6865234375  2.7587890625 16.076171875  Z " fill-rule="nonzero" fill="#ffffff" stroke="none" transform="matrix(1 0 0 1 311 32 )" />
  </g>
</svg>