<?xml version="1.0" encoding="utf-8"?>
<svg version="1.1" xmlns:xlink="http://www.w3.org/1999/xlink" width="3px" height="24px" xmlns="http://www.w3.org/2000/svg">
  <g transform="matrix(1 0 0 1 -318 -33 )">
    <path d="M 2.1103515625 3.5244140625  C 2.1103515625 3.9287109375  1.78515625 4.259765625  1.3779296875 4.259765625  C 0.9736328125 4.259765625  0.6455078125 3.9345703125  0.6455078125 3.5302734375  L 0.639648437500002 1.6611328125  C 0.639648437500002 1.2568359375  0.964843750000002 0.928710937500001  1.369140625 0.925781250000001  L 1.3720703125 0.925781250000001  C 1.7763671875 0.925781250000001  2.1044921875 1.2509765625  2.1044921875 1.6552734375  L 2.1103515625 3.5244140625  Z M 2.1103515625 8.2236328125  C 2.1103515625 8.630859375  1.78515625 8.958984375  1.3779296875 8.958984375  C 0.9736328125 8.958984375  0.6455078125 8.6337890625  0.6455078125 8.2294921875  L 0.639648437500002 6.3603515625  C 0.639648437500002 5.9560546875  0.964843750000002 5.6279296875  1.369140625 5.625  L 1.3720703125 5.625  C 1.7763671875 5.625  2.1044921875 5.9501953125  2.1044921875 6.3544921875  L 2.1103515625 8.2236328125  Z M 2.1103515625 12.92578125  C 2.1103515625 13.330078125  1.78515625 13.658203125  1.3779296875 13.6611328125  C 0.9736328125 13.6611328125  0.6455078125 13.3359375  0.6455078125 12.931640625  L 0.639648437500002 11.0625  C 0.639648437500002 10.658203125  0.964843750000002 10.330078125  1.369140625 10.3271484375  L 1.3720703125 10.3271484375  C 1.7763671875 10.3271484375  2.1044921875 10.65234375  2.1044921875 11.056640625  L 2.1103515625 12.92578125  Z M 2.1103515625 17.625  C 2.1103515625 18.0322265625  1.78515625 18.3603515625  1.3779296875 18.3603515625  C 0.9736328125 18.3603515625  0.6455078125 18.03515625  0.6455078125 17.630859375  L 0.639648437500002 15.76171875  C 0.639648437500002 15.357421875  0.964843750000002 15.029296875  1.369140625 15.0263671875  L 1.3720703125 15.0263671875  C 1.7763671875 15.0263671875  2.1044921875 15.3515625  2.1044921875 15.755859375  L 2.1103515625 17.625  Z M 2.1103515625 22.3271484375  C 2.1103515625 22.7314453125  1.78515625 23.0595703125  1.3779296875 23.0625  C 0.9736328125 23.0625  0.6455078125 22.7373046875  0.6455078125 22.3330078125  L 0.639648437500002 20.4638671875  C 0.639648437500002 20.0595703125  0.964843750000002 19.7314453125  1.369140625 19.728515625  L 1.3720703125 19.728515625  C 1.7763671875 19.728515625  2.1044921875 20.0537109375  2.1044921875 20.4580078125  L 2.1103515625 22.3271484375  Z " fill-rule="nonzero" fill="#ffffff" stroke="none" transform="matrix(1 0 0 1 318 33 )" />
  </g>
</svg>