<?xml version="1.0" encoding="utf-8"?>
<svg version="1.1" xmlns:xlink="http://www.w3.org/1999/xlink" width="30px" height="30px" xmlns="http://www.w3.org/2000/svg">
  <g transform="matrix(1 0 0 1 -127 -30 )">
    <path d="M 19.8818181738281 15.5440908984375  C 20.4210489212166 15.5440908984375  20.8581818115234 15.1069580081306  20.8581818115234 14.5677272607422  C 20.8581818115234 14.0284965133537  20.4210489212166 13.5913636230469  19.8818181738281 13.5913636230469  L 17.4259091015625 13.5913636230469  L 20.1013636230469 9.61431817382813  C 20.2845124926461 9.43125974529015  20.387412062447 9.1829249471204  20.387412062447 8.92397727539062  C 20.387412062447 8.38492060721377  19.9504202912237 7.94792883599046  19.4113636230469 7.94792883599046  C 19.1525830107028 7.94792883599046  18.9043943346513 8.05069604806213  18.7213636230469 8.23363637695313  L 15.1043181738281 13.1154545507812  C 15.0799030996933 13.148613557464  15.0411778528969 13.1681902218305  15 13.1681902218305  C 14.9588221471031 13.1681902218305  14.9200969003067 13.148613557464  14.8956818261719 13.1154545507812  L 11.2786363769531 8.23363637695313  C 11.0962727497485 8.05571334908896  10.8515845364727 7.95612223849164  10.5968040498345 7.95612223849164  C 10.0575733105362 7.95612223849164  9.62044042678766 8.39325512224018  9.62044042678766 8.93248586153851  C 9.62044042678766 9.18726634100633  9.72003153179404 9.43195454798041  9.89795455078125 9.61431817382812  L 12.5734091015625 13.5913636230469  L 10.1188636230469 13.5913636230469  C 9.57963287565844 13.5913636230469  9.14249998535157 14.0284965133537  9.14249998535157 14.5677272607422  C 9.14249998535157 15.1069580081306  9.57963287565844 15.5440908984375  10.1188636230469 15.5440908984375  L 14.0236363769531 15.5440908984375  L 14.0236363769531 17.4961363769531  L 10.1188636230469 17.4961363769531  C 9.57963288374855 17.4961363769531  9.1425 17.9332692607017  9.1425 18.4725  C 9.1425 19.0117307392983  9.57963288374855 19.4488636230469  10.1188636230469 19.4488636230469  L 14.0236363769531 19.4488636230469  L 14.0236363769531 21.7261363769531  C 14.0234091212477 21.7347340185734  14.0232954785156 21.7433342877034  14.0232954785156 21.7519349322482  C 14.0232954785156 22.2911656715465  14.4604283622642 22.728298555295  14.9996591015625 22.728298555295  C 15.5388898408608 22.728298555295  15.9760227246094 22.2911656715465  15.9760227246094 21.7519349322482  C 15.9760227246094 21.7433342877034  15.9759090818773 21.7347340185734  15.9756818261719 21.7261363769531  L 15.9756818261719 19.4488636230469  L 19.8811363769531 19.4488636230469  C 20.4203671162515 19.4488636230469  20.8575 19.0117307392983  20.8575 18.4725  C 20.8575 17.9332692607017  20.4203671162515 17.4961363769531  19.8811363769531 17.4961363769531  L 15.9756818261719 17.4961363769531  L 15.9756818261719 15.5440908984375  L 19.8811363769531 15.5440908984375  Z M 29.2234091015625 13.3370454492188  L 29.2227272753906 13.3363636230469  C 28.4754545507813 6.72136362304688  23.1054545507812 1.4215908984375  16.4809091015625 0.756818173828125  C 7.4134091015625 -0.1534091015625  -0.148636376953125 7.40454544921875  0.754772724609375 16.4713636230469  C 1.4215908984375 23.1504545214844  6.81136362304688 28.5565908984375  13.4884091015625 29.2404545507812  C 18.6395454785156 29.7681818261719  23.3065909277344 27.5631818261719  26.2165908984375 23.8997727246094  C 26.3527095272022 23.7265451203338  26.4267031617977 23.5126198938838  26.4267031617977 23.2923108292046  C 26.4267031617977 22.9404451790474  26.2386653106364 22.6154046332812  25.9336363769531 22.44  C 25.5198596341242 22.1971518340713  24.9906628988494 22.2937121111643  24.6893181738281 22.6670454492187  C 22.1529545507812 25.8661363476562  18.0743181738281 27.7888636230469  13.5838636230469 27.2863636230469  C 7.88045452148437 26.648181796875  3.29386362304687 22.020681796875  2.70272727539062 16.3125  C 1.875 8.31613637695312  8.72045455078125 1.6390908984375  16.7631818261719 2.75727272460938  C 21.801818203125 3.4575  25.9513636523438 7.29545455078125  27.06 12.2611363769531  C 27.6422727246094 14.8697727539063  27.3606818261719 17.3584091015625  26.4845454492187 19.5490908984375  C 26.3077943479501 19.997967590006  26.4879507474055 20.508507579129  26.9072727246094 20.7470454492188  C 27.0575848299895 20.8337463262316  27.2280571939866 20.879386938568  27.4015817487292 20.879386938568  C 27.8066509719648 20.879386938568  28.1707980706181 20.6324553047708  28.3206818261719 20.2561363769531  C 29.1538636523437 18.1486363769531  29.5015909277344 15.7970454785156  29.2234091015625 13.3370454492188  Z " fill-rule="nonzero" fill="#ffffff" stroke="none" transform="matrix(1 0 0 1 127 30 )" />
  </g>
</svg>