<?xml version="1.0" encoding="utf-8"?>
<svg version="1.1" xmlns:xlink="http://www.w3.org/1999/xlink" width="306px" height="56px" xmlns="http://www.w3.org/2000/svg">
  <defs>
    <filter x="57px" y="284px" width="306px" height="56px" filterUnits="userSpaceOnUse" id="filter331">
      <feOffset dx="0" dy="0" in="SourceAlpha" result="shadowOffsetInner" />
      <feGaussianBlur stdDeviation="1.5" in="shadowOffsetInner" result="shadowGaussian" />
      <feComposite in2="shadowGaussian" operator="atop" in="SourceAlpha" result="shadowComposite" />
      <feColorMatrix type="matrix" values="0 0 0 0 0  0 0 0 0 0.474509803921569  0 0 0 0 0.996078431372549  0 0 0 0.8 0  " in="shadowComposite" />
    </filter>
    <g id="widget332">
      <path d="M 60.5 290  A 2.5 2.5 0 0 1 63 287.5 L 357 287.5  A 2.5 2.5 0 0 1 359.5 290 L 359.5 334  A 2.5 2.5 0 0 1 357 336.5 L 63 336.5  A 2.5 2.5 0 0 1 60.5 334 L 60.5 290  Z " fill-rule="nonzero" fill="#ffffff" stroke="none" />
      <path d="M 60.5 290  A 2.5 2.5 0 0 1 63 287.5 L 357 287.5  A 2.5 2.5 0 0 1 359.5 290 L 359.5 334  A 2.5 2.5 0 0 1 357 336.5 L 63 336.5  A 2.5 2.5 0 0 1 60.5 334 L 60.5 290  Z " stroke-width="1" stroke="#0079fe" fill="none" />
    </g>
  </defs>
  <g transform="matrix(1 0 0 1 -57 -284 )">
    <use xlink:href="#widget332" filter="url(#filter331)" />
    <use xlink:href="#widget332" />
  </g>
</svg>