<?xml version="1.0" encoding="utf-8"?>
<svg version="1.1" xmlns:xlink="http://www.w3.org/1999/xlink" width="41px" height="36px" xmlns="http://www.w3.org/2000/svg">
  <g transform="matrix(1 0 0 1 -166 -141 )">
    <path d="M 7.58784722222225 22.6016129032258  C 4.98263888888889 24.2129032258065  2.5909722222222 25.65  0.327430555555581 26.9564516129032  C 2.03576388888891 31.0064516129032  4.17118055555558 33.9241935483871  6.73368055555558 35.666129032258  C 9.29618055555558 37.408064516129  17.8378472222222 30.0048387096774  32.3586805555556 13.4564516129032  C 33.7680555555556 13.1516129032258  35.2201388888889 12.4548387096774  36.6295138888889 11.2790322580645  C 38.7649305555556 9.53709677419352  40.4732638888889 8.2306451612903  40.4732638888889 6.92419354838707  C 40.4732638888889 6.05322580645159  40.3451388888889 5.74838709677418  40.0461805555556 6.05322580645159  C 40.3451388888889 3.74516129032257  40.1743055555556 2.00322580645161  39.6190972222222 0.827419354838683  C 39.0638888888889 -0.348387096774207  37.0565972222222 0.958064516129019  33.6399305555556 4.74677419354836  C 34.4940972222222 3.30967741935483  34.4940972222222 2.56935483870965  33.6399305555556 2.56935483870965  C 32.7857638888889 2.56935483870965  31.2055555555556 4.8774193548387  28.9420138888889 9.53709677419352  C 17.2826388888889 16.591935483871  10.1503472222222 20.9467741935484  7.58784722222225 22.6016129032258  Z " fill-rule="nonzero" fill="#fb9ea8" stroke="none" transform="matrix(1 0 0 1 166 141 )" />
  </g>
</svg>