<?xml version="1.0" encoding="utf-8"?>
<svg version="1.1" xmlns:xlink="http://www.w3.org/1999/xlink" width="17px" height="51px" xmlns="http://www.w3.org/2000/svg">
  <g transform="matrix(1 0 0 1 -84 -116 )">
    <path d="M 10.5258333333333 0.941761363636397  L 1.04833333333334 2.37613636363638  C 2.23833333333334 5.67954545454546  3.08833333333334 8.02670454545456  3.55583333333334 9.37414772727274  C 6.10583333333334 17.0241477272728  8.14583333333335 26.2389204545455  8.52833333333334 30.3681818181818  C 8.82583333333333 33.5411931818182  8.65583333333334 40.2349431818182  8.10333333333334 50.3625  C 9.50583333333334 50.6667613636364  11.0783333333333 50.6667613636364  12.7783333333333 50.3625  C 14.4783333333333 50.0582386363637  15.4983333333333 49.5366477272727  15.8808333333333 48.7542613636364  C 15.4983333333333 38.1051136363637  15.3283333333333 30.6724431818182  15.3283333333333 26.45625  C 15.3283333333333 21.675  14.3508333333333 14.4161931818182  11.0783333333333 6.89659090909093  C 10.6108333333333 5.8099431818182  10.3983333333333 3.81051136363637  10.5258333333333 0.941761363636397  Z " fill-rule="nonzero" fill="#ffffff" stroke="none" transform="matrix(1 0 0 1 84 116 )" />
  </g>
</svg>