<?xml version="1.0" encoding="utf-8"?>
<svg version="1.1" xmlns:xlink="http://www.w3.org/1999/xlink" width="10px" height="10px" xmlns="http://www.w3.org/2000/svg">
  <g transform="matrix(1 0 0 1 -30 -101 )">
    <path d="M 35 103  C 36.68 103  38 104.32  38 106  C 38 107.68  36.68 109  35 109  C 33.32 109  32 107.68  32 106  C 32 104.32  33.32 103  35 103  Z " fill-rule="nonzero" fill="#fcfcfc" stroke="none" />
    <path d="M 35 102.5  C 36.96 102.5  38.5 104.04  38.5 106  C 38.5 107.96  36.96 109.5  35 109.5  C 33.04 109.5  31.5 107.96  31.5 106  C 31.5 104.04  33.04 102.5  35 102.5  Z " stroke-width="3" stroke="#52c1f5" fill="none" />
  </g>
</svg>