<?xml version="1.0" encoding="utf-8"?>
<svg version="1.1" xmlns:xlink="http://www.w3.org/1999/xlink" width="10px" height="10px" xmlns="http://www.w3.org/2000/svg">
  <g transform="matrix(1 0 0 1 -132 -101 )">
    <path d="M 137 102  C 139.24 102  141 103.76  141 106  C 141 108.24  139.24 110  137 110  C 134.76 110  133 108.24  133 106  C 133 103.76  134.76 102  137 102  Z " fill-rule="nonzero" fill="#ffffff" stroke="none" />
    <path d="M 137 102  C 139.24 102  141 103.76  141 106  C 141 108.24  139.24 110  137 110  C 134.76 110  133 108.24  133 106  C 133 103.76  134.76 102  137 102  Z " stroke-width="2" stroke="#52c1f5" fill="none" />
  </g>
</svg>