<?xml version="1.0" encoding="utf-8"?>
<svg version="1.1" xmlns:xlink="http://www.w3.org/1999/xlink" width="12px" height="14px" xmlns="http://www.w3.org/2000/svg">
  <g transform="matrix(1 0 0 1 -44 -39 )">
    <path d="M 11.8222947761194 8.53768382352941  C 11.8222947761194 8.10983455882353  11.4479944029851 7.765625  10.9827425373134 7.765625  L 6.77448694029851 7.765625  L 6.77448694029851 5.45588235294118  L 10.1256996268657 5.45588235294118  C 10.5909514925373 5.45588235294118  10.9652518656716 5.11167279411764  10.9652518656716 4.68382352941176  C 10.9652518656716 4.25597426470588  10.5909514925373 3.91176470588235  10.1256996268657 3.91176470588235  L 7.59654850746269 3.91176470588235  L 10.6154384328358 1.19669117647059  C 10.8917910447761 0.948988970588235  10.8952891791045 0.540441176470591  10.6259328358209 0.286305147058824  C 10.3565764925373 0.0321691176470588  9.91231343283582 0.0289522058823529  9.63596082089552 0.276654411764706  L 5.94542910447761 3.59650735294118  L 2.25139925373134 0.276654411764706  C 1.97504664179104 0.0289522058823529  1.53078358208955 0.0321691176470588  1.26142723880597 0.286305147058824  C 0.992070895522388 0.540441176470588  0.995569029850744 0.948988970588235  1.27192164179104 1.19669117647059  L 4.29081156716418 3.91176470588235  L 1.74067164179104 3.91176470588235  C 1.2754197761194 3.91176470588235  0.901119402985072 4.25597426470588  0.901119402985072 4.68382352941176  C 0.901119402985072 5.11167279411764  1.2754197761194 5.45588235294118  1.74067164179104 5.45588235294118  L 5.09188432835821 5.45588235294118  L 5.09188432835821 7.765625  L 0.883628731343284 7.765625  C 0.418376865671642 7.765625  0.0440764925373134 8.10983455882353  0.0440764925373134 8.53768382352941  C 0.0440764925373134 8.96553308823529  0.418376865671642 9.30974264705882  0.883628731343284 9.30974264705882  L 5.09188432835821 9.30974264705882  L 5.09188432835821 13.2086397058824  C 5.09188432835821 13.6364889705882  5.46618470149254 13.9806985294118  5.93143656716418 13.9806985294118  C 6.39668843283582 13.9806985294118  6.77098880597015 13.6364889705882  6.77098880597015 13.2086397058824  L 6.77098880597015 9.30974264705882  L 10.9827425373134 9.30974264705882  C 11.4479944029851 9.30974264705882  11.8222947761194 8.96553308823529  11.8222947761194 8.53768382352941  Z " fill-rule="nonzero" fill="#ffffff" stroke="none" transform="matrix(1 0 0 1 44 39 )" />
  </g>
</svg>