<?xml version="1.0" encoding="utf-8"?>
<svg version="1.1" xmlns:xlink="http://www.w3.org/1999/xlink" width="24px" height="29px" xmlns="http://www.w3.org/2000/svg">
  <g transform="matrix(1 0 0 1 -38 -30 )">
    <path d="M 24 4.90796042899408  C 23.953125 3.69471153846154  22.9720982142857 2.70936575443787  21.7667410714286 2.70936575443787  L 18.1272321428571 2.70936575443787  L 18.1272321428571 0.869383321005917  C 18.1272321428571 0.423631656804734  17.7689732142857 0.0650194156804734  17.3236607142857 0.0650194156804734  C 16.8783482142857 0.0650194156804734  16.5200892857143 0.423631656804734  16.5200892857143 0.869383321005917  L 16.5200892857143 2.70936575443787  L 6.94419642857143 2.70936575443787  L 6.94419642857143 1.10063794378698  C 6.94419642857143 0.654886279585799  6.5859375 0.296274038461538  6.140625 0.296274038461538  C 5.6953125 0.296274038461538  5.33705357142857 0.654886279585799  5.33705357142857 1.10063794378698  L 5.33705357142857 2.70936575443787  L 2.25669642857143 2.70936575443787  C 1.05133928571429 2.70936575443787  0.0703124999999994 3.69471153846154  0 4.90796042899408  L 0 26.7866586538462  C 0.0703124999999994 27.9999075443787  1.05133928571429 28.9852533284024  2.25669642857143 29  L 15.0066964285714 29  C 17.4006696428571 28.9852533284024  19.6506696428571 28.0334227071006  21.3415178571429 26.3006887943787  C 23.0290178571429 24.5746579142012  23.9564732142857 22.2822207840237  24 19.8423169378698  L 24 4.90796042899408  Z M 22 4.90796042899408  L 22 19.845668454142  C 22.3459821428571 23.9981971153846  19.0513392857143 27.3798770340237  15.0033482142857 27  L 2.25669642857143 27  C 1.93861607142857 27.3798770340237  1.67745535714286 27.1151072485207  2 26.7900101701183  L 2 4.90796042899408  C 1.67745535714286 4.58286335059172  1.93861607142857 4.31809356508876  2.25669642857143 4.31809356508876  L 5.33705357142857 4.31809356508876  L 5.33705357142857 5.92682137573965  C 5.33705357142857 6.37257303994083  5.6953125 6.73118528106509  6.140625 6.73118528106509  C 6.5859375 6.73118528106509  6.94419642857143 6.37257303994083  6.94419642857143 5.92682137573965  L 6.94419642857143 4.31809356508876  L 16.5200892857143 4.31809356508876  L 16.5200892857143 5.92682137573965  C 16.5200892857143 6.37257303994083  16.8783482142857 6.73118528106509  17.3236607142857 6.73118528106509  C 17.7689732142857 6.73118528106509  18.1272321428571 6.37257303994083  18.1272321428571 5.92682137573965  L 18.1272321428571 4.31809356508876  L 21.7667410714286 4.31809356508876  C 22.0848214285714 4.31809356508876  22.3459821428571 4.58286335059172  22 4.90796042899408  Z " fill-rule="nonzero" fill="#ffffff" stroke="none" transform="matrix(1 0 0 1 38 30 )" />
  </g>
</svg>