<?xml version="1.0" encoding="utf-8"?>
<svg version="1.1" xmlns:xlink="http://www.w3.org/1999/xlink" width="26px" height="25px" xmlns="http://www.w3.org/2000/svg">
  <g transform="matrix(1 0 0 1 -37 -128 )">
    <path d="M 20.9259144176136 3.62764246323529  C 20.9259144176136 1.74057904411765  20.4152166193182 0.726677389705883  19.0504705255682 0.341796875  C 18.7359730113636 0.252757352941176  18.1127485795455 0.473920036764706  17.7607421875 0.850183823529412  C 17.2933238636364 1.29250919117647  16.8028231534091 1.42750459558824  15.8593306107955 1.42750459558824  C 14.9937411221591 1.42750459558824  14.2983842329545 0.884650735294118  13.7646040482955 0.402113970588235  C 13.53955078125 0.198184742647059  13.2683327414773 0.09765625  12.9971147017045 0.0919117647058823  C 12.7230113636364 0.09765625  12.4517933238636 0.198184742647059  12.2296253551136 0.402113970588235  C 11.69873046875 0.884650735294118  11.00048828125 1.42750459558824  10.1348987926136 1.42750459558824  C 9.19140625 1.42750459558824  8.70379083806818 1.29250919117647  8.23348721590909 0.850183823529412  C 7.88148082386364 0.473920036764706  7.26114169034091 0.252757352941176  6.94375887784091 0.341796875  C 5.57901278409091 0.726677389705882  5.06831498579545 1.74057904411765  5.06831498579545 3.62764246323529  C 5.06831498579545 5.79905790441177  6.43306107954545 6.5573299632353  8.10076349431818 6.5573299632353  L 17.8934659090909 6.5573299632353  C 19.5611683238636 6.5573299632353  20.9259144176136 5.79905790441177  20.9259144176136 3.62764246323529  Z M 25.9261363636364 18.0348115808824  C 25.9261363636364 13.3042279411765  22.0367542613636 7.70622702205882  17.2875532670455 7.70622702205882  L 8.71244673295454 7.70622702205882  C 3.96324573863636 7.70622702205882  0.0738636363636364 13.3042279411765  0.0738636363636364 18.0348115808824  C 0.0738636363636364 22.7855009191176  3.42946555397727 24.9080882352941  8.20174893465909 24.9080882352941  L 17.7982510653409 24.9080882352941  C 22.5503373579545 24.9080882352941  25.9261363636364 22.7653952205882  25.9261363636364 18.0348115808824  Z M 17.2615855823864 10.4894301470588  C 17.4087357954545 10.4894301470588  17.5039506392045 10.6474034926471  17.4318181818182 10.7766544117647  L 15.2101384943182 14.6685431985294  L 16.8576438210227 14.6685431985294  C 16.9643998579545 14.6685431985294  17.0509588068182 14.7547104779412  17.0509588068182 14.8609834558824  L 17.0509588068182 16.2224264705882  C 17.0509588068182 16.3286994485294  16.9643998579545 16.4148667279412  16.8576438210227 16.4148667279412  L 14.2897283380682 16.4148667279412  L 14.2897283380682 17.4172794117647  L 16.8547585227273 17.4172794117647  C 16.9615145596591 17.4172794117647  17.0480735085227 17.5034466911765  17.0480735085227 17.6097196691177  L 17.0480735085227 18.9711626838235  C 17.0480735085227 19.0774356617647  16.9615145596591 19.1636029411765  16.8547585227273 19.1636029411765  L 14.2897283380682 19.1636029411765  L 14.2897283380682 21.7888327205882  C 14.2897283380682 21.8951056985294  14.2031693892045 21.9812729779412  14.0964133522727 21.9812729779412  L 11.9641779119318 21.9812729779412  C 11.857421875 21.9812729779412  11.7708629261364 21.8951056985294  11.7708629261364 21.7888327205882  L 11.7708629261364 19.1693474264706  L 9.28950639204546 19.1693474264706  C 9.18275035511364 19.1693474264706  9.09619140625 19.0831801470588  9.09619140625 18.9769071691176  L 9.09619140625 17.6154641544118  C 9.09619140625 17.5091911764706  9.18275035511364 17.4230238970588  9.28950639204546 17.4230238970588  L 11.7708629261364 17.4230238970588  L 11.7708629261364 16.4206112132353  L 9.28950639204546 16.4206112132353  C 9.18275035511364 16.4206112132353  9.09619140625 16.3344439338235  9.09619140625 16.2281709558824  L 9.09619140625 14.8667279411765  C 9.09619140625 14.7575827205882  9.18275035511364 14.6714154411765  9.28950639204546 14.6714154411765  L 10.7956321022727 14.6714154411765  L 8.56818181818182 10.7766544117647  C 8.49604936079546 10.6502757352941  8.58549360795454 10.4894301470588  8.73552911931818 10.4894301470588  L 11.2341974431818 10.4894301470588  L 13.0663618607955 13.9964384191176  L 14.8898703835227 10.4894301470588  L 17.2615855823864 10.4894301470588  Z " fill-rule="nonzero" fill="#ffffff" stroke="none" transform="matrix(1 0 0 1 37 128 )" />
  </g>
</svg>