<?xml version="1.0" encoding="utf-8"?>
<svg version="1.1" xmlns:xlink="http://www.w3.org/1999/xlink" width="22px" height="12px" xmlns="http://www.w3.org/2000/svg">
  <g transform="matrix(1 0 0 1 -131 -135 )">
    <path d="M 20.375 5.0625  L 14.75 5.0625  C 14.2322330470336 5.0625  13.8125 5.48223304703363  13.8125 6  C 13.8125 6.51776695296637  14.2322330470336 6.9375  14.75 6.9375  L 20.375 6.9375  C 20.8927669529664 6.9375  21.3125 6.51776695296637  21.3125 6  C 21.3125 5.48223304703363  20.8927669529664 5.0625  20.375 5.0625  Z M 20.375 8.8125  L 14.75 8.8125  C 14.2322330470336 8.8125  13.8125 9.23223304703363  13.8125 9.75  C 13.8125 10.2677669529664  14.2322330470336 10.6875  14.75 10.6875  L 20.375 10.6875  C 20.8927669529664 10.6875  21.3125 10.2677669529664  21.3125 9.75  C 21.3125 9.23223304703363  20.8927669529664 8.8125  20.375 8.8125  Z M 20.375 1.3125  L 14.75 1.3125  C 14.2322330470336 1.3125  13.8125 1.73223304703363  13.8125 2.25  C 13.8125 2.76776695296637  14.2322330470336 3.1875  14.75 3.1875  L 20.375 3.1875  C 20.8927669529664 3.1875  21.3125 2.76776695296637  21.3125 2.25  C 21.3125 1.73223304703363  20.8927669529664 1.3125  20.375 1.3125  Z M 11.94125 1.8075  C 11.9068082797145 1.4407564170469  11.7289002517296 1.10246160625739  11.44625 0.866249999999999  C 11.2100383937426 0.583599748270393  10.8717435829531 0.405691720285475  10.505 0.371249999999998  C 10.041875 0.335624999999999  9.58625 0.545624999999999  9.14 0.991875  L 6.925625 3.20625  L 1.235 2.13  L 1.131875 2.17125  C 0.906268884306762 2.25983947955483  0.741988211553776 2.45810925701533  0.696874999999999 2.69625  C 0.649999999999999 2.983125  0.796249999999999 3.268125  1.13 3.545625  L 4.7225 5.615625  L 4.71125 5.625  L 3.483125 6.855  L 1.82375 6.770625  L 0.786874999999998 7.805625  L 3.46625 8.84625  L 4.506875 11.5275  L 5.54375 10.48875  L 5.459375 8.83125  L 6.6875 7.60125  L 6.696875 7.59375  L 8.729375 11.128125  L 8.766875 11.1825  C 9.010625 11.476875  9.261875 11.625  9.515 11.625  C 9.54875 11.625  9.5825 11.62125  9.61625 11.6175  C 9.85377112391948 11.5710741183752  10.0514858899886 11.4072533122036  10.14125 11.1825  L 10.1825 11.075625  L 9.10625 5.386875  L 11.3225 3.170625  C 11.765 2.72625  11.975 2.266875  11.94125 1.8075  Z " fill-rule="nonzero" fill="#ffffff" stroke="none" transform="matrix(1 0 0 1 131 135 )" />
  </g>
</svg>