<?xml version="1.0" encoding="utf-8"?>
<svg version="1.1" xmlns:xlink="http://www.w3.org/1999/xlink" width="30px" height="24px" xmlns="http://www.w3.org/2000/svg">
  <g transform="matrix(1 0 0 1 -127 -129 )">
    <path d="M 29 4.5  C 29.0625 2.42893218813452  27.3835678118655 0.75  25.3125 1  L 4.6875 1  C 2.61643218813452 0.75  0.9375 2.42893218813452  1 4.5  L 1 19.5  C 0.9375 21.5710678118655  2.61643218813452 23.25  4.6875 23  L 25.3125 23  C 27.3835678118655 23.25  29.0625 21.5710678118655  29 19.5  L 29 4.5  Z M 27 4.5  L 27 19.5  C 27.1875 20.5355339059327  26.3480339059327 21.375  25.3125 21  L 4.6875 21  C 3.65196609406726 21.375  2.8125 20.5355339059327  3 19.5  L 3 4.5  C 2.8125 3.46446609406726  3.65196609406726 2.625  4.6875 3  L 25.3125 3  C 26.3480339059327 2.625  27.1875 3.46446609406726  27 4.5  Z " fill-rule="nonzero" fill="#ffffff" stroke="none" transform="matrix(1 0 0 1 127 129 )" />
  </g>
</svg>