<?xml version="1.0" encoding="utf-8"?>
<svg version="1.1" xmlns:xlink="http://www.w3.org/1999/xlink" width="140px" height="140px" xmlns="http://www.w3.org/2000/svg">
  <g transform="matrix(1 0 0 1 -71 -68 )">
    <path d="M 141 68  C 180.2 68  211 98.8  211 138  C 211 177.2  180.2 208  141 208  C 101.8 208  71 177.2  71 138  C 71 98.8  101.8 68  141 68  Z " fill-rule="nonzero" fill="#e9e9e9" stroke="none" />
    <path d="M 141 68.5  C 179.92 68.5  210.5 99.08  210.5 138  C 210.5 176.92  179.92 207.5  141 207.5  C 102.08 207.5  71.5 176.92  71.5 138  C 71.5 99.08  102.08 68.5  141 68.5  Z " stroke-width="1" stroke="#ffffff" fill="none" />
  </g>
</svg>