<?xml version="1.0" encoding="utf-8"?>
<svg version="1.1" xmlns:xlink="http://www.w3.org/1999/xlink" width="30px" height="46px" xmlns="http://www.w3.org/2000/svg">
  <g transform="matrix(1 0 0 1 -65 -95 )">
    <path d="M 24.1009615384615 14.475625  C 25.5721153846154 10.37875  27.2596153846154 7.01500000000001  29.1201923076923 4.34125000000001  C 23.8846153846154 0.416875000000013  19.2980769230769 -0.0143749999999869  15.2740384615385 3.13374999999999  C 9.25961538461539 7.834375  11.5096153846154 14.044375  9.30288461538461 20.599375  C 8.00480769230769 24.480625  0.216346153846154 24.566875  0.216346153846154 28.361875  C 0.216346153846154 32.156875  4.32692307692308 33.14875  3.67788461538462 34.830625  C 2.72596153846154 37.28875  1.34134615384615 40.825  2.76923076923078 43.024375  C 7.39903846153846 50.183125  14.9278846153846 39.919375  17.0913461538462 34.615  C 19.2548076923077 29.310625  20.2067307692308 35.693125  22.5432692307692 28.31875  C 24.8798076923077 20.944375  21.8509615384615 20.6425  24.1009615384615 14.475625  Z " fill-rule="nonzero" fill="#140f0f" stroke="none" transform="matrix(1 0 0 1 65 95 )" />
  </g>
</svg>