<?xml version="1.0" encoding="utf-8"?>
<svg version="1.1" xmlns:xlink="http://www.w3.org/1999/xlink" width="14px" height="20px" xmlns="http://www.w3.org/2000/svg">
  <g transform="matrix(1 0 0 1 -146 -39 )">
    <path d="M 5.71666666666666 16.5441176470588  L 8.82291666666667 16.5441176470588  C 9.74166666666668 16.5441176470588  10.4854166666667 17.2941176470588  10.4854166666667 18.2205882352941  C 10.4854166666667 19.1470588235294  9.74166666666668 19.8970588235294  8.82291666666667 19.8970588235294  L 5.71666666666666 19.8970588235294  C 4.79791666666665 19.8970588235294  4.05416666666666 19.1470588235294  4.05416666666666 18.2205882352941  C 4.05416666666666 17.2941176470588  4.79791666666665 16.5441176470588  5.71666666666666 16.5441176470588  Z M 9.08541666666668 18.2205882352941  C 9.08541666666668 18.0882352941176  8.99791666666666 17.9558823529412  8.82291666666667 17.9558823529412  L 5.71666666666666 17.9558823529412  C 5.58541666666666 17.9558823529412  5.45416666666665 18.0882352941176  5.45416666666665 18.2205882352941  C 5.45416666666665 18.3529411764706  5.58541666666666 18.485294117647  5.71666666666666 18.485294117647  L 8.82291666666667 18.485294117647  C 8.95416666666668 18.485294117647  9.08541666666668 18.3529411764706  9.08541666666668 18.2205882352941  Z M 0.860416666666697 7.36764705882353  C 0.816666666666653 3.75  3.74791666666666 0.79411764705882  7.33541666666668 0.79411764705882  C 10.9229166666667 0.79411764705882  13.8541666666667 3.75  13.8541666666667 7.36764705882352  C 13.8541666666667 8.73529411764706  13.4166666666667 10.0588235294118  12.6729166666667 11.1617647058823  L 10.3541666666667 15.8823529411765  C 10.2229166666667 16.1029411764706  10.0041666666667 16.2794117647059  9.74166666666668 16.2794117647059  L 5.01666666666668 16.2794117647059  C 4.75416666666665 16.2794117647059  4.49166666666668 16.1470588235294  4.40416666666667 15.8823529411765  L 1.91041666666669 10.9411764705882  C 1.21041666666668 9.88235294117648  0.860416666666697 8.64705882352942  0.860416666666697 7.36764705882353  Z M 12.4541666666667 7.36764705882352  C 12.4541666666667 4.5  10.1791666666667 2.20588235294118  7.33541666666668 2.20588235294118  C 4.49166666666668 2.20588235294118  2.21666666666667 4.5  2.21666666666667 7.36764705882352  C 2.21666666666667 8.38235294117647  2.52291666666668 9.35294117647058  3.04791666666668 10.1911764705882  L 3.09166666666667 10.2794117647059  L 5.41041666666669 14.8676470588235  L 6.1979166666667 14.8676470588235  L 6.1979166666667 11.9117647058824  L 6.15416666666667 11.9117647058824  C 6.11041666666668 11.9117647058824  6.06666666666669 11.9117647058824  6.02291666666668 11.8676470588235  C 5.14791666666668 11.3823529411765  4.62291666666667 10.9411764705882  4.40416666666667 10.5882352941176  C 4.09791666666669 10.0588235294118  4.40416666666667 9.61764705882353  5.06041666666667 9.44117647058824  C 6.1979166666667 9.13235294117647  6.8541666666667 9.79411764705883  6.89791666666668 11.0735294117647  L 6.89791666666668 11.1617647058823  L 6.89791666666668 14.8235294117647  L 7.81666666666669 14.8235294117647  L 7.81666666666669 11.1617647058823  C 7.81666666666669 9.79411764705882  8.47291666666669 9.13235294117647  9.65416666666667 9.39705882352941  C 10.3104166666667 9.5735294117647  10.6166666666667 10.0147058823529  10.3104166666667 10.5441176470588  C 10.0916666666667 10.8970588235294  9.56666666666669 11.3382352941176  8.69166666666669 11.8235294117647  C 8.64791666666668 11.8676470588235  8.6041666666667 11.8676470588235  8.56041666666667 11.8676470588235  L 8.51666666666668 11.8676470588235  L 8.51666666666668 14.8235294117647  L 9.30416666666668 14.8235294117647  L 11.4479166666667 10.4558823529412  C 11.4479166666667 10.4117647058823  11.4916666666667 10.3676470588235  11.4916666666667 10.3676470588235  C 12.1041666666667 9.48529411764704  12.4541666666667 8.4705882352941  12.4541666666667 7.36764705882352  Z M 6.19791666666667 10.9852941176471  C 6.15416666666666 10.1911764705882  5.89166666666668 9.97058823529411  5.27916666666666 10.0588235294118  L 4.97291666666665 10.1470588235294  L 5.01666666666668 10.1911764705882  C 5.14791666666668 10.3676470588235  5.49791666666667 10.6764705882353  6.06666666666665 10.9852941176471  L 6.19791666666667 11.0735294117647  L 6.19791666666667 10.9852941176471  Z M 9.47916666666667 10.1470588235294  C 8.77916666666666 9.92647058823529  8.51666666666668 10.1911764705882  8.47291666666665 11.1176470588235  L 8.69166666666665 10.985294117647  L 8.91041666666665 10.8529411764706  C 9.30416666666666 10.5882352941176  9.52291666666666 10.4117647058823  9.65416666666666 10.235294117647  L 9.69791666666667 10.1911764705882  L 9.47916666666667 10.1470588235294  Z " fill-rule="nonzero" fill="#ffffff" stroke="none" transform="matrix(1 0 0 1 146 39 )" />
  </g>
</svg>