<?xml version="1.0" encoding="utf-8"?>
<svg version="1.1" xmlns:xlink="http://www.w3.org/1999/xlink" width="56px" height="49px" xmlns="http://www.w3.org/2000/svg">
  <g transform="matrix(1 0 0 1 -123 -136 )">
    <path d="M 33.0428571428572 1  L 22.3285714285714 1  C 12.9 3.53255813953488  7.45714285714286 6.09651162790697  6.04285714285715 8.3613372093023  C 4.62857142857144 10.6261627906977  2.91428571428573 18.1898255813953  0.90000000000001 31.0095930232558  C 5.74285714285715 38.4023255813953  10.4571428571429 41.5645348837209  15.0428571428572 40.4107558139535  C 19.6285714285714 39.256976744186  22.0285714285714 41.5645348837209  22.3285714285714 47.247965116279  L 44.1857142857143 48.1026162790697  C 43.8857142857143 36.4366279069767  43.7571428571429 30.5822674418604  43.7571428571429 30.5822674418604  C 43.7571428571429 30.5822674418604  56.1 27.8901162790698  54.9 25.0270348837209  C 50.6142857142857 14.7712209302325  46.9285714285714 3.9171511627907  44.1857142857143 2.80610465116276  C 39.9 1.09680232558137  36.1714285714286 0.370348837209289  33.0428571428572 1  Z " fill-rule="nonzero" fill="#ffffff" stroke="none" transform="matrix(1 0 0 1 123 136 )" />
  </g>
</svg>