<?xml version="1.0" encoding="utf-8"?>
<svg version="1.1" xmlns:xlink="http://www.w3.org/1999/xlink" width="23px" height="25px" xmlns="http://www.w3.org/2000/svg">
  <g transform="matrix(1 0 0 1 -139 -115 )">
    <path d="M 19.823125 10.6676136363636  C 24.911875 7.51420454545456  19.478125 1.54829545454547  17.408125 0.86647727272726  C 12.664375 -0.710227272727273  7.57562499999999 1.50568181818181  3.90999999999999 4.01988636363636  C 2.74562499999999 4.82954545454542  1.75374999999999 5.98011363636362  1.15 7.17329545454542  C 1.02062499999999 7.3863636363636  0.416875000000013 7.34374999999997  0.373749999999987 7.55681818181816  C 0.330624999999993 7.89772727272724  1.49500000000001 9.04829545454543  1.58125 9.51704545454542  C 1.84000000000001 11.09375  3.47874999999999 14.8011363636363  6.62687499999999 20.6392045454545  C 7.79124999999999 20.1704545454545  8.09312499999999 19.7017045454545  7.57562499999999 19.1903409090909  C 6.75625 18.4232954545454  5.246875 17.1875  6.75625 15.8238636363636  C 7.79124999999999 14.9289772727273  8.56749999999999 16.6335227272727  9.128125 20.9375  C 10.9825 23.5369318181818  12.96625 24.8579545454545  15.079375 24.8579545454545  C 19.09 24.8579545454545  19.650625 21.1931818181818  19.435 20.9375  C 19.391875 20.8948863636363  17.45125 22.1306818181818  15.855625 21.7045454545455  C 14.561875 21.40625  14.7775 20.6818181818182  15.079375 20.5113636363637  C 17.839375 18.9346590909091  19.17625 19.1051136363636  19.823125 18.9346590909091  C 19.823125 18.9346590909091  20.081875 17.8267045454545  19.823125 17.7414772727273  C 16.631875 16.9744318181818  14.130625 20.2982954545455  12.27625 19.3181818181818  C 9.51625000000001 17.8693181818182  9.21437499999999 11.4772727272727  9.73187500000001 11.3494318181818  C 11.888125 10.8380681818182  14.648125 13.8210227272727  19.823125 10.6676136363636  Z " fill-rule="nonzero" fill="#251414" stroke="none" transform="matrix(1 0 0 1 139 115 )" />
  </g>
</svg>