<?xml version="1.0" encoding="utf-8"?>
<svg version="1.1" xmlns:xlink="http://www.w3.org/1999/xlink" width="28px" height="32px" xmlns="http://www.w3.org/2000/svg">
  <g transform="matrix(1 0 0 1 -71 -94 )">
    <path d="M 19.936 14.4571428571429  C 17.794 14.1142857142857  16.324 13.8142857142857  15.61 13.4714285714286  L 16.156 17.8  C 14.896 16.3  14.014 15.9142857142857  13.51 16.6  C 12.712 17.6285714285714  13.468 19.2142857142857  15.61 20.9285714285715  C 15.61 20.9285714285715  16.618 25.2142857142857  13.048 27.2285714285714  C 9.26800000000001 29.3714285714286  7.25199999999999 24.4428571428572  0.7 31.1285714285715  C -0.223999999999995 32.0714285714286  9.43600000000001 15.6571428571429  9.05800000000001 13.9  C 8.30199999999999 10.3428571428572  7.504 5.41428571428574  10.108 3.18571428571431  C 15.4 -1.39999999999996  21.91 0.185714285714312  24.808 3.18571428571431  C 27.874 6.35714285714289  27.664 9.01428571428577  26.866 11.1142857142857  C 26.068 13.2142857142857  23.17 14.8857142857143  19.936 14.4571428571429  Z " fill-rule="nonzero" fill="#140f0f" stroke="none" transform="matrix(1 0 0 1 71 94 )" />
  </g>
</svg>