<?xml version="1.0" encoding="utf-8"?>
<svg version="1.1" xmlns:xlink="http://www.w3.org/1999/xlink" width="16px" height="15px" xmlns="http://www.w3.org/2000/svg">
  <g transform="matrix(1 0 0 1 -122 -340 )">
    <path d="M 14.559412 8.42530826086957  L 15.3434865333333 9.17469326086957  C 14.6106832 10.0729786956522  13.7915942 10.771102826087  12.9062277333333 11.2361126086957  C 13.6215238 12.2515656521739  14.5756687333333 13.115677826087  15.7699130666667 13.8479758695652  L 15.0871304666667 14.8951623913043  C 12.4122732666667 13.1327647826087  10.7941035333333 10.6881091304348  10.2313706 7.57828304347826  L 8.49315113333333 7.57828304347826  L 8.49315113333333 13.2487115217391  C 9.44729606666667 12.9667767391304  10.4189482666667 12.6006280434783  11.3730932 12.151485  L 11.67947 13.2657984782609  C 10.4864762 13.7637613043478  8.97084886666667 14.2458580434783  7.16385093333333 14.7120873913044  L 6.89123806666667 13.6978545652174  C 7.16385093333333 13.5977739130435  7.30015733333333 13.4647395652174  7.30015733333333 13.2657984782609  L 7.30015733333333 0.56042608695652  L 14.3543271333333 0.56042608695652  L 14.3543271333333 7.57828304347826  L 11.3218219333333 7.57828304347826  C 11.5256563333333 8.60838260869566  11.8670476 9.54084195652174  12.3434948 10.3720004347826  C 13.1275693333333 9.939945  13.8603726666667 9.29064065217391  14.559412 8.42530826086957  Z M 0.773705999999999 0.57629282608696  L 6.00462113333333 0.57629282608696  L 6.00462113333333 5.73167152173913  L 4.42021533333333 5.73167152173913  L 4.42021533333333 8.34353478260869  L 6.22721326666667 8.34353478260869  L 6.22721326666667 9.45784826086956  L 4.42021533333333 9.45784826086956  L 4.42021533333333 12.5164134782609  C 5.1017474 12.3174723913043  5.7670228 12.1173110869565  6.39728366666667 11.91837  L 6.39728366666667 13.065637173913  C 4.69282813333333 13.6478145652174  2.6832464 14.1970376086956  0.382294000000002 14.7120873913044  L 0.0409026666666676 13.5648202173913  L 0.824977200000002 13.398832826087  L 0.824977200000002 7.39520869565217  L 1.9329358 7.39520869565217  L 1.9329358 13.1498517391304  C 2.39312626666666 13.0497710869565  2.83580953333333 12.932602826087  3.27849273333333 12.832522173913  L 3.27849273333333 5.73167152173913  L 0.773705999999999 5.73167152173913  L 0.773705999999999 0.57629282608696  Z M 8.49315113333333 4.634445  L 8.49315113333333 6.49692326086957  L 13.1613333333333 6.49692326086957  L 13.1613333333333 4.634445  L 8.49315113333333 4.634445  Z M 8.49440166666667 1.64056565217391  L 8.49440166666667 3.57017152173913  L 13.1625838666667 3.57017152173913  L 13.1625838666667 1.64056565217391  L 8.49440166666667 1.64056565217391  Z M 1.95044306666667 1.67351934782609  L 1.95044306666667 4.634445  L 4.8466418 4.634445  L 4.8466418 1.67351934782609  L 1.95044306666667 1.67351934782609  Z " fill-rule="nonzero" fill="#5183f5" stroke="none" transform="matrix(1 0 0 1 122 340 )" />
  </g>
</svg>