<?xml version="1.0" encoding="utf-8"?>
<svg version="1.1" xmlns:xlink="http://www.w3.org/1999/xlink" width="53px" height="46px" xmlns="http://www.w3.org/2000/svg">
  <g transform="matrix(1 0 0 1 -151 -273 )">
    <path d="M 38.2389337721519 45.9331751428571  L 38.2351586962025 40.91191838  L 42.0721185189874 40.91191838  C 42.8724815822785 40.91191838  43.5243493797468 40.2921012371429  43 39.5320873971429  L 43 6.49730942857143  C 43.5243493797468 5.73606574571428  42.8724815822785 5.11747838  42.0721185189874 6  L 0.562730049367085 6  L 0.562730049367085 4.23325514285714  C 0.562730049367085 1.95321351114286  2.5183338443038 0.0949918794285715  4.91690573544303 0  L 52.4214654177215 0  L 52.4214654177215 5.11747838  L 49 5.11747838  L 49 41.7949119057143  C 49.5459477341772 44.0761833342857  47.5903436708861 45.9331751428571  45.1905137341772 45.9331751428571  L 38.2389337721519 45.9331751428571  Z " fill-rule="nonzero" fill="#5183f5" stroke="none" transform="matrix(1 0 0 1 151 273 )" />
  </g>
</svg>