<?xml version="1.0" encoding="utf-8"?>
<svg version="1.1" xmlns:xlink="http://www.w3.org/1999/xlink" width="25px" height="10px" xmlns="http://www.w3.org/2000/svg">
  <g transform="matrix(1 0 0 1 -343 -7 )">
    <path d="M 1.49371280000003 0.5  L 21.0062872 0.5  C 21.8266197 0.5  22.5 1.17394722  22.5 2.00530324  L 22.5 8.4946968  C 22.5 9.3319784  21.831242 10  21.0062872 10  L 1.49371280000003 10  C 0.673380300000019 10  0 9.3260528  0 8.4946968  L 0 2.00530324  C 0 1.16802155  0.668758000000025 0.5  1.49371280000003 0.5  Z M 22 2.00844055  C 22 1.45149422  21.5509419 1  20.9918476 1  L 1.50815239999997 1  C 0.951365199999998 1  0.5 1.45699692  0.5 2.00844055  L 0.5 8.4915594  C 0.5 9.0485058  0.949058100000002 9.5  1.50815239999997 9.5  L 20.9918476 9.5  C 21.5486348 9.5  22 9.0430031  22 8.4915594  L 22 2.00844055  Z M 23 3.5  L 23.75 3.5  C 24.1671014 3.5  24.5 3.83232111  24.5 4.24225998  L 24.5 6.25774002  C 24.5 6.66440529  24.1642136 7  23.75 7  L 23 7  L 23 3.5  Z M 1.5067444 1.5  L 20.9932556 1.5  C 21.2697754 1.5  21.5 1.72031886  21.5 1.99209595  L 21.5 8.5079041  C 21.5 8.783628  21.2731228 9  20.9932556 9  L 1.5067444 9  C 1.23022459999999 9  1 8.7796811  1 8.5079041  L 1 1.99209595  C 1 1.71637201  1.22687719999999 1.5  1.5067444 1.5  Z " fill-rule="nonzero" fill="#282828" stroke="none" transform="matrix(1 0 0 1 343 7 )" />
  </g>
</svg>