<?xml version="1.0" encoding="utf-8"?>
<svg version="1.1" xmlns:xlink="http://www.w3.org/1999/xlink" width="13px" height="9px" xmlns="http://www.w3.org/2000/svg">
  <g transform="matrix(1 0 0 1 -44 -7 )">
    <path d="M 4.3601652 6.90531769  C 4.8778594 6.33143413  5.6390073 5.96891192  6.487563 5.96891192  C 7.3523616 5.96891192  8.126374 6.34544555  8.6444208 6.93850432  L 6.5225391 9  L 4.3601652 6.90531769  Z M 2.1792698 4.79269359  C 3.2566264 3.67975893  4.7882723 2.98445596  6.487563 2.98445596  C 8.2014387 2.98445596  9.7447794 3.69174563  10.8234964 4.82144245  L 9.7346215 5.87932931  C 8.9356305 5.01823504  7.7768836 4.47668394  6.487563 4.47668394  C 5.213648 4.47668394  4.067205 5.0053708  3.2692987 5.84859996  L 2.1792698 4.79269359  Z M 0 2.68164431  C 1.6355496 1.02895605  3.9375103 0  6.487563 0  C 9.0505699 0  11.3629578 1.03943672  13 2.70687933  L 11.9118698 3.76404272  C 10.5538809 2.36552609  8.6260026 1.49222798  6.487563 1.49222798  C 4.3628921 1.49222798  2.4460798 2.35431655  1.0895579 3.73709441  L 0 2.68164431  Z " fill-rule="nonzero" fill="#282828" stroke="none" transform="matrix(1 0 0 1 44 7 )" />
  </g>
</svg>