<?xml version="1.0" encoding="utf-8"?>
<svg version="1.1" xmlns:xlink="http://www.w3.org/1999/xlink" width="16px" height="16px" xmlns="http://www.w3.org/2000/svg">
  <g transform="matrix(1 0 0 1 -159 -183 )">
    <path d="M 9.4521466 0.52516  L 10.7126683333333 0.52516  L 10.7126683333333 6.01593133333334  L 15.1432522 6.01593133333334  L 15.1432522 7.20616  L 10.7126683333333 7.20616  L 10.7126683333333 14.3288173333333  L 15.7910202666667 14.3288173333333  L 15.7910202666667 15.5365126666667  L 5.75436604666667 15.5365126666667  L 5.75436604666667 14.3288173333333  L 9.4521466 14.3288173333333  L 9.4521466 0.52516  Z M 2.09034948 0.661150666666667  C 3.24957929333333 1.54446466666667  4.22123146666667 2.42902666666667  5.00530600666667 3.31234066666667  L 4.16996024666667 4.16321733333334  C 3.45341366666667 3.31234066666667  2.46550476 2.42902666666667  1.238747 1.49331266666667  L 2.09034948 0.661150666666667  Z M 0.0970244333333333 5.726484  L 3.77854824 5.726484  L 3.77854824 13.3257313333333  C 4.39130186666667 12.832922  5.03906998 12.255274  5.7368588 11.5927886666667  L 6.06074286666667 12.884074  C 5.00530600666667 13.8696933333333  3.86233292 14.7542553333333  2.67058964666667 15.519046  L 2.21039917333333 14.431122  C 2.46550476 14.2265126666667  2.60181118 13.9894646666667  2.60181118 13.7511693333333  L 2.60181118 6.899246  L 0.0970244333333333 6.899246  L 0.0970244333333333 5.726484  Z " fill-rule="nonzero" fill="#5183f5" stroke="none" transform="matrix(1 0 0 1 159 183 )" />
  </g>
</svg>