<?xml version="1.0" encoding="utf-8"?>
<svg version="1.1" xmlns:xlink="http://www.w3.org/1999/xlink" width="29px" height="31px" xmlns="http://www.w3.org/2000/svg">
  <g transform="matrix(1 0 0 1 -169 -135 )">
    <path d="M 28.7948050452381 31  L 18 31  L 18 17.4539874489362  L 13.4171455238095 17.4539874489362  L 5.99706535714286 30.9330512787234  L 0.315115311904761 30.0146975170213  L 6.97751579285714 17.4539874489362  L 2 17.4539874489362  L 2 0.279290212765957  L 24.3121907380952 0.279290212765957  C 26.7833921809524 0.279290212765957  28.7948050452381 2.14685645531915  28.7948050452381 4.43533489361702  L 28.7948050452381 17.4539874489362  L 24.0518598095238 17.4539874489362  L 24.0518598095238 25.8932145382979  L 28.7948050452381 25.8932145382979  L 28.7948050452381 31  Z M 7.98905056904762 13  L 22.5973738547619 13  L 22.5973738547619 6.70653248085106  C 22.5973738547619 5.94370631276596  21.92517595 5.32036134680851  21.1040325261905 5.32036134680851  L 7.98905056904762 5.32036134680851  L 7.98905056904762 13  Z " fill-rule="nonzero" fill="#5183f5" stroke="none" transform="matrix(1 0 0 1 169 135 )" />
  </g>
</svg>