<?xml version="1.0" encoding="utf-8"?>
<svg version="1.1" xmlns:xlink="http://www.w3.org/1999/xlink" width="16px" height="16px" xmlns="http://www.w3.org/2000/svg">
  <g transform="matrix(1 0 0 1 -221 -184 )">
    <path d="M 1.89519666666666 3.05001536  L 9.238236 3.05001536  C 9.78346199999999 2.23437184  10.2786666666667 1.33608576  10.7038426666667 0.38989184  L 11.8968366666667 0.797114240000001  C 11.4879173333333 1.62952576  11.0277266666667 2.3804928  10.5162653333333 3.05001536  L 13.7888693333333 3.05001536  L 13.7888693333333 9.75721536  L 8.455412 9.75721536  L 8.455412 11.30825536  L 15.4070393333333 11.30825536  L 15.4070393333333 12.41733824  L 8.455412 12.41733824  L 8.455412 15.5182208  L 7.227404 15.5182208  L 7.227404 12.41733824  L 0.275776400000003 12.41733824  L 0.275776400000003 11.30825536  L 7.227404 11.30825536  L 7.227404 9.75721536  L 1.89519666666666 9.75721536  L 1.89519666666666 3.05001536  Z M 8.455412 6.88509632  L 8.455412 8.71280832  L 12.595876 8.71280832  L 12.595876 6.88509632  L 8.455412 6.88509632  Z M 8.455412 4.07765376  L 8.455412 5.87302784  L 12.595876 5.87302784  L 12.595876 4.07765376  L 8.455412 4.07765376  Z M 4.91019466666666 0.47133632  C 5.47292733333333 1.09175232  6.000646 1.7936128  6.51210733333334 2.54338176  L 5.49043466666667 3.03324736  C 4.97897333333333 2.24994176  4.45125466666667 1.56484928  3.87101446666667 0.944433280000003  L 4.91019466666666 0.47133632  Z M 3.08693993333334 6.88509632  L 3.08693993333334 8.71280832  L 7.227404 8.71280832  L 7.227404 6.88509632  L 3.08693993333334 6.88509632  Z M 3.08693993333334 4.07765376  L 3.08693993333334 5.87302784  L 7.227404 5.87302784  L 7.227404 4.07765376  L 3.08693993333334 4.07765376  Z " fill-rule="nonzero" fill="#5183f5" stroke="none" transform="matrix(1 0 0 1 221 184 )" />
  </g>
</svg>