<?xml version="1.0" encoding="utf-8"?>
<svg version="1.1" xmlns:xlink="http://www.w3.org/1999/xlink" width="16px" height="16px" xmlns="http://www.w3.org/2000/svg">
  <g transform="matrix(1 0 0 1 -310 -184 )">
    <path d="M 1.88202066666666 3.05001536  L 9.22506 3.05001536  C 9.770286 2.23437184  10.2654906666667 1.33608576  10.6906666666667 0.38989184  L 11.8836606666667 0.797114240000001  C 11.4747413333333 1.62952576  11.0158013333333 2.3804928  10.5030893333333 3.05001536  L 13.7756933333333 3.05001536  L 13.7756933333333 9.75721536  L 8.442236 9.75721536  L 8.442236 11.30825536  L 15.3938633333333 11.30825536  L 15.3938633333333 12.41733824  L 8.442236 12.41733824  L 8.442236 15.5182208  L 7.215478 15.5182208  L 7.215478 12.41733824  L 0.262600666666666 12.41733824  L 0.262600666666666 11.30825536  L 7.215478 11.30825536  L 7.215478 9.75721536  L 1.88202066666666 9.75721536  L 1.88202066666666 3.05001536  Z M 8.442236 6.88509632  L 8.442236 8.71280832  L 12.5827 8.71280832  L 12.5827 6.88509632  L 8.442236 6.88509632  Z M 8.442236 4.07765376  L 8.442236 5.87302784  L 12.5827 5.87302784  L 12.5827 4.07765376  L 8.442236 4.07765376  Z M 4.89701866666667 0.47133632  C 5.45975133333333 1.09175232  5.98872066666667 1.7936128  6.49893200000001 2.54338176  L 5.47725866666667 3.03324736  C 4.96579733333334 2.24994176  4.43807866666666 1.56484928  3.85783866666666 0.944433280000003  L 4.89701866666667 0.47133632  Z M 3.073764 6.88509632  L 3.073764 8.71280832  L 7.215478 8.71280832  L 7.215478 6.88509632  L 3.073764 6.88509632  Z M 3.073764 4.07765376  L 3.073764 5.87302784  L 7.215478 5.87302784  L 7.215478 4.07765376  L 3.073764 4.07765376  Z " fill-rule="nonzero" fill="#5183f5" stroke="none" transform="matrix(1 0 0 1 310 184 )" />
  </g>
</svg>