<?xml version="1.0" encoding="utf-8"?>
<svg version="1.1" xmlns:xlink="http://www.w3.org/1999/xlink" width="37px" height="22px" xmlns="http://www.w3.org/2000/svg">
  <g transform="matrix(1 0 0 1 -295 -118 )">
    <path d="M 36 4.8856902875  C 36.3306996 2.501607233125  34.4517514727273 0.55754384125  32.0491208181818 0.55754384125  L 1 0.55754384125  L 1 21.755683125  L 36 21.755683125  L 36 4.8856902875  Z M 30.3771217636364 14.829876875  L 30.3771217636364 17  L 6.59309592727272 17  L 6.59309592727272 13  L 28.919644 13  C 29.7222029272727 13.3875902875  30.3771217636364 14.03346704375  30.3771217636364 14.829876875  Z M 6.59309592727272 9  L 6.59309592727272 5.26137954375  L 28.919644 5.26137954375  C 29.7222029272727 5.26137954375  30.3771217636364 5.91111613125  30.3771217636364 6.7049527875  L 30.3771217636364 9  L 6.59309592727272 9  Z " fill-rule="nonzero" fill="#5183f5" stroke="none" transform="matrix(1 0 0 1 295 118 )" />
  </g>
</svg>