<?xml version="1.0" encoding="utf-8"?>
<svg version="1.1" xmlns:xlink="http://www.w3.org/1999/xlink" width="16px" height="16px" xmlns="http://www.w3.org/2000/svg">
  <g transform="matrix(1 0 0 1 -251 -184 )">
    <path d="M 1.66912933333333 8.35301504  L 13.3064466666667 8.35301504  L 13.3064466666667 9.25130048  C 12.1822313333333 10.59034496  10.8016593333333 11.73176704  9.16598266666667 12.66239104  C 11.0067446666667 13.428928  13.1876473333333 13.98466752  15.692434 14.31044544  L 15.1297013333333 15.38719104  C 12.3185373333333 14.93086144  9.93380066666666 14.22900096  7.97298866666667 13.28280704  C 5.92839266666666 14.24576896  3.526148 14.94762944  0.800019999999999 15.38719104  L 0.237286666666667 14.27810752  C 2.69080266666667 13.93556096  4.83794133333333 13.38101952  6.71246733333334 12.61328448  C 5.19558933333334 11.69942848  3.96883133333334 10.63825344  3.01468666666667 9.39742144  L 1.66912933333333 9.39742144  L 1.66912933333333 8.35301504  Z M 12.334794 3.98016  C 13.6303306666667 4.79580352  14.7045253333333 5.61144704  15.5898913333333 6.428288  L 14.7382893333333 7.24393152  C 13.9542146666667 6.46062656  12.88002 5.61144704  11.518206 4.73112704  L 12.334794 3.98016  Z M 8.00800333333333 0.307968000000001  C 8.211838 0.797832959999996  8.39941533333333 1.33680448  8.58699266666667 1.93925504  L 15.1647153333333 1.93925504  L 15.1647153333333 3.083072  L 10.4615186666667 3.083072  L 10.4615186666667 7.48826496  L 9.23351066666667 7.48826496  L 9.23351066666667 3.083072  L 6.45736133333332 3.083072  L 6.45736133333332 7.48826496  L 5.22935333333334 7.48826496  L 5.22935333333334 3.083072  L 0.509899999999997 3.083072  L 0.509899999999997 1.93925504  L 7.342728 1.93925504  C 7.13889333333333 1.41705152  6.91630133333333 0.928383999999996  6.67870333333334 0.504392959999996  L 8.00800333333333 0.307968000000001  Z M 3.35607800000001 4.02926656  L 4.25895133333334 4.79580352  C 3.33857066666667 5.72642752  2.19684800000001 6.55883904  0.851291333333336 7.27626944  L 0.100980666666658 6.33007552  C 1.39651666666667 5.67732096  2.46946066666667 4.90958656  3.35607800000001 4.02926656  Z M 4.37775066666668 9.39742144  C 5.29813199999999 10.44302656  6.47361800000001 11.34011456  7.88795333333333 12.07431296  C 9.35356 11.32334656  10.5978253333333 10.42625856  11.6545126666667 9.39742144  L 4.37775066666668 9.39742144  Z " fill-rule="nonzero" fill="#5183f5" stroke="none" transform="matrix(1 0 0 1 251 184 )" />
  </g>
</svg>