<?xml version="1.0" encoding="utf-8"?>
<svg version="1.1" xmlns:xlink="http://www.w3.org/1999/xlink" width="10px" height="10px" xmlns="http://www.w3.org/2000/svg">
  <g transform="matrix(1 0 0 1 -50 -1141 )">
    <path d="M 55 1142  C 57.24 1142  59 1143.76  59 1146  C 59 1148.24  57.24 1150  55 1150  C 52.76 1150  51 1148.24  51 1146  C 51 1143.76  52.76 1142  55 1142  Z " fill-rule="nonzero" fill="#ffffff" stroke="none" />
    <path d="M 55 1142  C 57.24 1142  59 1143.76  59 1146  C 59 1148.24  57.24 1150  55 1150  C 52.76 1150  51 1148.24  51 1146  C 51 1143.76  52.76 1142  55 1142  Z " stroke-width="2" stroke="#0079fe" fill="none" />
  </g>
</svg>