<?xml version="1.0" encoding="utf-8"?>
<svg version="1.1" xmlns:xlink="http://www.w3.org/1999/xlink" width="40px" height="40px" xmlns="http://www.w3.org/2000/svg">
  <g transform="matrix(1 0 0 1 -530 -541 )">
    <path d="M 531 561  A 19 19 0 0 1 550 542 A 19 19 0 0 1 569 561 A 19 19 0 0 1 550 580 A 19 19 0 0 1 531 561 Z " fill-rule="nonzero" fill="#ffffff" stroke="none" />
    <path d="M 530.5 561  A 19.5 19.5 0 0 1 550 541.5 A 19.5 19.5 0 0 1 569.5 561 A 19.5 19.5 0 0 1 550 580.5 A 19.5 19.5 0 0 1 530.5 561 Z " stroke-width="1" stroke-dasharray="3,1" stroke="#0079fe" fill="none" stroke-dashoffset="0.5" />
  </g>
</svg>