<?xml version="1.0" encoding="utf-8"?>
<svg version="1.1" xmlns:xlink="http://www.w3.org/1999/xlink" width="24px" height="24px" xmlns="http://www.w3.org/2000/svg">
  <g transform="matrix(1 0 0 1 -38 -256 )">
    <path d="M 23.3173828125 6.2548828125  L 15.3515625 14.208984375  C 15.3193359375 14.2412109375  15.2724609375 14.26171875  15.228515625 14.26171875  L 12.486328125 14.3291015625  L 12.4775390625 14.3291015625  C 12.2724609375 14.3291015625  12.10546875 14.162109375  12.10546875 13.9541015625  L 12.1494140625 11.19140625  C 12.1494140625 11.14453125  12.169921875 11.09765625  12.2021484375 11.0625  C 12.2021484375 11.0625  21.6005859375 1.681640625  22.8486328125 0.436523437499999  C 22.9072265625 0.377929687499999  22.8662109375 0.278320312499999  22.7841796875 0.278320312499999  L 1.21875 0.278320312499999  C 0.7001953125 0.278320312499999  0.28125 0.697265624999998  0.28125 1.2158203125  L 0.28125 22.7783203125  C 0.28125 23.296875  0.7001953125 23.7158203125  1.21875 23.7158203125  L 22.78125 23.7158203125  C 23.2998046875 23.7158203125  23.71875 23.296875  23.71875 22.7783203125  L 23.71875 6.421875  C 23.71875 6.2138671875  23.466796875 6.1083984375  23.3173828125 6.2548828125  Z M 9.580078125 15.0380859375  C 10.072265625 15.1962890625  10.341796875 15.7265625  10.18359375 16.21875  C 10.025390625 16.7109375  9.4951171875 16.98046875  9.0029296875 16.822265625  C 8.5634765625 16.681640625  8.3935546875 16.7373046875  8.373046875 16.74609375  C 8.3115234375 16.822265625  8.2939453125 17.1650390625  8.4287109375 17.4287109375  C 8.44921875 17.4697265625  8.466796875 17.5107421875  8.4814453125 17.5546875  C 8.6748046875 18.134765625  8.7509765625 18.6357421875  8.7158203125 19.0810546875  C 8.6748046875 19.587890625  8.478515625 20.0302734375  8.1474609375 20.35546875  C 7.716796875 20.783203125  7.107421875 20.994140625  6.298828125 20.994140625  C 5.98828125 20.994140625  5.6513671875 20.9619140625  5.2822265625 20.900390625  C 4.39453125 20.7509765625  3.544921875 20.4609375  3.0908203125 20.3056640625  L 3.0498046875 20.291015625  C 2.560546875 20.1240234375  2.2998046875 19.5908203125  2.466796875 19.1015625  C 2.6337890625 18.6123046875  3.1669921875 18.3515625  3.65625 18.5185546875  L 3.697265625 18.533203125  C 4.1015625 18.6708984375  4.8544921875 18.9287109375  5.5927734375 19.0546875  C 6.5419921875 19.2158203125  6.8056640625 19.04296875  6.826171875 19.0283203125  C 6.8349609375 19.0107421875  6.9140625 18.802734375  6.720703125 18.205078125  C 6.36328125 17.4404296875  6.287109375 16.30078125  6.9521484375 15.5244140625  C 7.2861328125 15.134765625  8.0712890625 14.5517578125  9.580078125 15.0380859375  Z " fill-rule="nonzero" fill="#ffffff" stroke="none" transform="matrix(1 0 0 1 38 256 )" />
  </g>
</svg>