<?xml version="1.0" encoding="utf-8"?>
<svg version="1.1" xmlns:xlink="http://www.w3.org/1999/xlink" width="24px" height="26px" xmlns="http://www.w3.org/2000/svg">
  <g transform="matrix(1 0 0 1 -130 -256 )">
    <path d="M 23 6.0478515625  C 23.431640625 4.650390625  22.2861328125 3.51953125  20.87109375 4  L 5.0947265625 4  C 4.9072265625 3.5107421875  4.7314453125 3.5927734375  4.611328125 3.736328125  C 4.4912109375 3.8798828125  4.44140625 4.064453125  4.4736328125 4.24609375  C 4.5 4.544921875  4.751953125 4.779296875  5.056640625 5  L 20.87109375 5  C 21.57421875 4.78515625  22.1455078125 5.3505859375  22.1455078125 6.044921875  L 22.1455078125 7  L 4.9130859375 7  C 3.521484375 6.6953125  2.3583984375 5.634765625  2.2705078125 4.2607421875  C 2.220703125 3.560546875  2.466796875 2.8720703125  2.9501953125 2.359375  C 3.43359375 1.8466796875  4.11328125 1.556640625  4.822265625 2  L 18.943359375 2  C 19.259765625 1.5068359375  19.4912109375 1.2373046875  19.4912109375 0.9208984375  C 19.4912109375 0.6044921875  19.259765625 0.3349609375  18.943359375 0.2822265625  L 4.822265625 0.2822265625  C 3.7939453125 0.288085937500001  2.8125 0.6953125  2.0888671875 1.4189453125  C 1.3681640625 2.142578125  0.966796874999999 3.12109375  1 4.134765625  L 1 23.171875  C 0.9755859375 24.5751953125  2.126953125 25.7119140625  3.544921875 25.7119140625  L 20.87109375 25.7119140625  C 22.2861328125 25.703125  23.4287109375 24.572265625  23 23.171875  L 23 6.0478515625  Z M 13.265625 19.7822265625  C 13.2685546875 20.2509765625  12.8876953125 20.62890625  12.4189453125 20.62890625  L 6.486328125 20.62890625  C 6.017578125 20.62890625  5.6396484375 20.248046875  5.6396484375 19.7822265625  C 5.6396484375 19.3134765625  6.0205078125 18.935546875  6.486328125 18.935546875  L 12.4189453125 18.935546875  C 12.8876953125 18.935546875  13.265625 19.31640625  13.265625 19.7822265625  Z M 6.486328125 16.3896484375  C 6.017578125 16.3896484375  5.6396484375 16.01171875  5.6396484375 15.54296875  C 5.6396484375 15.07421875  6.0205078125 14.6962890625  6.486328125 14.6962890625  L 10.7255859375 14.6962890625  C 11.1943359375 14.6962890625  11.572265625 15.0771484375  11.572265625 15.54296875  C 11.572265625 16.01171875  11.19140625 16.3896484375  10.7255859375 16.3896484375  L 6.486328125 16.3896484375  Z M 15.8115234375 11.306640625  C 15.8115234375 11.7724609375  15.4306640625 12.1533203125  14.9619140625 12.1533203125  L 6.486328125 12.1533203125  C 6.017578125 12.1533203125  5.6396484375 11.7724609375  5.6396484375 11.306640625  C 5.6396484375 10.837890625  6.0205078125 10.4599609375  6.486328125 10.4599609375  L 14.96484375 10.4599609375  C 15.43359375 10.4599609375  15.8115234375 10.8408203125  15.8115234375 11.306640625  Z " fill-rule="nonzero" fill="#ffffff" stroke="none" transform="matrix(1 0 0 1 130 256 )" />
  </g>
</svg>