<?xml version="1.0" encoding="utf-8"?>
<svg version="1.1" xmlns:xlink="http://www.w3.org/1999/xlink" width="178px" height="53px" xmlns="http://www.w3.org/2000/svg">
  <g transform="matrix(1 0 0 1 -99 -177 )">
    <path d="M 99.5 212.026036445757  C 99.5 212.026036445757  99.5 182  99.5 182  C 99.5 179.514718625761  101.514718625761 177.5  104 177.5  C 104 177.5  272 177.5  272 177.5  C 274.485281374239 177.5  276.5 179.514718625761  276.5 182  C 276.5 182  276.5 212.026036445757  276.5 212.026036445757  C 276.5 214.511317819996  274.485281374239 216.526036445757  272 216.526036445757  C 272 216.526036445757  197.559896471048 216.526036445757  197.559896471048 216.526036445757  C 197.559896471048 216.526036445757  188.086108971164 228.837692288664  188.086108971164 228.837692288664  C 188.086108971164 228.837692288664  178.043439819601 216.526036445757  178.043439819601 216.526036445757  C 178.043439819601 216.526036445757  104 216.526036445757  104 216.526036445757  C 101.514718625761 216.526036445757  99.5 214.511317819996  99.5 212.026036445757  Z " fill-rule="nonzero" fill="#ffffff" stroke="none" />
    <path d="M 99 212.026036445757  C 99 212.026036445757  99 182  99 182  C 99 179.238576250846  101.238576250846 177  104 177  C 104 177  272 177  272 177  C 274.761423749154 177  277 179.238576250846  277 182  C 277 182  277 212.026036445757  277 212.026036445757  C 277 214.787460194911  274.761423749154 217.026036445757  272 217.026036445757  C 272 217.026036445757  197.80604519169 217.026036445757  197.80604519169 217.026036445757  C 197.80604519169 217.026036445757  188.097533376169 229.642728156539  188.097533376169 229.642728156539  C 188.097533376169 229.642728156539  177.80604519169 217.026036445757  177.80604519169 217.026036445757  C 177.80604519169 217.026036445757  104 217.026036445757  104 217.026036445757  C 101.238576250846 217.026036445757  99 214.787460194911  99 212.026036445757  Z M 100 212.026036445757  C 100 214.23517544508  101.790861000677 216.026036445757  104 216.026036445757  C 104 216.026036445757  178.280834447511 216.026036445757  178.280834447511 216.026036445757  C 178.280834447511 216.026036445757  188.074684566159 228.03265642079  188.074684566159 228.03265642079  C 188.074684566159 228.03265642079  197.313747750406 216.026036445757  197.313747750406 216.026036445757  C 197.313747750406 216.026036445757  272 216.026036445757  272 216.026036445757  C 274.209138999323 216.026036445757  276 214.23517544508  276 212.026036445757  C 276 212.026036445757  276 182  276 182  C 276 179.790861000677  274.209138999323 178  272 178  C 272 178  104 178  104 178  C 101.790861000677 178  100 179.790861000677  100 182  C 100 182  100 212.026036445757  100 212.026036445757  Z " fill-rule="nonzero" fill="#e4e4e4" stroke="none" />
  </g>
</svg>