<?xml version="1.0" encoding="utf-8"?>
<svg version="1.1" xmlns:xlink="http://www.w3.org/1999/xlink" width="10px" height="10px" xmlns="http://www.w3.org/2000/svg">
  <g transform="matrix(1 0 0 1 -472 -3801 )">
    <path d="M 477 3803  C 478.68 3803  480 3804.32  480 3806  C 480 3807.68  478.68 3809  477 3809  C 475.32 3809  474 3807.68  474 3806  C 474 3804.32  475.32 3803  477 3803  Z " fill-rule="nonzero" fill="#fcfcfc" stroke="none" />
    <path d="M 477 3802.5  C 478.96 3802.5  480.5 3804.04  480.5 3806  C 480.5 3807.96  478.96 3809.5  477 3809.5  C 475.04 3809.5  473.5 3807.96  473.5 3806  C 473.5 3804.04  475.04 3802.5  477 3802.5  Z " stroke-width="3" stroke="#52c1f5" fill="none" />
  </g>
</svg>