<?xml version="1.0" encoding="utf-8"?>
<svg version="1.1" xmlns:xlink="http://www.w3.org/1999/xlink" width="10px" height="10px" xmlns="http://www.w3.org/2000/svg">
  <g transform="matrix(1 0 0 1 -575 -3886 )">
    <path d="M 580 3887  C 582.24 3887  584 3888.76  584 3891  C 584 3893.24  582.24 3895  580 3895  C 577.76 3895  576 3893.24  576 3891  C 576 3888.76  577.76 3887  580 3887  Z " fill-rule="nonzero" fill="#ffffff" stroke="none" />
    <path d="M 580 3887  C 582.24 3887  584 3888.76  584 3891  C 584 3893.24  582.24 3895  580 3895  C 577.76 3895  576 3893.24  576 3891  C 576 3888.76  577.76 3887  580 3887  Z " stroke-width="2" stroke="#52c1f5" fill="none" />
  </g>
</svg>