<?xml version="1.0" encoding="utf-8"?>
<svg version="1.1" xmlns:xlink="http://www.w3.org/1999/xlink" width="10px" height="10px" xmlns="http://www.w3.org/2000/svg">
  <g transform="matrix(1 0 0 1 -883 -4856 )">
    <path d="M 888 4857  C 890.24 4857  892 4858.76  892 4861  C 892 4863.24  890.24 4865  888 4865  C 885.76 4865  884 4863.24  884 4861  C 884 4858.76  885.76 4857  888 4857  Z " fill-rule="nonzero" fill="#f9f9f9" stroke="none" />
    <path d="M 888 4857  C 890.24 4857  892 4858.76  892 4861  C 892 4863.24  890.24 4865  888 4865  C 885.76 4865  884 4863.24  884 4861  C 884 4858.76  885.76 4857  888 4857  Z " stroke-width="2" stroke="#0079fe" fill="none" />
  </g>
</svg>