<?xml version="1.0" encoding="utf-8"?>
<svg version="1.1" xmlns:xlink="http://www.w3.org/1999/xlink" width="105px" height="105px" xmlns="http://www.w3.org/2000/svg">
  <g transform="matrix(1 0 0 1 -90 -87 )">
    <path d="M 142.5 87  C 171.9 87  195 110.1  195 139.5  C 195 168.9  171.9 192  142.5 192  C 113.1 192  90 168.9  90 139.5  C 90 110.1  113.1 87  142.5 87  Z " fill-rule="nonzero" fill="#ffffff" stroke="none" />
    <path d="M 142.5 87.5  C 171.62 87.5  194.5 110.38  194.5 139.5  C 194.5 168.62  171.62 191.5  142.5 191.5  C 113.38 191.5  90.5 168.62  90.5 139.5  C 90.5 110.38  113.38 87.5  142.5 87.5  Z " stroke-width="1" stroke="#ffffff" fill="none" />
  </g>
</svg>