<?xml version="1.0" encoding="utf-8"?>
<svg version="1.1" xmlns:xlink="http://www.w3.org/1999/xlink" width="10px" height="11px" xmlns="http://www.w3.org/2000/svg">
  <g transform="matrix(1 0 0 1 -9 -31 )">
    <path d="M 9.92924311904762 10.9762440021277  L 6.2433425 10.9762440021277  L 6.2433425 6.19335038510638  L 4.6266019047619 6.19335038510638  L 2.06795357142857 10.9762440021277  L 0.108660452380952 10.6503765382979  L 2.40603992857143 6.19335038510638  L 0.617799761904762 6.19335038510638  L 0.617799761904762 0.0991029787234041  L 8.38351404761905 0.0991029787234041  C 9.23565247619048 0.0991029787234041  9.92924311904762 0.761787774468085  9.92924311904762 1.5738285106383  L 9.92924311904762 6.19335038510638  L 8.29374476190476 6.19335038510638  L 8.29374476190476 9.18791483617021  L 9.92924311904762 9.18791483617021  L 9.92924311904762 10.9762440021277  Z M 2.75484502380952 4.40458323191489  L 7.79219788095238 4.40458323191489  L 7.79219788095238 2.37973733191489  C 7.79219788095238 2.1090570787234  7.5604055 1.88787015531915  7.2772525952381 1.88787015531915  L 2.75484502380952 1.88787015531915  L 2.75484502380952 4.40458323191489  Z " fill-rule="nonzero" fill="#5183f5" stroke="none" transform="matrix(1 0 0 1 9 31 )" />
  </g>
</svg>