<?xml version="1.0" encoding="utf-8"?>
<svg version="1.1" xmlns:xlink="http://www.w3.org/1999/xlink" width="13px" height="8px" xmlns="http://www.w3.org/2000/svg">
  <g transform="matrix(1 0 0 1 -52 -33 )">
    <path d="M 0.00203745454545635 2.90287808888889  L 0.00203745454545635 4.52187175555556  L 9.74188705454545 4.50232571111111  L 9.74188705454545 5.34613206666667  C 9.74188705454545 5.86056697777778  9.28211723636364 6.27935111111111  8.71948645454545 6.27935111111111  L 6.61350134545455 6.27935111111111  L 6.61350134545455 7.97819237777778  L 9.30605898181818 7.97819237777778  C 10.7146304909091 7.97819237777778  11.8633901454545 6.93060824444445  11.8633901454545 5.64514475555556  L 11.8633901454545 4.52187175555556  L 12.7643083454545 4.52145586666667  L 12.7647517636364 2.90287808888889  L 11.8633901454545 2.90287808888889  L 11.8633901454545 1.81661777777778  L 12.7647517636364 1.81661777777778  L 12.7647517636364 0.197208244444444  L 0.0215454909090883 0.197208244444444  L 0.0215454909090883 1.81661777777778  L 9.74188705454545 1.81661777777778  L 9.74188705454545 2.90287808888889  L 0.00203745454545635 2.90287808888889  Z " fill-rule="nonzero" fill="#5183f5" stroke="none" transform="matrix(1 0 0 1 52 33 )" />
  </g>
</svg>