<?xml version="1.0" encoding="utf-8"?>
<svg version="1.1" xmlns:xlink="http://www.w3.org/1999/xlink" width="30px" height="30px" xmlns="http://www.w3.org/2000/svg">
  <g transform="matrix(1 0 0 1 -323 -7474 )">
    <path d="M 338 7474  C 346.4 7474  353 7480.6  353 7489  C 353 7497.4  346.4 7504  338 7504  C 329.6 7504  323 7497.4  323 7489  C 323 7480.6  329.6 7474  338 7474  Z " fill-rule="nonzero" fill="#ffffff" stroke="none" />
    <path d="M 338 7474.5  C 346.12 7474.5  352.5 7480.88  352.5 7489  C 352.5 7497.12  346.12 7503.5  338 7503.5  C 329.88 7503.5  323.5 7497.12  323.5 7489  C 323.5 7480.88  329.88 7474.5  338 7474.5  Z " stroke-width="1" stroke="#ffa94c" fill="none" />
  </g>
</svg>