<?xml version="1.0" encoding="utf-8"?>
<svg version="1.1" xmlns:xlink="http://www.w3.org/1999/xlink" width="30px" height="30px" xmlns="http://www.w3.org/2000/svg">
  <g transform="matrix(1 0 0 1 -323 -7352 )">
    <path d="M 338 7352  C 346.4 7352  353 7358.6  353 7367  C 353 7375.4  346.4 7382  338 7382  C 329.6 7382  323 7375.4  323 7367  C 323 7358.6  329.6 7352  338 7352  Z " fill-rule="nonzero" fill="#ffffff" stroke="none" />
    <path d="M 338 7352.5  C 346.12 7352.5  352.5 7358.88  352.5 7367  C 352.5 7375.12  346.12 7381.5  338 7381.5  C 329.88 7381.5  323.5 7375.12  323.5 7367  C 323.5 7358.88  329.88 7352.5  338 7352.5  Z " stroke-width="1" stroke="#58a3f7" fill="none" />
  </g>
</svg>