<?xml version="1.0" encoding="utf-8"?>
<svg version="1.1" xmlns:xlink="http://www.w3.org/1999/xlink" width="30px" height="30px" xmlns="http://www.w3.org/2000/svg">
  <g transform="matrix(1 0 0 1 -323 -7531 )">
    <path d="M 338 7531  C 346.4 7531  353 7537.6  353 7546  C 353 7554.4  346.4 7561  338 7561  C 329.6 7561  323 7554.4  323 7546  C 323 7537.6  329.6 7531  338 7531  Z " fill-rule="nonzero" fill="#ffffff" stroke="none" />
    <path d="M 338 7531.5  C 346.12 7531.5  352.5 7537.88  352.5 7546  C 352.5 7554.12  346.12 7560.5  338 7560.5  C 329.88 7560.5  323.5 7554.12  323.5 7546  C 323.5 7537.88  329.88 7531.5  338 7531.5  Z " stroke-width="1" stroke="#8167f5" fill="none" />
  </g>
</svg>