<?xml version="1.0" encoding="utf-8"?>
<svg version="1.1" xmlns:xlink="http://www.w3.org/1999/xlink" width="28px" height="28px" xmlns="http://www.w3.org/2000/svg">
  <g transform="matrix(1 0 0 1 -128 -140 )">
    <path d="M 27 4.625  C 27.125 2.5537109375  25.4462890625 0.875  23.375 0.875  L 23.375 4.625  L 19.625 4.625  L 19.625 1  L 8.375 1  L 8.375 4.625  L 4.625 4.625  L 4.625 0.875  C 2.5537109375 0.875  0.875 2.5537109375  1 4.625  L 1 23.375  C 0.875 25.4462890625  2.5537109375 27.125  4.625 27  L 23.375 27  C 25.4462890625 27.125  27.125 25.4462890625  27 23.375  L 27 4.625  Z M 23 8.375  L 23 23  L 5 23  L 5 8.375  L 23 8.375  Z " fill-rule="nonzero" fill="#ffffff" stroke="none" transform="matrix(1 0 0 1 128 140 )" />
  </g>
</svg>