<?xml version="1.0" encoding="utf-8"?>
<svg version="1.1" xmlns:xlink="http://www.w3.org/1999/xlink" width="200px" height="35px" xmlns="http://www.w3.org/2000/svg">
  <g transform="matrix(1 0 0 1 0 -18 )">
    <path d="M 1 35.5  A 16.5 16.5 0 0 1 17.5 19 L 182.5 19  A 16.5 16.5 0 0 1 199 35.5 A 16.5 16.5 0 0 1 182.5 52 L 17.5 52  A 16.5 16.5 0 0 1 1 35.5 Z " fill-rule="nonzero" fill="#ffffff" stroke="none" />
    <path d="M 0.5 35.5  A 17 17 0 0 1 17.5 18.5 L 182.5 18.5  A 17 17 0 0 1 199.5 35.5 A 17 17 0 0 1 182.5 52.5 L 17.5 52.5  A 17 17 0 0 1 0.5 35.5 Z " stroke-width="1" stroke="#cccccc" fill="none" stroke-opacity="0.698039215686274" />
  </g>
</svg>