<?xml version="1.0" encoding="utf-8"?>
<svg version="1.1" xmlns:xlink="http://www.w3.org/1999/xlink" width="30px" height="30px" xmlns="http://www.w3.org/2000/svg">
  <g transform="matrix(1 0 0 1 -323 -7416 )">
    <path d="M 338 7416  C 346.4 7416  353 7422.6  353 7431  C 353 7439.4  346.4 7446  338 7446  C 329.6 7446  323 7439.4  323 7431  C 323 7422.6  329.6 7416  338 7416  Z " fill-rule="nonzero" fill="#ffffff" stroke="none" />
    <path d="M 338 7416.5  C 346.12 7416.5  352.5 7422.88  352.5 7431  C 352.5 7439.12  346.12 7445.5  338 7445.5  C 329.88 7445.5  323.5 7439.12  323.5 7431  C 323.5 7422.88  329.88 7416.5  338 7416.5  Z " stroke-width="1" stroke="#fb6260" fill="none" />
  </g>
</svg>