<?xml version="1.0" encoding="utf-8"?>
<svg version="1.1" xmlns:xlink="http://www.w3.org/1999/xlink" width="30px" height="30px" xmlns="http://www.w3.org/2000/svg">
  <g transform="matrix(1 0 0 1 -323 -7586 )">
    <path d="M 338 7586  C 346.4 7586  353 7592.6  353 7601  C 353 7609.4  346.4 7616  338 7616  C 329.6 7616  323 7609.4  323 7601  C 323 7592.6  329.6 7586  338 7586  Z " fill-rule="nonzero" fill="#ffffff" stroke="none" />
    <path d="M 338 7586.5  C 346.12 7586.5  352.5 7592.88  352.5 7601  C 352.5 7609.12  346.12 7615.5  338 7615.5  C 329.88 7615.5  323.5 7609.12  323.5 7601  C 323.5 7592.88  329.88 7586.5  338 7586.5  Z " stroke-width="1" stroke="#4bced0" fill="none" />
  </g>
</svg>