<?xml version="1.0" encoding="utf-8"?>
<svg version="1.1" xmlns:xlink="http://www.w3.org/1999/xlink" width="45px" height="33px" xmlns="http://www.w3.org/2000/svg">
  <g transform="matrix(1 0 0 1 -55 -286 )">
    <path d="M 18.24843645 25.5126607702703  L 43.75428696 31.4441995702703  C 43.94909052 31.489502327027  44.09028648 31.6568751162162  44.10075915 31.8549056189189  L 44.12251746 32.2663379351351  C 44.124741 32.3083838594594  44.12094354 32.3505300324324  44.11123803 32.3915202243243  C 44.05448025 32.6312325810811  43.81238673 32.7799577837838  43.57050705 32.7237072324324  L 12.61458216 25.5247208432432  C 12.57351021 25.5151693945946  12.53482128 25.5001914972973  12.49923816 25.4806440810811  L 12.31292421 25.4267208324324  C 12.1091571 25.3677461756756  11.940165 25.2259325108108  11.84788575 25.036473  L 0.0846565199999965 0.885259248648644  C 0.0610616699999994 0.836816408108085  0.0483625800000027 0.783873705405384  0.0473813100000015 0.730090394594568  C 0.0439062299999989 0.524933764864856  0.208859850000002 0.355785754054037  0.415871100000003 0.352287754054047  L 0.631577789999998 0.348642770270254  L 7.96733424 5.31904372702701  L 18.24843645 25.5126607702703  Z " fill-rule="nonzero" fill="#ff6e6e" stroke="none" transform="matrix(1 0 0 1 55 286 )" />
  </g>
</svg>