<?xml version="1.0" encoding="utf-8"?>
<svg version="1.1" xmlns:xlink="http://www.w3.org/1999/xlink" width="22px" height="31px" xmlns="http://www.w3.org/2000/svg">
  <g transform="matrix(1 0 0 1 -107 -256 )">
    <path d="M 19.70676752 26.3977608142857  L 21.12959992 17.7079478971429  C 19.7205008 15.0494914371429  18.71759472 13.0378703485714  18.12088168 11.6730846314286  C 17.52416864 10.3082988257143  16.9326696 8.77905243999998  16.34638544 7.08534538571426  C 16.48157368 3.58623427371427  15.35981216 1.42041777685712  12.9811 0.587895912857119  C 9.41303088 -0.660886883142881  3.56074223999999 1.29895210657143  2.03614752 2.92273607457141  C 0.511553943999996 4.54652003371427  -0.198846119999997 7.7317642942857  2.36928296 12.0019337828571  L 1.88189672 14.9610762485714  C 2.52766447999999 15.4378674085714  3.15348352 15.5323679857143  3.75935384 15.2445778914285  C 4.7240908 16.7008750771429  5.42614952 17.6151648971428  5.86552912 17.9874471742857  C 6.52459896 18.5458706342857  8.06470895999999 20.2379098  11.49324616 18.5831648742857  C 12.498244 20.03868582  13.35240544 21.6738325457143  14.05573048 23.4886049628571  C 14.41386936 24.4127005257143  9.86541951999999 27.58351604  12.4745148 29.8924557371428  C 14.21391224 31.4317488685714  16.62466256 30.2668505314286  19.70676752 26.3977608142857  Z " fill-rule="nonzero" fill="#fda0a2" stroke="none" transform="matrix(1 0 0 1 107 256 )" />
  </g>
</svg>