<?xml version="1.0" encoding="utf-8"?>
<svg version="1.1" xmlns:xlink="http://www.w3.org/1999/xlink" width="27px" height="27px" xmlns="http://www.w3.org/2000/svg">
  <g transform="matrix(1 0 0 1 -134 -157 )">
    <path d="M 1.73731139999999 23.87718936  C 2.39576760000001 23.87718936  2.92955220000002 24.41094174  2.92955220000002 25.06935861  C 2.92955220000002 25.72777557  2.39576760000001 26.26152795  1.73731139999999 26.26152795  C 1.07885520000002 26.26152795  0.545070600000008 25.72777557  0.545070600000008 25.06935861  C 0.545070600000008 24.41094174  1.07885520000002 23.87718936  1.73731139999999 23.87718936  Z M 16.0442019 14.33983473  C 16.7026581 14.33983473  17.2364427 14.87358711  17.2364427 15.53200407  C 17.2364427 16.19042103  16.7026581 16.72417341  16.0442019 16.72417341  C 15.3857448 16.72417341  14.8519611 16.19042103  14.8519611 15.53200407  C 14.8519611 14.87358711  15.3857448 14.33983473  16.0442019 14.33983473  Z M 16.0442019 9.57115746  C 16.7026581 9.57115746  17.2364427 10.10490984  17.2364427 10.76332671  C 17.2364427 11.42174367  16.7026581 11.95549605  16.0442019 11.95549605  C 15.3857448 11.95549605  14.8519611 11.42174367  14.8519611 10.76332671  C 14.8519611 10.10490984  15.3857448 9.57115746  16.0442019 9.57115746  Z M 16.0442019 4.8024801  C 16.7026581 4.8024801  17.2364427 5.33623248  17.2364427 5.99464944  C 17.2364427 6.6530664  16.7026581 7.18681878  16.0442019 7.18681878  C 15.3857448 7.18681878  14.8519611 6.6530664  14.8519611 5.99464944  C 14.8519611 5.33623248  15.3857448 4.8024801  16.0442019 4.8024801  Z M 16.0442019 0.0338028300000015  C 16.7026581 0.0338028300000015  17.2364427 0.56755521  17.2364427 1.22597217  C 17.2364427 1.88438904  16.7026581 2.41814151  16.0442019 2.41814151  C 15.3857448 2.41814151  14.8519611 1.88438904  14.8519611 1.22597217  C 14.8519611 0.56755521  15.3857448 0.0338028300000015  16.0442019 0.0338028300000015  Z M 20.8131651 23.87718936  C 21.4716213 23.87718936  22.0054059 24.41094174  22.0054059 25.06935861  C 22.0054059 25.72777557  21.4716213 26.26152795  20.8131651 26.26152795  C 20.1547089 26.26152795  19.6209243 25.72777557  19.6209243 25.06935861  C 19.6209243 24.41094174  20.1547089 23.87718936  20.8131651 23.87718936  Z M 20.8131651 19.108512  C 21.4716213 19.108512  22.0054059 19.64226438  22.0054059 20.30068134  C 22.0054059 20.9590983  21.4716213 21.49285068  20.8131651 21.49285068  C 20.1547089 21.49285068  19.6209243 20.9590983  19.6209243 20.30068134  C 19.6209243 19.64226438  20.1547089 19.108512  20.8131651 19.108512  Z M 16.0442019 19.108512  C 16.7026581 19.108512  17.2364427 19.64226438  17.2364427 20.30068134  C 17.2364427 20.9590983  16.7026581 21.49285068  16.0442019 21.49285068  C 15.3857448 21.49285068  14.8519611 20.9590983  14.8519611 20.30068134  C 14.8519611 19.64226438  15.3857448 19.108512  16.0442019 19.108512  Z M 20.8131651 14.33983473  C 21.4716213 14.33983473  22.0054059 14.87358711  22.0054059 15.53200407  C 22.0054059 16.19042103  21.4716213 16.72417341  20.8131651 16.72417341  C 20.1547089 16.72417341  19.6209243 16.19042103  19.6209243 15.53200407  C 19.6209243 14.87358711  20.1547089 14.33983473  20.8131651 14.33983473  Z M 20.8131651 4.8024801  C 21.4716213 4.8024801  22.0054059 5.33623248  22.0054059 5.99464944  C 22.0054059 6.6530664  21.4716213 7.18681878  20.8131651 7.18681878  C 20.1547089 7.18681878  19.6209243 6.6530664  19.6209243 5.99464944  C 19.6209243 5.33623248  20.1547089 4.8024801  20.8131651 4.8024801  Z M 20.8131651 0.0338028300000015  C 21.4716213 0.0338028300000015  22.0054059 0.56755521  22.0054059 1.22597217  C 22.0054059 1.88438904  21.4716213 2.41814151  20.8131651 2.41814151  C 20.1547089 2.41814151  19.6209243 1.88438904  19.6209243 1.22597217  C 19.6209243 0.56755521  20.1547089 0.0338028300000015  20.8131651 0.0338028300000015  Z M 25.5821283 23.87718936  C 26.2405845 23.87718936  26.7743691 24.41094174  26.7743691 25.06935861  C 26.7743691 25.72777557  26.2405845 26.26152795  25.5821283 26.26152795  C 24.9236721 26.26152795  24.3898875 25.72777557  24.3898875 25.06935861  C 24.3898875 24.41094174  24.9236721 23.87718936  25.5821283 23.87718936  Z M 25.5821283 19.108512  C 26.2405845 19.108512  26.7743691 19.64226438  26.7743691 20.30068134  C 26.7743691 20.9590983  26.2405845 21.49285068  25.5821283 21.49285068  C 24.9236721 21.49285068  24.3898875 20.9590983  24.3898875 20.30068134  C 24.3898875 19.64226438  24.9236721 19.108512  25.5821283 19.108512  Z M 25.5821283 14.33983473  C 26.2405845 14.33983473  26.7743691 14.87358711  26.7743691 15.53200407  C 26.7743691 16.19042103  26.2405845 16.72417341  25.5821283 16.72417341  C 24.9236721 16.72417341  24.3898875 16.19042103  24.3898875 15.53200407  C 24.3898875 14.87358711  24.9236721 14.33983473  25.5821283 14.33983473  Z M 25.5821283 9.57115746  C 26.2405845 9.57115746  26.7743691 10.10490984  26.7743691 10.76332671  C 26.7743691 11.42174367  26.2405845 11.95549605  25.5821283 11.95549605  C 24.9236721 11.95549605  24.3898875 11.42174367  24.3898875 10.76332671  C 24.3898875 10.10490984  24.9236721 9.57115746  25.5821283 9.57115746  Z M 20.8131651 9.57115746  C 21.4716213 9.57115746  22.0054059 10.10490984  22.0054059 10.76332671  C 22.0054059 11.42174367  21.4716213 11.95549605  20.8131651 11.95549605  C 20.1547089 11.95549605  19.6209243 11.42174367  19.6209243 10.76332671  C 19.6209243 10.10490984  20.1547089 9.57115746  20.8131651 9.57115746  Z M 16.0442019 23.87718936  C 16.7026581 23.87718936  17.2364427 24.41094174  17.2364427 25.06935861  C 17.2364427 25.72777557  16.7026581 26.26152795  16.0442019 26.26152795  C 15.3857448 26.26152795  14.8519611 25.72777557  14.8519611 25.06935861  C 14.8519611 24.41094174  15.3857448 23.87718936  16.0442019 23.87718936  Z M 11.2752378 0.0338028300000015  C 11.9336949 0.0338028300000015  12.4674786 0.56755521  12.4674786 1.22597217  C 12.4674786 1.88438904  11.9336949 2.41814151  11.2752378 2.41814151  C 10.6167816 2.41814151  10.082997 1.88438904  10.082997 1.22597217  C 10.082997 0.56755521  10.6167816 0.0338028300000015  11.2752378 0.0338028300000015  Z M 11.2752378 4.8024801  C 11.9336949 4.8024801  12.4674786 5.33623248  12.4674786 5.99464944  C 12.4674786 6.6530664  11.9336949 7.18681878  11.2752378 7.18681878  C 10.6167816 7.18681878  10.082997 6.6530664  10.082997 5.99464944  C 10.082997 5.33623248  10.6167816 4.8024801  11.2752378 4.8024801  Z M 1.73731139999999 19.108512  C 2.39576760000001 19.108512  2.92955220000002 19.64226438  2.92955220000002 20.30068134  C 2.92955220000002 20.9590983  2.39576760000001 21.49285068  1.73731139999999 21.49285068  C 1.07885520000002 21.49285068  0.545070600000008 20.9590983  0.545070600000008 20.30068134  C 0.545070600000008 19.64226438  1.07885520000002 19.108512  1.73731139999999 19.108512  Z M 1.73731139999999 14.33983473  C 2.39576760000001 14.33983473  2.92955220000002 14.87358711  2.92955220000002 15.53200407  C 2.92955220000002 16.19042103  2.39576760000001 16.72417341  1.73731139999999 16.72417341  C 1.07885520000002 16.72417341  0.545070600000008 16.19042103  0.545070600000008 15.53200407  C 0.545070600000008 14.87358711  1.07885520000002 14.33983473  1.73731139999999 14.33983473  Z M 1.73731139999999 9.57115746  C 2.39576760000001 9.57115746  2.92955220000002 10.10490984  2.92955220000002 10.76332671  C 2.92955220000002 11.42174367  2.39576760000001 11.95549605  1.73731139999999 11.95549605  C 1.07885520000002 11.95549605  0.545070600000008 11.42174367  0.545070600000008 10.76332671  C 0.545070600000008 10.10490984  1.07885520000002 9.57115746  1.73731139999999 9.57115746  Z M 1.73731139999999 4.8024801  C 2.39576760000001 4.8024801  2.92955220000002 5.33623248  2.92955220000002 5.99464944  C 2.92955220000002 6.6530664  2.39576760000001 7.18681878  1.73731139999999 7.18681878  C 1.07885520000002 7.18681878  0.545070600000008 6.6530664  0.545070600000008 5.99464944  C 0.545070600000008 5.33623248  1.07885520000002 4.8024801  1.73731139999999 4.8024801  Z M 1.73731139999999 0.0338028300000015  C 2.39576760000001 0.0338028300000015  2.92955220000002 0.56755521  2.92955220000002 1.22597217  C 2.92955220000002 1.88438904  2.39576760000001 2.41814151  1.73731139999999 2.41814151  C 1.07885520000002 2.41814151  0.545070600000008 1.88438904  0.545070600000008 1.22597217  C 0.545070600000008 0.56755521  1.07885520000002 0.0338028300000015  1.73731139999999 0.0338028300000015  Z M 6.50627460000001 23.87718936  C 7.1647308 23.87718936  7.69851539999998 24.41094174  7.69851539999998 25.06935861  C 7.69851539999998 25.72777557  7.1647308 26.26152795  6.50627460000001 26.26152795  C 5.84781840000001 26.26152795  5.3140338 25.72777557  5.3140338 25.06935861  C 5.3140338 24.41094174  5.84781840000001 23.87718936  6.50627460000001 23.87718936  Z M 6.50627460000001 19.108512  C 7.1647308 19.108512  7.69851539999998 19.64226438  7.69851539999998 20.30068134  C 7.69851539999998 20.9590983  7.1647308 21.49285068  6.50627460000001 21.49285068  C 5.84781840000001 21.49285068  5.3140338 20.9590983  5.3140338 20.30068134  C 5.3140338 19.64226438  5.84781840000001 19.108512  6.50627460000001 19.108512  Z M 6.50627460000001 14.33983473  C 7.1647308 14.33983473  7.69851539999998 14.87358711  7.69851539999998 15.53200407  C 7.69851539999998 16.19042103  7.1647308 16.72417341  6.50627460000001 16.72417341  C 5.84781840000001 16.72417341  5.3140338 16.19042103  5.3140338 15.53200407  C 5.3140338 14.87358711  5.84781840000001 14.33983473  6.50627460000001 14.33983473  Z M 6.50627460000001 9.57115746  C 7.1647308 9.57115746  7.69851539999998 10.10490984  7.69851539999998 10.76332671  C 7.69851539999998 11.42174367  7.1647308 11.95549605  6.50627460000001 11.95549605  C 5.84781840000001 11.95549605  5.3140338 11.42174367  5.3140338 10.76332671  C 5.3140338 10.10490984  5.84781840000001 9.57115746  6.50627460000001 9.57115746  Z M 6.50627460000001 4.8024801  C 7.1647308 4.8024801  7.69851539999998 5.33623248  7.69851539999998 5.99464944  C 7.69851539999998 6.6530664  7.1647308 7.18681878  6.50627460000001 7.18681878  C 5.84781840000001 7.18681878  5.3140338 6.6530664  5.3140338 5.99464944  C 5.3140338 5.33623248  5.84781840000001 4.8024801  6.50627460000001 4.8024801  Z M 6.50627460000001 0.0338028300000015  C 7.1647308 0.0338028300000015  7.69851539999998 0.56755521  7.69851539999998 1.22597217  C 7.69851539999998 1.88438904  7.1647308 2.41814151  6.50627460000001 2.41814151  C 5.84781840000001 2.41814151  5.3140338 1.88438904  5.3140338 1.22597217  C 5.3140338 0.56755521  5.84781840000001 0.0338028300000015  6.50627460000001 0.0338028300000015  Z M 11.2752378 23.87718936  C 11.9336949 23.87718936  12.4674786 24.41094174  12.4674786 25.06935861  C 12.4674786 25.72777557  11.9336949 26.26152795  11.2752378 26.26152795  C 10.6167816 26.26152795  10.082997 25.72777557  10.082997 25.06935861  C 10.082997 24.41094174  10.6167816 23.87718936  11.2752378 23.87718936  Z M 11.2752378 19.108512  C 11.9336949 19.108512  12.4674786 19.64226438  12.4674786 20.30068134  C 12.4674786 20.9590983  11.9336949 21.49285068  11.2752378 21.49285068  C 10.6167816 21.49285068  10.082997 20.9590983  10.082997 20.30068134  C 10.082997 19.64226438  10.6167816 19.108512  11.2752378 19.108512  Z M 11.2752378 14.33983473  C 11.9336949 14.33983473  12.4674786 14.87358711  12.4674786 15.53200407  C 12.4674786 16.19042103  11.9336949 16.72417341  11.2752378 16.72417341  C 10.6167816 16.72417341  10.082997 16.19042103  10.082997 15.53200407  C 10.082997 14.87358711  10.6167816 14.33983473  11.2752378 14.33983473  Z M 11.2752378 9.57115746  C 11.9336949 9.57115746  12.4674786 10.10490984  12.4674786 10.76332671  C 12.4674786 11.42174367  11.9336949 11.95549605  11.2752378 11.95549605  C 10.6167816 11.95549605  10.082997 11.42174367  10.082997 10.76332671  C 10.082997 10.10490984  10.6167816 9.57115746  11.2752378 9.57115746  Z M 25.5821283 4.8024801  C 26.2405845 4.8024801  26.7743691 5.33623248  26.7743691 5.99464944  C 26.7743691 6.6530664  26.2405845 7.18681878  25.5821283 7.18681878  C 24.9236721 7.18681878  24.3898875 6.6530664  24.3898875 5.99464944  C 24.3898875 5.33623248  24.9236721 4.8024801  25.5821283 4.8024801  Z M 25.5821283 0.0338028300000015  C 26.2405845 0.0338028300000015  26.7743691 0.56755521  26.7743691 1.22597217  C 26.7743691 1.88438904  26.2405845 2.41814151  25.5821283 2.41814151  C 24.9236721 2.41814151  24.3898875 1.88438904  24.3898875 1.22597217  C 24.3898875 0.56755521  24.9236721 0.0338028300000015  25.5821283 0.0338028300000015  Z " fill-rule="nonzero" fill="#ffffff" stroke="none" transform="matrix(1 0 0 1 134 157 )" />
  </g>
</svg>