<?xml version="1.0" encoding="utf-8"?>
<svg version="1.1" xmlns:xlink="http://www.w3.org/1999/xlink" width="54px" height="20px" xmlns="http://www.w3.org/2000/svg">
  <g transform="matrix(1 0 0 1 -71 -294 )">
    <path d="M 7.73482239 16.6378464545454  C 8.55071937 16.0656588181818  8.37744633 15.4610531818182  7.73482239 15.1352589090909  C 7.09219836 14.8094646363636  4.7317284 14.2711270909091  3.02599251 14.703193  C 1.32025671 15.1352589090909  0.905300639999997 14.745592  0.31344363 14.3002154545454  C 1.61895348 13.2004439090909  3.70543500000001 12.6377037272727  6.57288819 12.6119950909091  C 8.64878805 12.6119950909091  12.31665093 13.448603  17.05275063 13.448603  C 21.78885024 13.448603  31.18782861 12.6119950909091  42.3322677 10.3453347272727  L 43.3473759 0.337492454545441  L 53.1243234 1.10732772727271  L 50.01984 18.4822593636364  C 42.7005252 19.2123102727273  36.97031916 19.4203505454545  32.82922332 19.1063801818182  C 26.61757956 18.6354246363636  17.99151507 17.5786907272727  13.90844808 17.5786907272727  C 9.82538109 17.5786907272727  10.16434935 17.7355836363636  8.44841907 18.4822593636364  C 6.7324887 19.228935  2.44956609 17.9137384545455  5.45174046 17.3768219090909  C 6.90196221000001 17.1174605454545  6.91892541 17.210034  7.73482239 16.6378464545454  Z " fill-rule="nonzero" fill="#fb6868" stroke="none" transform="matrix(1 0 0 1 71 294 )" />
  </g>
</svg>