<?xml version="1.0" encoding="utf-8"?>
<svg version="1.1" xmlns:xlink="http://www.w3.org/1999/xlink" width="78px" height="77px" xmlns="http://www.w3.org/2000/svg">
  <g transform="matrix(1 0 0 1 -30 -174 )">
    <path d="M 77.1539583862069 38.7984495825581  C 77.1539583862069 59.8965836162791  60.0275634758621 77  38.9010847931035 77  C 17.7746061103448 77  0.64821123586207 59.8965836162791  0.64821123586207 38.7984495825581  C 0.64821123586207 17.7003159069767  17.7746061103448 0.596899254651163  38.9010847931035 0.596899254651163  C 60.0275634758621 0.596899254651163  77.1539583862069 17.7003159069767  77.1539583862069 38.7984495825581  Z M 16.8113972 38.7984495825581  C 16.8113972 50.9818788906977  26.7012872413793 60.8584998488372  38.9010847931035 60.8584998488372  C 51.1008823448276 60.8584998488372  60.9907723862069 50.9818788906977  60.9907723862069 38.7984495825581  C 60.9907723862069 26.6150202744186  51.1008823448276 16.738399405814  38.9010847931035 16.738399405814  C 26.7012872413793 16.738399405814  16.8113972 26.6150202744186  16.8113972 38.7984495825581  Z " fill-rule="nonzero" fill="#52d7fd" stroke="none" transform="matrix(1 0 0 1 30 174 )" />
  </g>
</svg>