<?xml version="1.0" encoding="utf-8"?>
<svg version="1.1" xmlns:xlink="http://www.w3.org/1999/xlink" width="19px" height="8px" xmlns="http://www.w3.org/2000/svg">
  <g transform="matrix(1 0 0 1 -41 -346 )">
    <path d="M 5.50704875714286 1.1141422222222  C 7.51962122380952 1.26193777777775  9.22793040476191 1.69272622222222  10.6319761190476 2.40650577777776  C 13.4215310571429 2.22191911111109  15.4066324190476 2.04816444444444  16.5872803857143 1.88524177777776  C 18.3582522 1.64085777777776  18.6109269571429 1.96541866666666  18.2046087 2.98603555555554  C 17.7982904428571 4.00665333333331  16.7129419523809 5.5980071111111  16.0474328428571 6.6634391111111  C 15.3819238238095 7.72887199999999  14.6420213904762 7.55591555555556  12.433215747619 6.65887822222221  C 10.2244100142857 5.76184088888888  10.1720936047619 5.52339999999999  7.55766501428571 5.70937866666666  C 4.94323633333333 5.89535733333332  1.08169261904762 4.04766577777776  0.394424800000001 2.19755822222219  C -0.29284301904762 0.347449777777759  2.48818996666667 0.892448888888895  5.50704875714286 1.1141422222222  Z " fill-rule="nonzero" fill="#021038" stroke="none" transform="matrix(1 0 0 1 41 346 )" />
  </g>
</svg>