<?xml version="1.0" encoding="utf-8"?>
<svg version="1.1" xmlns:xlink="http://www.w3.org/1999/xlink" width="39px" height="6px" xmlns="http://www.w3.org/2000/svg">
  <g transform="matrix(1 0 0 1 -115 -209 )">
    <path d="M 0.861395924999992 1.05432617142856  C 0.861395924999992 0.769849457142844  1.09987161818183 0.539235599999992  1.39404631363637 0.539235599999992  L 16.3082588795455 0.539235599999992  C 16.602433575 0.539235599999992  16.8409093568182 0.769849457142844  16.8409093568182 1.05432617142856  L 16.8409093568182 5.17505048571428  C 16.8409093568182 5.4595271142857  16.602433575 5.69014105714285  16.3082588795455 5.69014105714285  L 1.39404631363637 5.69014105714285  C 1.09987161818183 5.69014105714285  0.861395924999992 5.4595271142857  0.861395924999992 5.17505048571428  L 0.861395924999992 1.05432617142856  Z M 22.167413775 1.05432617142856  C 22.167413775 0.769849457142844  22.4058895568182 0.539235599999992  22.7000642522727 0.539235599999992  L 37.6142768181818 0.539235599999992  C 37.9084511590909 0.539235599999992  38.1469272954546 0.769849457142844  38.1469272954546 1.05432617142856  L 38.1469272954546 5.17505048571428  C 38.1469272954546 5.4595271142857  37.9084511590909 5.69014105714285  37.6142768181818 5.69014105714285  L 22.7000642522727 5.69014105714285  C 22.4058895568182 5.69014105714285  22.167413775 5.4595271142857  22.167413775 5.17505048571428  L 22.167413775 1.05432617142856  Z " fill-rule="nonzero" fill="#0f55be" stroke="none" transform="matrix(1 0 0 1 115 209 )" />
  </g>
</svg>