<?xml version="1.0" encoding="utf-8"?>
<svg version="1.1" xmlns:xlink="http://www.w3.org/1999/xlink" width="13px" height="16px" xmlns="http://www.w3.org/2000/svg">
  <g transform="matrix(1 0 0 1 -18 -326 )">
    <path d="M 4.67384086 4.09968728888887  C 5.85672486533333 5.66797564444444  6.62655872666667 7.21621271111109  6.98334247 8.74439857777775  C 8.90507176 10.6575599111111  10.3033326066667 11.9906320888889  11.17812514 12.7436149333333  C 12.4903140266667 13.8730892444444  12.41710158 14.2747425777778  11.4171643733333 14.6610130666667  C 10.4172271666667 15.0472834666667  8.56852441466667 15.3196864  7.36998573133333 15.5467067555555  C 6.17144703933333 15.7737271111111  6.13070497 14.9958022222222  5.36491918733333 12.7829021333333  C 4.59913341333333 10.5700020444444  4.43018181666667 10.4942439111111  2.61969231333333 8.70987493333332  C 0.80920281 6.92550595555556  -0.522258444933334 2.29370693333332  0.3777584096 0.553963822222209  C 1.27777526066667 -1.1857792888889  2.89951486933333 1.74725475555553  4.67384086 4.09968728888887  Z " fill-rule="nonzero" fill="#021038" stroke="none" transform="matrix(1 0 0 1 18 326 )" />
  </g>
</svg>