<?xml version="1.0" encoding="utf-8"?>
<svg version="1.1" xmlns:xlink="http://www.w3.org/1999/xlink" width="25px" height="75px" xmlns="http://www.w3.org/2000/svg">
  <g transform="matrix(1 0 0 1 -103 -255 )">
    <path d="M 24.04 0.0400000000000489  C 23.84 0.600000000000023  23.64 1.44000000000003  23.44 2.80000000000001  L 23.24 4.08000000000001  L 23.2 4.24000000000001  L 23.08 4.84  C 22.92 5.63999999999999  22.76 6.28  22.52 6.88  C 22.12 7.92000000000002  21.64 8.68000000000001  20.64 9.92000000000001  L 20.4 10.24  L 20.16 10.56  L 19.56 11.28  L 19.32 11.56  C 18.4 12.68  17.88 13.4  17.48 14.2  L 17.44 14.3200000000001  L 17.36 14.52  C 17.28 14.68  17.24 14.8  17.16 14.96  L 17.68 14.8800000000001  C 19.76 14.48  21.56 14.0000000000001  23 13.48  C 22.96 13.64  22.92 13.8000000000001  22.84 13.96  C 21.24 14.52  19.32 15.0000000000001  17.08 15.4000000000001  L 16.96 15.4400000000001  C 15.16 19.6800000000001  14.6 23.4000000000001  14.8 27.8800000000001  L 14.8 27.9200000000001  C 14.84 28.6400000000001  14.88 29.3600000000001  14.96 30.1600000000001  L 15 30.6400000000001  C 15.24 33.7200000000001  14.36 35.2400000000001  11.84 37.2400000000001  L 11.56 37.4800000000001  L 20.44 34.4000000000001  C 20.44 34.5600000000001  20.44 34.6800000000001  20.44 34.8400000000001  L 10.6 38.2400000000001  C 9.40000000000002 39.2  8.72000000000003 39.96  8.16000000000003 41.0000000000001  C 7.36000000000001 42.4800000000001  7.08000000000003 44.4000000000001  7.36000000000001 46.8800000000001  C 7.64000000000001 49.44  7.84000000000002 52.2  7.92000000000002 55.2  L 12.16 53.0800000000001  C 12.2 53.2  12.24 53.3600000000001  12.28 53.4800000000001  L 7.96000000000002 55.6400000000001  C 8.08000000000003 60.2  7.96000000000002 65.2800000000001  7.60000000000002 70.8800000000001  L 7.52000000000002 72.0000000000001  L 7.44000000000003 73.0400000000001  L 7.36000000000003 74.0800000000001  L 6.96000000000004 74.0400000000001  C 7.72000000000003 63.5600000000001  7.76000000000003 54.8400000000001  7.04000000000002 47.8000000000001  L 7.00000000000003 47.8400000000001  L 6.56000000000003 47.5200000000001  C 3.76000000000003 45.3200000000001  1.68000000000004 43.6000000000001  0.320000000000036 42.2400000000001  C 0.40000000000002 42.1600000000001  0.520000000000024 42.0400000000001  0.600000000000023 41.96  C 1.72000000000003 43.0400000000001  3.32000000000004 44.4400000000001  5.40000000000003 46.08  L 5.60000000000002 46.24  L 6.40000000000003 46.88  L 6.96000000000004 47.3200000000001  L 6.88000000000004 46.68  C 6.64000000000004 44.2  6.96000000000004 42.3200000000001  7.76000000000003 40.8  C 8.32000000000004 39.72  9.04000000000002 38.96  10.24 37.96  L 10.24 37.92  L 10.36 37.88  L 10.48 37.76  L 10.76 37.52  L 11.52 36.92  C 13.96 34.96  14.76 33.56  14.52 30.64  L 14.48 30.16  C 14.4 29.44  14.36 28.72  14.32 28  L 10.32 22.76  C 10.44 22.68  10.52 22.56  10.6 22.48  L 14.28 27.32  C 14.16 22.72  14.84 18.88  16.92 14.36  C 17.32 13.44  17.8 12.72  18.72 11.64  L 18.84 11.48  L 19.2 11.04  L 19.96 10.16  L 20.2 9.84000000000003  C 21.24 8.56000000000003  21.72 7.80000000000001  22.12 6.76000000000002  C 22.32 6.20000000000005  22.52 5.56000000000003  22.64 4.80000000000004  L 22.68 4.48000000000002  L 22.72 4.16000000000003  L 22.96 2.60000000000002  C 23.12 1.60000000000002  23.28 0.880000000000024  23.48 0.32000000000005  C 23.64 0.200000000000045  23.84 0.120000000000033  24.04 0.0400000000000489  Z " fill-rule="nonzero" fill="#4b8b95" stroke="none" transform="matrix(1 0 0 1 103 255 )" />
  </g>
</svg>