<?xml version="1.0" encoding="utf-8"?>
<svg version="1.1" xmlns:xlink="http://www.w3.org/1999/xlink" width="48px" height="48px" xmlns="http://www.w3.org/2000/svg">
  <g transform="matrix(1 0 0 1 -156 -259 )">
    <path d="M 0.800000000000011 24  C 0.800000000000011 37.04  11.36 47.6  24.4 47.6  C 37.44 47.6  48 37.04  48 24  C 48 10.96  37.44 0.400000000000006  24.4 0.400000000000006  C 11.36 0.400000000000006  0.800000000000011 10.96  0.800000000000011 24  Z M 38.4 24  C 38.4 31.72  32.12 38  24.4 38  C 16.68 38  10.4 31.72  10.4 24  C 10.4 16.28  16.68 10  24.4 10  C 32.12 10  38.4 16.28  38.4 24  Z " fill-rule="nonzero" fill="#ffffff" stroke="none" transform="matrix(1 0 0 1 156 259 )" />
  </g>
</svg>