<?xml version="1.0" encoding="utf-8"?>
<svg version="1.1" xmlns:xlink="http://www.w3.org/1999/xlink" width="5px" height="5px" xmlns="http://www.w3.org/2000/svg">
  <g transform="matrix(1 0 0 1 -237 -355 )">
    <path d="M 1.03999999999996 1.00000000000006  C 2.04000000000002 0.400000000000034  3.31999999999999 1.51999999999998  4.96000000000001 4.28000000000003  C 5.07999999999998 4.44  4.88 4.64000000000004  4.67999999999998 4.56000000000006  C 3.07999999999998 3.76000000000005  1.96000000000001 3.08000000000004  1.31999999999999 2.52000000000004  C 0.639999999999986 1.92000000000002  0.519999999999982 1.36000000000007  1.03999999999996 1.00000000000006  Z M 1.63999999999999 2.23999999999995  C 2.08000000000004 2.64000000000004  2.84000000000003 3.16000000000003  3.91999999999999 3.71999999999997  L 4.23999999999998 3.88  L 4.07999999999998 3.63999999999999  C 2.79999999999995 1.71999999999997  1.88 0.999999999999943  1.31999999999999 1.35999999999996  C 1.07999999999998 1.51999999999992  1.12 1.79999999999995  1.63999999999999 2.23999999999995  Z " fill-rule="nonzero" fill="#4482fa" stroke="none" transform="matrix(1 0 0 1 237 355 )" />
  </g>
</svg>