<?xml version="1.0" encoding="utf-8"?>
<svg version="1.1" xmlns:xlink="http://www.w3.org/1999/xlink" width="60px" height="60px" xmlns="http://www.w3.org/2000/svg">
  <g transform="matrix(1 0 0 1 -230 -173 )">
    <path d="M 23.96 1  L 36.4 1  L 36.4 8.04  C 38.24 8.56  40 9.28  41.6 10.24  L 47.24 4.12  L 56.4 12.52  L 50.32 19.16  C 51.12 20.64  51.8 22.24  52.24 23.92  L 59 23.92  L 59 36.36  L 52.24 36.36  C 51.84 37.72  51.36 39.04  50.72 40.28  L 56.04 46.08  L 46.88 54.48  L 42.32 49.52  C 40.48 50.68  38.48 51.56  36.36 52.16  L 36.36 59  L 23.92 59  L 23.92 52.16  C 22.08 51.64  20.36 50.92  18.72 49.96  L 13.68 55.44  L 4.51999999999998 47.04  L 10 41.08  C 9.35999999999999 39.88  8.79999999999998 38.64  8.35999999999999 37.32  L 1 37.32  L 1 24.88  L 7.84000000000003 24.88  C 8.28000000000003 22.92  9 21.04  9.96000000000004 19.28  L 4.56 13.4  L 13.72 5  L 18.6 10.32  C 20.28 9.36000000000001  22.08 8.56  23.96 8.04000000000001  L 23.96 1  Z M 41.36 30.08  C 41.36 23.92  36.36 18.88  30.16 18.88  C 23.96 18.88  18.96 23.88  18.96 30.08  C 18.96 36.28  23.96 41.28  30.16 41.28  C 36.36 41.28  41.36 36.28  41.36 30.08  Z " fill-rule="nonzero" fill="#ffffff" stroke="none" transform="matrix(1 0 0 1 230 173 )" />
  </g>
</svg>