<?xml version="1.0" encoding="utf-8"?>
<svg version="1.1" xmlns:xlink="http://www.w3.org/1999/xlink" width="31px" height="47px" xmlns="http://www.w3.org/2000/svg">
  <g transform="matrix(1 0 0 1 -234 -213 )">
    <path d="M 20.2 29.8  C 13 22.32  8.48000000000002 15.6  6.60000000000002 9.60000000000001  C 6.92000000000002 7.28  7.12 5.76000000000001  7.20000000000002 5  C 7.40000000000001 2.76000000000001  7.24000000000001 1.96000000000001  7.20000000000002 1.40000000000001  C 7.12 0.800000000000011  6.32000000000002 0.760000000000005  6 1.40000000000001  C 5.64000000000001 2.12  5.75999999999999 3.56  5.60000000000002 3.40000000000001  C 5.32000000000002 3.08  4.92000000000002 2.56  5 2.2  C 5.08000000000001 1.84  5.72000000000003 1.68000000000001  5.80000000000001 1.40000000000001  C 5.96000000000001 0.879999999999995  5.80000000000001 0.480000000000004  5.40000000000001 0.200000000000003  C 2.60000000000002 1  1.08000000000001 2.32000000000001  0.800000000000011 4.2  C 0.52000000000001 6.08  1.20000000000002 8.60000000000001  2.80000000000001 11.8  C 2.80000000000001 22.28  6.28 31.36  13.2 39.08  C 20.68 47.4  24.88 46  25.2 45.88  C 25.48 45.8  31.12 43.68  30.8 37.08  C 30.72 35.6  22.64 32.32  20.2 29.8  Z " fill-rule="nonzero" fill="#be6b61" stroke="none" transform="matrix(1 0 0 1 234 213 )" />
  </g>
</svg>