<?xml version="1.0" encoding="utf-8"?>
<svg version="1.1" xmlns:xlink="http://www.w3.org/1999/xlink" width="57px" height="85px" xmlns="http://www.w3.org/2000/svg">
  <g transform="matrix(1 0 0 1 -31 -196 )">
    <path d="M 56.5977506409292 56.1065359520375  C 53.6272938354829 56.6915092841356  48.3614840440101 66.771049775672  34.1392969149039 73.6107379663574  C 19.9171097857977 80.4504261570429  13.121064670307 77.2105738561919  8.8004002260216 80.4504261570429  C 7.81024795753953 81.1703933350098  6.64006800387889 82.5203317936977  5.33486728633433 84.1852558927461  L 4.47973578173617 83.7352764065168  L 5.78493649928073 56.3765236437751  L 0.789168235575701 28.1628098571977  L 47.6863802245905 1.07404478619357  C 48.5865186504833 0.44407350547255  50.2517747383849 0.624065299964277  50.746850872626 1.61402016966874  C 52.9071830947687 5.79882939160128  55.2925499233846 20.5581565399225  55.2925499233846 29.917729853492  C 55.2925499233846 39.2773031670615  54.0323561271347 50.9767698090234  56.5977506409292 56.1065359520375  Z " fill-rule="nonzero" fill="#b99af2" stroke="none" transform="matrix(1 0 0 1 31 196 )" />
  </g>
</svg>