<?xml version="1.0" encoding="utf-8"?>
<svg version="1.1" xmlns:xlink="http://www.w3.org/1999/xlink" width="38px" height="29px" xmlns="http://www.w3.org/2000/svg">
  <g transform="matrix(1 0 0 1 -291 -93 )">
    <path d="M 37.2127395097259 18.1794972582133  C 37.4850890847397 17.7291648468967  37.7120470639178 17.1437327121852  37.7120470639178 16.513267336342  C 37.7120470639178 15.5675692725773  37.2581311055616 14.7119376910759  36.5772571680273 14.171538797496  C 36.6226487638629 13.9463725918377  36.6680403596985 13.7212063861795  36.6680403596985 13.4960401805212  C 36.6680403596985 12.2801426699665  35.9417748263286 11.1993448828068  34.8977681221094 10.7490124714903  C 35.1701176971231 10.2986800601737  35.3062924846299 9.80331440772554  35.3062924846299 9.21788227301404  C 35.3062924846299 7.55165235114283  33.9445446095614 6.2006551171932  32.2650555636434 6.2006551171932  C 32.2650555636434 4.53442519532199  30.9033076885748 3.18342796137236  29.2238186426569 3.18342796137236  C 28.9060774718075 3.18342796137236  28.5883363009582 3.22846120250402  28.2705951301088 3.31852768476733  C 27.8166791717526 2.19269665647597  26.7272808716978 1.38209831610619  25.4563161883004 1.38209831610619  C 25.0477918257799 1.38209831610619  24.6392674632593 1.4721647983695  24.2761346965743 1.60726452176446  C 23.7314355465468 0.706599699131377  22.7782120339988 0.121167564419872  21.6434221381084 0.121167564419872  C 21.0987229880809 0.121167564419872  20.5540238380535 0.256267287814835  20.1454994755329 0.52646673460476  C 19.6915835171767 0.256267287814835  19.1922759629849 0.121167564419872  18.6475768129575 0.121167564419872  C 17.4220037253957 0.121167564419872  16.3779970211765 0.841699422526341  15.8786894669847 1.83243072742273  C 15.4247735086285 1.51719803950115  14.8346827627654 1.33706507497454  14.2445920169024 1.33706507497454  C 13.4275432918612 1.33706507497454  12.7012777584913 1.65229776289612  12.1565786084638 2.19269665647597  C 11.8388374376145 2.10263017421266  11.5664878626008 2.05759693308101  11.2033550959158 2.05759693308101  C 9.75082402917596 2.05759693308101  8.52525094161428 3.09336147910905  8.20750977076492 4.44435871305868  C 7.98055179158684 4.39932547192703  7.7535938124087 4.35429223079538  7.52663583323062 4.35429223079538  C 5.84714678731267 4.35429223079538  4.48539891224407 5.705289464745  4.48539891224407 7.37151938661621  C 4.48539891224407 7.46158586887952  4.48539891224407 7.55165235114283  4.48539891224407 7.68675207453779  C 3.44139220802484 8.18211772698599  2.76051827049054 9.21788227301404  2.76051827049054 10.3887465424371  C 2.76051827049054 10.8841121948852  2.8966930579974 11.3794778473334  3.12365103717548 11.7847770175183  C 1.71651156627125 12.0549764643083  0.627113266216372 13.2708739748629  0.627113266216372 14.7569709322075  C 0.627113266216372 15.477502790314  0.854071245394508 16.1079681661571  1.30798720375067 16.648367059737  C 0.899462841230146 17.1437327121852  0.627113266216372 17.81923132916  0.627113266216372 18.5397631872665  C 0.627113266216372 20.0708933857427  1.76190316210689 21.331824137429  3.21443422884676 21.5119571019557  C 3.66835018720292 22.2324889600621  4.39461572057285 22.772887853642  5.25705604144965 22.9079875770369  C 6.21027955399766 23.7636191585384  7.48124423739498 24.3040180521182  8.84299211246358 24.3040180521182  C 9.56925764583351 24.3040180521182  10.2501315833678 24.1689183287233  10.8856139250665 23.8987188819333  C 11.6118794584364 24.9344834279614  12.8374525459981 25.6099820449362  14.2445920169023 25.6099820449362  C 14.9254659544366 25.6099820449362  15.5609482961353 25.4298490804096  16.1510390419984 25.1596496336197  C 16.6957381920258 25.9252147328578  17.6035701087382 26.4656136264376  18.6475768129575 26.4656136264376  C 19.8731499005192 26.4656136264376  20.8717650089028 25.7450817683312  21.3710725630946 24.7543504634348  C 21.7795969256152 24.979516669093  22.2335128839714 25.0695831513564  22.7328204381632 25.0695831513564  C 24.3215262924099 25.0695831513564  25.5924909758072 23.8987188819333  25.7740573591497 22.3675886834571  C 25.9102321466566 22.3675886834571  26.0464069341635 22.4126219245888  26.1825817216703 22.4126219245888  C 26.9088472550402 22.4126219245888  27.5443295967389 22.1874557189305  28.0890287467664 21.7371233076139  C 28.4975531092869 21.8722230310089  28.9060774718075 22.0073227544039  29.3599934301637 22.0523559955355  C 29.3599934301637 22.1874557189305  29.3146018343281 22.3675886834571  29.3146018343281 22.5026884068521  C 29.3146018343281 23.1781870238269  29.5415598135062 23.80865239967  29.9046925801911 24.3040180521182  C 29.8593009843555 24.5291842577765  29.8139093885199 24.7993837045664  29.8139093885199 25.0695831513564  C 29.8139093885199 26.7358130732276  31.1756572635884 28.0868103071772  32.8551463095064 28.0868103071772  C 34.5346353554243 28.0868103071772  35.8963832304929 26.7358130732276  35.8963832304929 25.0695831513564  C 35.8963832304929 24.3940845343815  35.6694252513148 23.7636191585384  35.3062924846299 23.2682535060902  C 35.3516840804655 23.1331537826952  35.3516840804655 22.9980540593003  35.3970756763012 22.8629543359053  C 36.7588235513698 22.5477216479837  37.802830255589 21.3768573785607  37.802830255589 19.9357936623478  C 37.802830255589 19.260295045373  37.5758722764109 18.6748629106614  37.2127395097259 18.1794972582133  Z " fill-rule="nonzero" fill="#300c6d" stroke="none" transform="matrix(1 0 0 1 291 93 )" />
  </g>
</svg>