<?xml version="1.0" encoding="utf-8"?>
<svg version="1.1" xmlns:xlink="http://www.w3.org/1999/xlink" width="66px" height="78px" xmlns="http://www.w3.org/2000/svg">
  <g transform="matrix(1 0 0 1 -182 -173 )">
    <path d="M 17.2196193357681 1.01287049168836  C 7.95100862729212 1.91008449124623  2.0244450492762 10.2541746871344  1.48971750840261 12.3177668861175  C -0.159025742624371 19.1814539827351  1.13323248115352 19.3608967826467  3.27214264464799 21.4244889816298  C 5.45561343654856 23.443220480635  11.2930557577522 24.1609916802813  15.7936792267718 20.6618570820056  C 15.7936792267718 20.6618570820056  14.5459816314001 29.0059472778937  22.8788191433473 32.9985495759262  C 31.2116566552944 36.9462911739808  27.2903213555546 41.073475571947  23.0125010285657 45.69412766967  C 18.7792413299829 50.2699190674151  18.3336350459215 60.1392730625516  25.2850930772785 62.6963329612915  C 32.2811117370417 65.2533928600314  37.2273414901226 67.6758706588377  41.0149949046441 74.5844184554332  C 44.8026483191655 81.4929662520287  63.1170665940869 74.5395577554553  65.2114161291752 61.7542582617557  C 66.7710381233899 52.0643470665308  61.0672776874047 47.8025805686309  53.2691677163311 45.245520669891  C 45.4710577452575 42.6884607711511  51.4867425800857 30.7555145770315  46.6741947122232 25.506812679618  C 41.8616468443606 20.2581107822045  38.1631146866514 22.2319815812318  37.5392658889656 15.2337123846805  C 36.9154170912797 8.23544318812916  26.5327906726503 0.0707957921526151  17.2196193357681 1.01287049168836  Z " fill-rule="nonzero" fill="#300c6d" stroke="none" transform="matrix(1 0 0 1 182 173 )" />
  </g>
</svg>