<?xml version="1.0" encoding="utf-8"?>
<svg version="1.1" xmlns:xlink="http://www.w3.org/1999/xlink" width="29px" height="32px" xmlns="http://www.w3.org/2000/svg">
  <g transform="matrix(1 0 0 1 -223 -221 )">
    <path d="M 24.2463192119183 30.7982194929349  C 23.6608870772068 30.9789171376011  23.0304217013636 31.0692659599342  22.3999563255204 31.0692659599342  C 19.7429950987529 31.0692659599342  17.3112000776435 29.3526383356053  16.5006017372737 26.7325224879454  C 15.7350366380356 24.2931042849517  12.8529092056097 19.7304887571302  3.5310282913573 12.0056644476502  C 3.12572912117241 11.6894435694843  2.85552967438248 11.418397102485  2.6303634687242 11.2376994578188  C -0.521963410491598 8.52723478782586  -0.206730722570026 4.91328189450186  1.36943271703789 2.65456133617439  C 2.99062939777744 0.395840777846884  6.32308924151985 -0.914217145983044  9.65554908526226 0.937933711845482  C 9.83568204978887 1.02828253417859  10.1509147377105 1.20898017884481  10.5562139078954 1.48002664584408  C 11.3217790071335 1.93177075750957  11.9522443829766 2.56421251384125  12.4025767942932 3.2418286813395  C 18.3469646236715 8.25618832082653  25.9575823749211 15.4840941074745  28.2993109137672 23.0282207722883  C 29.3350754597952 26.2807783762799  27.4887125733974 29.8043824472708  24.2463192119183 30.7982194929349  Z " fill-rule="nonzero" fill="#6ae3e0" stroke="none" transform="matrix(1 0 0 1 223 221 )" />
  </g>
</svg>