<?xml version="1.0" encoding="utf-8"?>
<svg version="1.1" xmlns:xlink="http://www.w3.org/1999/xlink" width="86px" height="79px" xmlns="http://www.w3.org/2000/svg">
  <g transform="matrix(1 0 0 1 -197 -187 )">
    <path d="M 1 9.15854013613656  L 16.249857280961 12.3451437884593  L 16.3398888672607 12.9286064290254  L 32.7256375737927 3.50344069680327  C 39.0728644079164 -0.131980371339584  46.8605966228341 -0.131980371339584  53.1628076638079 3.50344069680327  L 75.5356568592651 16.3845005308402  L 75.310577893516 10.4601106420149  L 85 9.15854013613656  L 85 53.8607547518189  C 85.1240208001753 55.8355513814274  84.1336733508794 57.8103480110358  82.1979942454375 58.9323915505861  L 53.2078234569577 75.6283994190939  C 46.860596622834 79.2638204872368  39.0728644079164 79.2638204872368  32.7706533669425 75.6283994190939  L 3.78048257846275 58.9323915505861  C 1.84480347302079 57.8103480110358  0.8544560237249 55.8355513814274  1 53.8607547518189  L 1 9.15854013613656  Z " fill-rule="nonzero" fill="#d4daff" stroke="none" transform="matrix(1 0 0 1 197 187 )" />
  </g>
</svg>