<?xml version="1.0" encoding="utf-8"?>
<svg version="1.1" xmlns:xlink="http://www.w3.org/1999/xlink" width="88px" height="90px" xmlns="http://www.w3.org/2000/svg">
  <g transform="matrix(1 0 0 1 -162 -177 )">
    <path d="M 24.3365974540818 83.9761277153292  L 7.39768253292784 89.730008084425  C 7.21748131036238 89.2839708465106  3.38820533084619 78.1776436224419  1.58619310519152 64.0828669043467  C -0.981674316366402 44.1450023695729  1.67629371647423 28.3106804236115  9.42494628678936 17.0705420281685  C 18.34490680378 4.13546212865078  36.2298781434027 3.37719882419629  51.9524348122397 2.66353924353325  C 56.9079684327901 2.44052062457604  61.5932002194922 2.26210572941029  65.3774258933671 1.68225732012157  C 69.7473055405797 1.01320146324996  70.7834625703311 0.121126987421156  70.8285128759725 0.121126987421156  C 70.7834625703311 0.165730711212587  70.6032613477657 0.344145606378354  70.5131607364829 0.611767949126997  L 87.2268241294301 6.99010045130297  C 84.9292585417204 12.9223957155646  79.5232218647563 16.8475234092113  71.2339656267448 18.6762760846604  C 65.737828338498 19.8805766270292  59.4307855487067 20.1481989697779  52.718290008143 20.460425036318  C 41.7260154316495 20.9510659980238  28.0757728223153 21.5309144073126  24.2014465371577 27.150983605034  C 13.434423488871 42.7176832082468  20.6424723914897 73.4496489005492  24.3365974540818 83.9761277153292  Z " fill-rule="nonzero" fill="#6ae3e0" stroke="none" transform="matrix(1 0 0 1 162 177 )" />
  </g>
</svg>