<?xml version="1.0" encoding="utf-8"?>
<svg version="1.1" xmlns:xlink="http://www.w3.org/1999/xlink" width="30px" height="28px" xmlns="http://www.w3.org/2000/svg">
  <g transform="matrix(1 0 0 1 -234 -98 )">
    <path d="M 4.43112816346466 14.7487010607377  C 2.62779481447737 12.3647772852546  0.463794795692673 8.36158453019816  0.463794795692673 8.36158453019816  C 2.49254481330336 2.87406187719943  4.07046149366723 1.74956953027346  9.02962820338221 0.580097489470448  C 14.0338782468219 -0.544394857455521  22.5546283207867 4.35839177514171  20.1201282996539 7.82182820367369  C 17.6856282785211 11.2402849383286  17.8659616134198 14.2989041219673  23.0956283254829 14.7037213668606  C 28.3703783712707 15.108538611754  31.4811283982737 17.9422593260074  28.5056283724447 22.3502693259572  C 25.5301283466157 26.758279325907  23.7267949976285 28.4225279993574  20.1201282996539 25.0040712647025  C 16.5134616016794 21.5856145300476  15.0707949224896 28.2426092238493  10.337044881398 26.8932184075381  C 5.6032948403064 25.4988478973499  6.23446151245196 17.0426654484666  4.43112816346466 14.7487010607377  Z " fill-rule="nonzero" fill="#300c6d" stroke="none" transform="matrix(1 0 0 1 234 98 )" />
  </g>
</svg>