<?xml version="1.0" encoding="utf-8"?>
<svg version="1.1" xmlns:xlink="http://www.w3.org/1999/xlink" width="64px" height="85px" xmlns="http://www.w3.org/2000/svg">
  <g transform="matrix(1 0 0 1 -84 -261 )">
    <path d="M 37.2878017830486 82.4005247554891  C 35.6412956327693 83.8854570600458  33.5942879864761 84.5604262893898  31.5472803401829 84.5604262893898  C 29.055271031652 84.5604262893898  26.5632617231212 83.4804755224394  24.8277552403943 81.4105698857847  C 21.668243438507 77.6307422014585  22.1132451007446 72.0059986235922  25.8067588973172 68.7661463227412  C 34.2617904798326 61.4314806972036  45.9653341966829 47.3021248296034  45.4758323682215 38.8425104884925  C 45.386832035774 37.177586389444  44.8528300410888 35.1976766500351  41.5598177405301 32.9927771675115  C 25.0947562377369 21.7882879604019  7.82869174291592 18.0984561733215  7.65069107802087 18.0534582246986  C 2.8446731258542 17.0635033549942  -0.225838343585619 12.2937208009635  0.797665479560984 7.47894029830998  C 1.77666913648382 2.61916184703348  6.49368675620297 -0.485696607948697  11.2552045421459 0.549256210378687  C 12.1007077003974 0.7292480048704  32.1257825010919 5.04905107267173  51.438854642206 18.1434541219445  C 60.5613887180779 24.3531710319089  62.83089719549 32.2728099895447  63.1423983590564 37.852555618788  C 64.2994026808743 58.4616160880902  40.0468120889221 80.0156334784739  37.2878017830486 82.4005247554891  Z " fill-rule="nonzero" fill="#300c6d" stroke="none" transform="matrix(1 0 0 1 84 261 )" />
  </g>
</svg>