<?xml version="1.0" encoding="utf-8"?>
<svg version="1.1" xmlns:xlink="http://www.w3.org/1999/xlink" width="85px" height="98px" xmlns="http://www.w3.org/2000/svg">
  <g transform="matrix(1 0 0 1 -72 -277 )">
    <path d="M 78.454485898437 96.8719281569084  C 77.4645310287325 97.2300017983609  76.3845802617822 97.4090386190872  75.3046294948319 97.4090386190872  C 71.7047936049974 97.4090386190872  68.2849495096547 95.2158375651906  66.9350110509668 91.6798603558471  C 62.7951997776572 80.8481327019088  49.6108008311386 50.2328363577197  38.7662952130124 38.9087574467843  C 33.4115393268836 33.3138567990889  15.3223639804656 22.8849619917847  5.15282759168333 17.6481349855418  C 0.788026575259078 15.3654155212821  -0.921895472412278 9.99431089949451  1.32800195873424 5.65266799688289  C 3.62289733850369 1.31102509427127  9.02265117325535 -0.389824702628143  13.3874521896796 1.84813555645003  C 16.357316798793 3.36994853262317  42.5011249487156 17.0662653181815  51.6807064677934 26.644735227036  C 67.2499966913273 42.8923267079434  82.95428076073 83.6232034231657  83.629249990074 85.3688124252467  C 85.3841699863683 89.9790105589477  83.0892746065988 95.1263191548275  78.454485898437 96.8719281569084  Z " fill-rule="nonzero" fill="#300c6d" stroke="none" transform="matrix(1 0 0 1 72 277 )" />
  </g>
</svg>