<?xml version="1.0" encoding="utf-8"?>
<svg version="1.1" xmlns:xlink="http://www.w3.org/1999/xlink" width="56px" height="43px" xmlns="http://www.w3.org/2000/svg">
  <g transform="matrix(1 0 0 1 -56 -254 )">
    <path d="M 32.9443928494335 40.6189708998561  C 31.3701035637371 41.7763769592857  29.4809564209015 42.3995956066709  27.5468295841888 42.3995956066709  C 26.2873981556317 42.3995956066709  25.0279667270747 42.1325019006487  23.8135149923946 41.6428301062746  C 23.6335962168865 41.5537988709339  19.2705659108137 39.6841429287783  14.6376574414787 37.1912683392375  C 6.40637346198062 32.6506753368597  2.40318070692416 29.08942592323  0.918850808981885 24.8159266268744  C -0.115682150190008 21.8778958606299  -0.655438476714475 16.1798967988224  7.0810688701362 10.7935070607076  C 9.37503325786517 9.23546044224456  12.3436930537497 7.58838258844085  16.3019061149291 5.76324226395563  C 22.4191444822064 2.95875835072228  28.6713219311148 0.777493084874108  28.941200094377 0.688461849533357  C 31.5950020331223 -0.246366121544435  34.5636618290069 0.109758819818542  36.94758560449 1.7123210559519  C 39.4664484616041 3.40391452742601  46.8880979513155 8.21160123582608  50.4414937676016 10.125772795652  C 53.9049301961336 11.9509131201372  55.8840367267233 15.7792562397891  55.1643616246906 19.5630837417706  C 54.444686522658 23.3469112437522  51.4760267267735 26.1959107746559  47.6077730533481 26.68558256903  C 46.9330776451926 26.8191294220411  42.3001691758576 27.88750424613  38.7467733595715 32.2945503954967  C 38.0720779514159 33.0958315135634  37.3074231555063 33.8080813962893  36.4078292779655 34.3422688083338  C 36.2279105024573 36.7906277802042  34.9684790739002 39.0609242813931  32.9443928494335 40.6189708998561  Z " fill-rule="nonzero" fill="#300c6d" stroke="none" transform="matrix(1 0 0 1 56 254 )" />
  </g>
</svg>