<?xml version="1.0" encoding="utf-8"?>
<svg version="1.1" xmlns:xlink="http://www.w3.org/1999/xlink" width="34px" height="27px" xmlns="http://www.w3.org/2000/svg">
  <g transform="matrix(1 0 0 1 -48 -173 )">
    <path d="M 4.17039702181645 26.4852182684109  C 4.17039702181645 26.4852182684109  -2.255824303808 20.1960932138178  1.00254143876214 9.459658299191  C 4.75871305866938 -2.7142909136285  21.0505417715201 -1.0970873281617  25.8475802258595 3.52991181914608  C 27.2504876983549 4.87758147370175  28.5176299315767 6.44986273735002  29.5584967660088 8.06706632281681  L 30.8256389992305 7.39323149553898  C 31.9117609134206 10.1334931264688  32.228546471726 12.1999199301209  32.3190566312418 13.2780556537654  L 33.5861988644635 13.2780556537654  C 33.1789031466423 16.7819967556101  32.0927812324522 18.4441226628954  32.0927812324522 18.4441226628954  C 27.6577834161762 28.7762566811555  12.9046274150947 25.3621602229478  8.1980991202712 21.678529833829  C 7.11197720608115 20.8250057192771  4.17039702181645 26.4852182684109  4.17039702181645 26.4852182684109  Z " fill-rule="nonzero" fill="#f6921e" stroke="none" transform="matrix(1 0 0 1 48 173 )" />
  </g>
</svg>