<?xml version="1.0" encoding="utf-8"?>
<svg version="1.1" xmlns:xlink="http://www.w3.org/1999/xlink" width="37px" height="55px" xmlns="http://www.w3.org/2000/svg">
  <g transform="matrix(1 0 0 1 -233 -149 )">
    <path d="M 27.340978921317 53.6819374101289  C 26.1616147297929 54.086501010132  24.9822505382688 54.3112585656892  23.8028863467447 54.3112585656892  C 17.4524637769996 54.3112585656892  10.1494778217928 48.1529015434204  1.0774455792998 35.3417208766566  C -0.328719418286603 33.3189028766413  0.124882193838038 30.5319091877313  2.21144960961144 29.0934608321649  C 4.25265686417234 27.6550124765984  7.06498685934518 28.1494790988244  8.51651201814404 30.2172486099511  C 19.539031192773 45.8154229656249  24.029687152807 45.3209563433989  24.0750473140195 45.3209563433989  C 24.120407475232 45.2760048322874  30.2440292389147 41.9046414989286  25.5265724728184 5.31411145420692  C 25.2090513443311 2.84177834307708  26.9780976316173 0.639154298615946  29.4275463370903 0.324493720835792  C 31.8769950425634 0.00983314305563236  34.1450031031867 1.76294207640224  34.4625242316739 4.19032367642063  C 39.633582609895 44.1072655433897  32.8749185892377 51.5692163878907  27.340978921317 53.6819374101289  Z " fill-rule="nonzero" fill="#ffcba5" stroke="none" transform="matrix(1 0 0 1 233 149 )" />
  </g>
</svg>