<?xml version="1.0" encoding="utf-8"?>
<svg version="1.1" xmlns:xlink="http://www.w3.org/1999/xlink" width="48px" height="48px" xmlns="http://www.w3.org/2000/svg">
  <g transform="matrix(1 0 0 1 -159 -259 )">
    <path d="M 0.200000000000017 24  C 0.200000000000017 37.04  10.76 47.6  23.8 47.6  C 36.84 47.6  47.4 37.04  47.4 24  C 47.4 10.96  36.84 0.400000000000006  23.8 0.400000000000006  C 10.76 0.400000000000006  0.200000000000017 10.96  0.200000000000017 24  Z M 37.8 24  C 37.8 31.72  31.52 38  23.8 38  C 16.08 38  9.80000000000001 31.72  9.80000000000001 24  C 9.80000000000001 16.28  16.08 10  23.8 10  C 31.52 10  37.8 16.28  37.8 24  Z " fill-rule="nonzero" fill="#0644b9" stroke="none" transform="matrix(1 0 0 1 159 259 )" />
  </g>
</svg>