<?xml version="1.0" encoding="utf-8"?>
<svg version="1.1" xmlns:xlink="http://www.w3.org/1999/xlink" width="5px" height="4px" xmlns="http://www.w3.org/2000/svg">
  <g transform="matrix(1 0 0 1 -276 -357 )">
    <path d="M 4.59999999999997 3.28000000000003  L 4.80000000000001 3.56  C 4.91999999999999 3.71999999999997  4.72 3.92000000000002  4.51999999999998 3.84000000000003  L 4.16 3.68000000000001  C 2.72 2.96000000000004  1.72 2.32000000000005  1.16 1.84000000000003  C 0.47999999999999 1.24000000000001  0.360000000000014 0.680000000000007  0.879999999999995 0.32000000000005  C 1.79999999999995 -0.279999999999973  2.99999999999997 0.720000000000027  4.59999999999997 3.28000000000003  Z M 1.47999999999999 1.47999999999996  C 1.91999999999999 1.92000000000002  2.68000000000004 2.40000000000003  3.75999999999999 2.95999999999998  L 4.07999999999998 3.12  L 3.91999999999999 2.88  C 2.63999999999999 0.95999999999998  1.72 0.239999999999952  1.16 0.599999999999966  C 0.919999999999987 0.759999999999934  0.960000000000008 1.03999999999996  1.47999999999999 1.47999999999996  Z " fill-rule="nonzero" fill="#4482fa" stroke="none" transform="matrix(1 0 0 1 276 357 )" />
  </g>
</svg>