<?xml version="1.0" encoding="utf-8"?>
<svg version="1.1" xmlns:xlink="http://www.w3.org/1999/xlink" width="53px" height="36px" xmlns="http://www.w3.org/2000/svg">
  <g transform="matrix(1 0 0 1 -192 -62 )">
    <path d="M 51.5904255319149 0.348387096774198  L 42.5832446808511 1.6983870967742  L 51.5904255319149 0.348387096774198  C 52.2670212765958 0.261290322580655  52.8590425531915 0.827419354838716  52.8167553191489 1.5241935483871  L 52.8167553191489 1.61129032258063  L 51.4212765957447 11.2354838709677  C 51.3367021276595 11.8451612903226  50.7869680851064 12.2370967741935  50.2372340425532 12.15  C 49.6875000000001 12.0629032258064  49.306914893617 11.5403225806451  49.3492021276596 10.9741935483871  L 49.3492021276596 10.8870967741935  L 50.2795212765958 4.61612903225806  L 31.2502659574468 23.4725806451613  C 30.8273936170213 23.8645161290323  30.193085106383 23.8645161290323  29.7702127659575 23.4725806451613  L 29.7279255319149 23.4290322580645  L 22.3699468085107 15.1112903225806  L 2.11436170212766 34.6209677419355  C 1.69148936170213 35.0129032258065  1.01489361702125 35.0129032258065  0.634308510638298 34.5774193548387  C 0.253723404255345 34.141935483871  0.253723404255345 33.4887096774194  0.634308510638298 33.0967741935484  L 0.676595744680877 33.0532258064516  L 21.6510638297873 12.7161290322581  C 22.0739361702128 12.3241935483871  22.7082446808511 12.3241935483871  23.0888297872341 12.7161290322581  L 23.1311170212766 12.7596774193548  L 30.4890957446809 21.0774193548387  L 48.8417553191489 2.87419354838709  L 42.8792553191489 3.78870967741934  C 42.3295212765958 3.87580645161288  41.8220744680851 3.48387096774192  41.6952127659575 2.96129032258063  L 41.6952127659575 2.87419354838709  C 41.6106382978723 2.30806451612901  41.9912234042553 1.78548387096774  42.498670212766 1.6548387096774  L 42.5832446808511 1.6983870967742  L 51.5904255319149 0.348387096774198  Z " fill-rule="nonzero" fill="#98dfb8" stroke="none" transform="matrix(1 0 0 1 192 62 )" />
  </g>
</svg>