<?xml version="1.0" encoding="utf-8"?>
<svg version="1.1" xmlns:xlink="http://www.w3.org/1999/xlink" width="18px" height="20px" xmlns="http://www.w3.org/2000/svg">
  <g transform="matrix(1 0 0 1 -234 -118 )">
    <path d="M 4.27499999999998 12.5294117647059  C 2.20781249999997 12.5735294117647  0.815625000000026 11.6470588235294  0.0984374999999744 9.79411764705881  C -0.154687500000019 6.79411764705881  0.309374999999974 4.89705882352941  1.53281249999998 4.1029411764706  C 4.61249999999996 2.07352941176469  8.7890625 -0.0441176470588168  12.8390625 1.67647058823531  C 17.4796875 3.61764705882352  18.3234375 9.70588235294118  15.2859374999999 19.9411764705882  C 14.0624999999999 19.764705882353  13.6406249999999 19.3235294117647  14.0624999999999 18.6617647058824  C 14.6953124999999 17.6911764705882  15.2859374999999 15.264705882353  14.0624999999999 15.264705882353  C 13.2609375 15.264705882353  12.7124999999999 15.8382352941177  12.459375 16.9411764705882  C 12.4171875 13.1470588235294  11.7 11.25  10.2234375 11.25  C 8.02968749999999 11.25  7.39687499999999 12.5294117647059  4.27499999999998 12.5294117647059  Z " fill-rule="nonzero" fill="#251414" stroke="none" transform="matrix(1 0 0 1 234 118 )" />
  </g>
</svg>