<?xml version="1.0" encoding="utf-8"?>
<svg version="1.1" xmlns:xlink="http://www.w3.org/1999/xlink" width="48px" height="75px" xmlns="http://www.w3.org/2000/svg">
  <g transform="matrix(1 0 0 1 -68 -115 )">
    <path d="M 26.0571428571429 1.50568181818181  C 26.0142857142857 5.59659090909092  23.9142857142857 5.21306818181817  19.7571428571429 0.355113636363636  C 16.5428571428571 2.57102272727271  13.9714285714286 4.23295454545455  12.1285714285714 5.34090909090908  C 8.82857142857142 7.34374999999999  5.09999999999999 8.45170454545454  3.55714285714285 10.8806818181818  C 0.59999999999999 15.6107954545455  0.985714285714283 20.7670454545454  1 26.6477272727273  L 1 72.2443181818182  C 11.5714285714286 74.8011363636364  18.8571428571429 74.8011363636364  22.8428571428571 72.2443181818182  C 24 71.5198863636364  23.8285714285714 58.7357954545455  24.2571428571429 48.0823863636364  C 24.3428571428571 45.9090909090909  31.1142857142857 42.2017045454545  31.5428571428571 45.5255681818182  C 32.1 49.7869318181818  32.4857142857143 57.8409090909091  32.7 69.6875  C 35.3142857142857 68.5369318181818  36.9 67.6846590909091  37.4142857142857 67.1306818181818  C 38.4 66.1079545454546  38.4 57.1590909090909  37.4142857142857 40.2840909090909  C 38.2285714285714 42.2869318181818  39.8142857142857 43.2670454545454  42.1285714285714 43.2670454545454  C 46.4142857142857 43.2670454545454  48.3857142857143 28.7784090909091  47.2714285714286 23.6647727272727  C 45.2571428571429 14.1619318181818  41.3571428571428 22.3011363636364  40.4142857142857 20.2556818181818  C 38.2714285714286 15.5681818181818  36.9857142857143 9.17613636363635  33.9857142857143 4.06249999999999  C 32.0142857142857 0.738636363636354  26.0571428571429 1.07954545454544  26.0571428571429 1.50568181818181  Z " fill-rule="nonzero" fill="#ff7533" stroke="none" transform="matrix(1 0 0 1 68 115 )" />
  </g>
</svg>