<?xml version="1.0" encoding="utf-8"?>
<svg version="1.1" xmlns:xlink="http://www.w3.org/1999/xlink" width="30px" height="30px" xmlns="http://www.w3.org/2000/svg">
  <g transform="matrix(1 0 0 1 -218 -30 )">
    <path d="M 0 15  C 0 23.28427734375  6.71572265625 30  15 30  C 23.28427734375 30  30 23.28427734375  30 15  C 30 6.71572265625  23.28427734375 0  15 0  C 6.71572265625 0  0 6.71572265625  0 15  Z M 26.47705078125 15.35419921875  C 25.665732421875 15.3619921875  21.6880078125 13.064736328125  21.5623828125 12.944970703125  C 21.26021484375 12.656923828125  21.3744140625 12.29830078125  21.68267578125 12.249287109375  C 21.99099609375 12.20021484375  23.722060546875 11.994404296875  23.722060546875 11.994404296875  C 22.65814453125 9.150849609375  20.284189453125 6.879873046875  17.168408203125 6.143818359375  C 12.19541015625 4.96857421875  7.05263671875 8.30220703125  5.916064453125 13.3899609375  C 5.906279296875 13.43337890625  5.837607421875 13.952080078125  5.425634765625 13.93564453125  C 5.14681640625 13.92451171875  4.23328125 13.561259765625  3.903017578125 13.406337890625  C 3.525966796875 13.229501953125  3.4241015625 13.275205078125  3.538388671875 12.705966796875  C 4.83193359375 6.237978515625  11.45595703125 1.878896484375  17.8137890625 3.370341796875  C 23.09009765625 4.60787109375  26.75537109375 9.186328125  27.1580859375 14.4029296875  C 27.22552734375 15.10201171875  26.86962890625 15.350390625  26.477021484375 15.354140625  Z M 18.17279296875 16.771875  C 18.695068359375 16.771875  19.11849609375 17.19486328125  19.11849609375 17.717548828125  C 19.11849609375 18.239326171875  18.695068359375 18.663251953125  18.17279296875 18.663251953125  L 16.2814453125 18.663251953125  L 16.2814453125 19.845322265625  C 16.2814453125 20.498291015625  15.75228515625 21.027451171875  15.09931640625 21.027451171875  C 14.446376953125 21.027451171875  13.9171875 20.4983203125  13.9171875 19.845322265625  L 13.9171875 18.663251953125  L 12.025810546875 18.663251953125  C 11.503564453125 18.663251953125  11.0801953125 18.239296875  11.0801953125 17.717548828125  C 11.0801953125 17.1948046875  11.503564453125 16.771875  12.02583984375 16.771875  L 13.91724609375 16.771875  L 13.91724609375 15.826171875  L 12.02583984375 15.826171875  C 11.503564453125 15.826171875  11.0801953125 15.4023046875  11.0801953125 14.88052734375  C 11.0801953125 14.3578125  11.503564453125 13.93482421875  12.02583984375 13.93482421875  L 13.91724609375 13.93482421875  L 13.91724609375 13.87013671875  L 11.81853515625 11.77189453125  C 11.44658203125 11.399677734375  11.44658203125 10.79666015625  11.81853515625 10.4248828125  C 12.19048828125 10.05310546875  12.79330078125 10.053193359375  13.16525390625 10.4248828125  L 15.083408203125 12.34259765625  L 17.009033203125 10.417060546875  C 17.38095703125 10.045751953125  17.983857421875 10.045751953125  18.355751953125 10.417060546875  C 18.727734375 10.789189453125  18.727734375 11.392265625  18.355751953125 11.764013671875  L 16.281533203125 13.838232421875  L 16.281533203125 13.934765625  L 18.1728515625 13.934765625  C 18.695126953125 13.934765625  19.1185546875 14.357783203125  19.1185546875 14.88046875  C 19.1185546875 15.402333984375  18.695126953125 15.82611328125  18.1728515625 15.82611328125  L 16.281474609375 15.82611328125  L 16.281474609375 16.771845703125  L 18.172880859375 16.771845703125  Z M 8.68529296875 18.10634765625  C 9.10013671875 18.371630859375  9.00017578125 18.90439453125  8.544287109375 18.95185546875  C 8.088369140625 18.9992578125  6.660703125 19.125  6.660703125 19.125  C 7.792529296875 21.777451171875  10.086328125 23.86875  13.052314453125 24.569296875  C 18.025224609375 25.744013671875  23.1108984375 22.57166015625  24.247822265625 17.483876953125  C 24.271142578125 17.379462890625  24.270380859375 17.395869140625  24.311103515625 17.171748046875  C 24.351767578125 16.947626953125  24.41765625 16.60669921875  24.855439453125 16.758427734375  C 25.293251953125 16.910185546875  26.361064453125 17.2241015625  26.69373046875 17.313046875  C 27.0263671875 17.401962890625  26.98892578125 17.533125  26.947265625 17.842236328125  C 26.93455078125 17.93625  26.91533203125 18.02232421875  26.895322265625 18.112822265625  C 25.406806640625 24.728115234375  18.927451171875 28.854931640625  12.423515625 27.32876953125  C 7.15341796875 26.092587890625  3.49013671875 21.524326171875  3.0802734375 16.31560546875  C 3.02466796875 15.42052734375  3.657041015625 15.23783203125  4.303447265625 15.57978515625  C 4.811982421875 15.848759765625  8.27033203125 17.84103515625  8.685205078125 18.106318359375  Z " fill-rule="nonzero" fill="#ffffff" stroke="none" transform="matrix(1 0 0 1 218 30 )" />
  </g>
</svg>