<?xml version="1.0" encoding="utf-8"?>
<svg version="1.1" xmlns:xlink="http://www.w3.org/1999/xlink" width="27px" height="25px" xmlns="http://www.w3.org/2000/svg">
  <g transform="matrix(1 0 0 1 -220 -142 )">
    <path d="M 26.4908199756098 7.14683914634146  C 26.4908199756098 5.8401277804878  25.4236723658537 4.76862446341463  24.1126053170732 4.76862446341463  L 20.5452832926829 4.76862446341463  L 20.5452832926829 2.39040980487805  C 20.5452832926829 1.08369843902439  19.4737799756098 0.0121951219512191  18.1670686341463 0.0121951219512191  L 8.64985424390244 0.0121951219512191  C 7.34314287804878 0.0121951219512191  6.27163956097561 1.08369843902439  6.27163956097561 2.39040980487805  L 6.27163956097561 4.76862446341463  L 2.70431756097561 4.76862446341463  C 1.39760619512195 4.76862446341463  0.326102878048781 5.8401277804878  0.326102878048781 7.14683914634146  L 0.326102878048781 11  L 26.4908199756098 11  L 26.4908199756098 7.14683914634146  Z M 18.1670686341463 2.9827856097561  L 18.1670686341463 4.76862446341463  L 8.64985424390244 4.76862446341463  L 8.64985424390244 2.9827856097561  C 8.64985424390244 2.62561782926829  8.889418 2.38605409756097  9.24658575609756 2.38605409756097  L 17.570337097561 2.38605409756097  C 17.9275048780488 2.38605409756097  18.1670686097561 2.62561785365854  18.1670686341463 2.9827856097561  Z M 17.452733097561 13.0967315121951  C 17.5703371219512 13.3319395609756  17.5703371219512 13.4538992926829  17.570337097561 13.6891073414634  C 17.570337097561 15.949718  15.6668942195122 17.8531608780488  13.4062835853659 17.8531608536585  C 11.1456729512195 17.8531608292683  9.24223004878049 15.9497179756098  9.24223004878049 13.6891073414634  C 9.24223004878049 13.4495435853659  9.24223004878049 13.3319395609756  9.35983407317073 13.092375804878  L 0.32610287804878 13.092375804878  L 0.32610287804878 22.609590195122  C 0.32610287804878 23.9163015609756  1.39760619512195 24.9878048780488  2.70431756097561 25  L 24.1126053170732 25  C 25.4193166829268 24.9878048780488  26.49082 23.9163015609756  26.4908199756098 22.609590195122  L 26.4908199756098 13.0967315121951  L 17.452733097561 13.0967315121951  Z " fill-rule="nonzero" fill="#ffffff" stroke="none" transform="matrix(1 0 0 1 220 142 )" />
  </g>
</svg>