<?xml version="1.0" encoding="utf-8"?>
<svg version="1.1" xmlns:xlink="http://www.w3.org/1999/xlink" width="21px" height="28px" xmlns="http://www.w3.org/2000/svg">
  <g transform="matrix(1 0 0 1 -222 -255 )">
    <path d="M 20.9375 11  C 20.9375 5.375  16.625 0.875  11 0.875  C 5.375 0.875  1.0625 5.375  0.874999999999999 11  C 0.874999999999999 15.125  6.5 22.8125  9.3125 26.375  C 10.0625 27.3125  11.5625 27.3125  12.3125 26.5625  L 12.5 26.375  C 15.3125 22.625  20.9375 15.125  20.9375 11  Z M 17.5625 11  C 17.5625 14.5625  14.5625 17.5625  11 17.5625  C 7.4375 17.5625  4.4375 14.5625  4.4375 11  C 4.4375 7.4375  7.4375 4.4375  11 4.4375  C 14.5625 4.4375  17.5625 7.4375  17.5625 11  Z M 11.9375 11.1875  L 11.9375 7.4375  L 10.0625 7.4375  L 10.0625 13.0625  L 15.6875 13.0625  L 15.6875 11.1875  L 11.9375 11.1875  Z " fill-rule="nonzero" fill="#ffffff" stroke="none" transform="matrix(1 0 0 1 222 255 )" />
  </g>
</svg>