<?xml version="1.0" encoding="utf-8"?>
<svg version="1.1" xmlns:xlink="http://www.w3.org/1999/xlink" width="27px" height="24px" xmlns="http://www.w3.org/2000/svg">
  <g transform="matrix(1 0 0 1 -37 -144 )">
    <path d="M 26.5 2.625  C 26.5 1.125  25.375 0  23.875 0  L 21.4375 0  L 21.4375 3.375  C 21.4375 4.5  20.5 5.25  19.5625 5.25  C 18.4375 5.25  17.6875 4.3125  17.6875 3.375  L 17.6875 0  L 8.875 0  L 8.875 3.375  C 8.875 4.5  7.9375 5.25  7 5.25  C 6.0625 5.25  5.125 4.3125  5.125 3.375  L 5.125 0  L 2.6875 0  C 1.1875 0  0.0625 1.125  0.0625 2.625  L 0.0625 7.3125  L 26.5 7.3125  L 26.5 2.625  Z M 26 9  L 0 9  L 0 20.4375  C 0.0625 21.9375  1.1875 23.0625  2.6875 23  L 23.875 23  C 25.375 23.0625  26.5 21.9375  26 20.4375  L 26 9  Z M 21.4375 18.5625  C 21.25 19.125  20.875 19.5  20.5 19.5  L 6.0625 19.5  C 5.5 19.5  5.125 19.125  5.125 18.5625  C 5.125 18.1875  5.5 17.625  6.0625 17.625  L 20.5 17.625  C 21.0625 17.625  21.4375 18  21.4375 18.5625  Z M 20.5 12  C 20.875 12.375  21.25 12.75  21.25 13.125  C 21.25 13.6875  20.875 14.0625  20.3125 14  L 6.0625 14  C 5.5 14.0625  5.125 13.6875  5.125 13.125  C 5.125 12.5625  5.5 12.1875  6.0625 12  L 20.5 12  Z " fill-rule="nonzero" fill="#ffffff" stroke="none" transform="matrix(1 0 0 1 37 144 )" />
  </g>
</svg>