<?xml version="1.0" encoding="utf-8"?>
<svg version="1.1" xmlns:xlink="http://www.w3.org/1999/xlink" width="30px" height="30px" xmlns="http://www.w3.org/2000/svg">
  <g transform="matrix(1 0 0 1 -311 -254 )">
    <path d="M 30 2.14285713867188  L 25.7142857226562 2.14285713867188  L 25.7142857226562 4.28571427734375  L 17.1428571386719 4.28571427734375  L 17.1428571386719 2.14285713867188  L 12.8571428613281 2.14285713867188  L 12.8571428613281 4.28571427734375  L 4.28571427734375 4.28571427734375  L 4.28571427734375 2.14285713867188  L 0 2.14285713867188  L 0 30  L 30 30  L 30 2.14285713867188  Z M 25.7142857226562 9  L 25.7142857226562 25.7142857226562  L 4.28571427734375 25.7142857226562  L 4.28571427734375 9  L 25.7142857226562 9  Z M 6.42857141601563 2.14285713867188  L 6.42857141601563 0  L 10.7142857226562 0  L 10.7142857226562 2.14285713867188  L 6.42857141601563 2.14285713867188  Z M 19.2857142773438 2.14285713867188  L 19.2857142773438 0  L 23.5714285839844 0  L 23.5714285839844 2.14285713867188  L 19.2857142773438 2.14285713867188  Z " fill-rule="nonzero" fill="#ffffff" stroke="none" transform="matrix(1 0 0 1 311 254 )" />
  </g>
</svg>