<?xml version="1.0" encoding="utf-8"?>
<svg version="1.1" xmlns:xlink="http://www.w3.org/1999/xlink" width="9px" height="11px" xmlns="http://www.w3.org/2000/svg">
  <g transform="matrix(1 0 0 1 -131 -393 )">
    <path d="M 0.629028496093753 5.772923984375  C 0.629028525390625 8.59473078125  2.92427233398438 10.8899146484375  5.74577936523437 10.8899146484375  C 6.70818686523437 10.8899146484375  7.64957860351563 10.6166199511719  8.46889310546875 10.0997703710937  L 8.83758314453125 9.86712810546875  L 8.49743376953125 9.59443299804687  C 6.9052432421875 8.31774857421875  5.99206237304688 6.42339294921875  5.99206237304688 4.3960175  C 5.99206237304688 3.27726602539063  6.27749883789063 2.16882754882813  6.81806233398438 1.18915176757813  L 7.02944901367188 0.805891630859376  L 6.5979216015625 0.73241146484375  C 6.29455729492188 0.680786474609375  6.01571634765625 0.655873349609375  5.74574936523438 0.655873349609375  C 2.92427233398438 0.655873349609375  0.629028496093753 2.9511171875  0.629028496093753 5.772923984375  Z " fill-rule="nonzero" fill="#ffffff" stroke="none" transform="matrix(1 0 0 1 131 393 )" />
  </g>
</svg>