<?xml version="1.0" encoding="utf-8"?>
<svg version="1.1" xmlns:xlink="http://www.w3.org/1999/xlink" width="3px" height="14px" xmlns="http://www.w3.org/2000/svg">
  <g transform="matrix(1 0 0 1 -223 -512 )">
    <path d="M 2.45941875 9.00625  C 2.45941875 8.48848304703363  2.03968570296637 8.06875  1.52191875 8.06875  C 1.00415179703363 8.06875  0.584418749999999 8.48848304703363  0.584418749999999 9.00625  L 0.584418749999999 13.01875  C 0.584418749999999 13.5365169529664  1.00415179703363 13.95625  1.52191875 13.95625  C 2.03549709851844 13.9462748016706  2.44944355167055 13.5323283485184  2.45941875 13.01875  L 2.45941875 9.00625  Z M 2.45941875 0.981249999999999  C 2.44920811725532 0.470819968571895  2.03245088765343 0.0623978835620349  1.52191875 0.0625  C 1.5156695569678 0.0623724387457756  1.50941922488881 0.0623086531369594  1.50316873007422 0.0623086531369594  C 0.995757116167177 0.0623086531369594  0.584418730074218 0.473647039229919  0.584418730074218 0.981058653136959  L 0.584418749999999 4.99375  C 0.584418749999999 5.51151695296637  1.00415179703363 5.93125  1.52191875 5.93125  C 2.03968570296637 5.93125  2.45941875 5.51151695296637  2.45941875 4.99375  L 2.45941875 0.981249999999999  Z " fill-rule="nonzero" fill="#ffffff" stroke="none" transform="matrix(1 0 0 1 223 512 )" />
  </g>
</svg>