<?xml version="1.0" encoding="utf-8"?>
<svg version="1.1" xmlns:xlink="http://www.w3.org/1999/xlink" width="26px" height="24px" xmlns="http://www.w3.org/2000/svg">
  <g transform="matrix(1 0 0 1 -312 -393 )">
    <path d="M 25 3.8896484375  C 25.1875 1.923828125  23.5263671875 0.2626953125  21.560546875 0.2626953125  L 20.7431640625 0.2626953125  L 20.7431640625 3.541015625  C 20.7431640625 4.5400390625  19.92578125 5.357421875  18.9267578125 5.357421875  C 17.927734375 5.357421875  17.1103515625 4.5400390625  17.1103515625 3.541015625  L 17.1103515625 0.2626953125  L 8.9072265625 0.2626953125  L 8.9072265625 3.541015625  C 8.9072265625 4.5400390625  8.08984375 5.357421875  7.0908203125 5.357421875  C 6.091796875 5.357421875  5.2744140625 4.5400390625  5.2744140625 3.541015625  L 5.2744140625 0.2626953125  L 4.439453125 0.2626953125  C 2.4736328125 0.2626953125  0.8125 1.923828125  1 3.8896484375  L 1 20.0439453125  C 0.8125 22.009765625  2.4736328125 23.6708984375  4.439453125 23.6708984375  L 21.560546875 23.6708984375  C 23.5263671875 23.6708984375  25.1875 22.009765625  25 20.0439453125  L 25 3.8896484375  Z M 18.2734375 14.8701171875  C 18.2734375 17.3896484375  16.732421875 19.203125  13.1787109375 19.203125  C 10.36328125 19.203125  8.6787109375 17.978515625  7.7939453125 16.900390625  C 7.69140625 16.7744140625  7.7119140625 16.58984375  7.837890625 16.4931640625  L 10.0087890625 14.83203125  C 10.123046875 14.744140625  10.287109375 14.76171875  10.380859375 14.873046875  C 11.0048828125 15.6025390625  11.787109375 16.162109375  13.0205078125 16.162109375  C 14.0869140625 16.162109375  14.7197265625 15.83984375  14.7138671875 15.0751953125  C 14.7138671875 14.4892578125  14.27734375 14.2080078125  13.3896484375 13.90625  L 11.810546875 13.361328125  C 9.8564453125 12.6962890625  8.4736328125 11.486328125  8.4736328125 9.23046875  C 8.4736328125 6.529296875  10.6650390625 5.140625  13.0556640625 5.140625  C 15.255859375 5.140625  16.6416015625 5.8876953125  17.458984375 6.7548828125  C 17.5615234375 6.8603515625  17.5615234375 7.033203125  17.458984375 7.1416015625  L 15.7744140625 8.943359375  C 15.671875 9.0546875  15.5048828125 9.060546875  15.3935546875 8.9609375  C 14.869140625 8.48046875  14.2041015625 8.1611328125  13.2548828125 8.1611328125  C 12.384765625 8.1611328125  11.951171875 8.5625  11.951171875 9.107421875  C 11.951171875 9.6318359375  12.25 9.892578125  12.900390625 10.115234375  L 14.6787109375 10.71875  C 17.365234375 11.626953125  18.2734375 12.9365234375  18.2734375 14.8701171875  Z " fill-rule="nonzero" fill="#ffffff" stroke="none" transform="matrix(1 0 0 1 312 393 )" />
  </g>
</svg>