<?xml version="1.0" encoding="utf-8"?>
<svg version="1.1" xmlns:xlink="http://www.w3.org/1999/xlink" width="30px" height="12px" xmlns="http://www.w3.org/2000/svg">
  <g transform="matrix(1 0 0 1 -310 -522 )">
    <path d="M 17.5400000097656 0  L 11.5400000097656 0  L 11.5400000097656 1.14  L 17.5400000097656 1.14  L 17.5400000097656 0  Z M 30 0  L 19.5399999902344 0  L 19.5399999902344 3.20000000976562  L 9.54 3.20000000976562  L 9.54 0  L 0 0  L 0 12  L 30 12  L 30 0  Z M 21.9999999902344 5.72000000976563  L 21.9999999902344 9.72  L 18 9.72  L 18 5.72000000976563  L 21.9999999902344 5.72000000976563  Z M 27.9999999902344 5.72000000976563  L 27.9999999902344 9.72  L 24 9.72  L 24 5.72000000976563  L 27.9999999902344 5.72000000976563  Z " fill-rule="nonzero" fill="#ffffff" stroke="none" transform="matrix(1 0 0 1 310 522 )" />
  </g>
</svg>