<?xml version="1.0" encoding="utf-8"?>
<svg version="1.1" xmlns:xlink="http://www.w3.org/1999/xlink" width="10px" height="10px" xmlns="http://www.w3.org/2000/svg">
  <g transform="matrix(1 0 0 1 -335 -101 )">
    <path d="M 340 103  C 341.68 103  343 104.32  343 106  C 343 107.68  341.68 109  340 109  C 338.32 109  337 107.68  337 106  C 337 104.32  338.32 103  340 103  Z " fill-rule="nonzero" fill="#ffffff" stroke="none" />
    <path d="M 340 102.5  C 341.96 102.5  343.5 104.04  343.5 106  C 343.5 107.96  341.96 109.5  340 109.5  C 338.04 109.5  336.5 107.96  336.5 106  C 336.5 104.04  338.04 102.5  340 102.5  Z " stroke-width="3" stroke="#52c1f5" fill="none" />
  </g>
</svg>