<?xml version="1.0" encoding="utf-8"?>
<svg version="1.1" xmlns:xlink="http://www.w3.org/1999/xlink" width="89px" height="13px" xmlns="http://www.w3.org/2000/svg">
  <g transform="matrix(1 0 0 1 -40 -324 )">
    <path d="M 87.3037642828283 2.19427018571429  L 88.5809583333333 0.49865985  L 88.8154715353535 0.687119921428543  L 87.5382774848485 2.38273025714284  L 87.3037642828283 2.19427018571429  Z M 84.2020073030303 6.31218119999999  L 85.4792013535354 4.61657077142856  L 85.7137145555556 4.80503084285713  L 84.4365214040404 6.50064117857142  L 84.2020073030303 6.31218119999999  Z M 80.3090376262626 9.41281184999999  C 80.9478068080808 9.16138135714284  81.5551949494949 8.83090649999998  82.1174753737374 8.42849084999997  L 82.2867003333333 8.68076002857141  C 81.7046915757576 9.09729497857141  81.0760072626263 9.43935701428569  80.4148451414141 9.69960178571427  L 80.3090376262626 9.41281184999999  Z M 76.4297038282828 9.94038648571427  C 76.7714881010101 9.9766015142857  77.1141327070707 9.99128232142856  77.4560194646465 9.98456215714285  L 77.4616723131313 10.2914147142857  C 77.1077894343434 10.2983707357143  76.7531316262626 10.2831752214286  76.3992694242424 10.2456803428571  L 75.3634757373737 10.1351024357143  L 75.3940234141414 9.82982055714285  L 76.4297038282828 9.94038648571427  Z M 70.3695643737374 9.29341307142856  L 72.4384592727273 9.51428678571427  L 72.4079106969697 9.81956857142856  L 70.3390157979798 9.59869485714285  L 70.3695643737374 9.29341307142856  Z M 65.3451051535354 8.75700558571429  L 67.4140001424242 8.97787920714284  L 67.3834519262626 9.28316108571427  L 65.3145570272727 9.06228737142856  L 65.3451051535354 8.75700558571429  Z M 60.3206460232323 8.22059800714286  L 62.3895409222222 8.44147172142858  L 62.3589927959596 8.74675350714284  L 60.2900978070707 8.52587979285713  L 60.3206460232323 8.22059800714286  Z M 55.2961868929293 7.68419052142854  L 57.3650817919192 7.90506414285715  L 57.3345335757576 8.21034602142858  L 55.2656386767677 7.98947230714286  L 55.2961868929293 7.68419052142854  Z M 50.2717276727273 7.14778294285711  L 52.3406226616162 7.36865665714283  L 52.3100744454545 7.67393844285715  L 50.2411795464646 7.45306472857143  L 50.2717276727273 7.14778294285711  Z M 45.2472685424242 6.61137545714285  L 47.3161634414141 6.8322490785714  L 47.2856152252525 7.13753095714283  L 45.2167203262626 6.91665724285711  L 45.2472685424242 6.61137545714285  Z M 40.2228094121212 6.07496787857142  L 42.2917043111111 6.29584159285713  L 42.2611560949495 6.6011233785714  L 40.1922611959596 6.38024966428571  L 40.2228094121212 6.07496787857142  Z M 35.1983501919192 5.53856039285713  L 37.2672450909091 5.7594340142857  L 37.2366969646465 6.06471589285713  L 35.1678019757576 5.84384217857141  L 35.1983501919192 5.53856039285713  Z M 30.1738910616162 5.0021528142857  L 32.2427859606061 5.22302652857141  L 32.2122377444444 5.5283083142857  L 30.1433428454545 5.30743459999999  L 30.1738910616162 5.0021528142857  Z M 25.2014072121212 5.95070867857143  L 27.2180697191919 5.42491541428569  L 27.2907901808081 5.72248987142857  L 25.2741276737374 6.24828322857142  L 25.2014072121212 5.95070867857143  Z M 20.3037981636364 7.22763525714286  L 22.3204606707071 6.70184199285712  L 22.3931811323232 6.99941645  L 20.3765186252525 7.52520971428569  L 20.3037981636364 7.22763525714286  Z M 15.4061891151515 8.50456174285713  L 17.4228516222222 7.97876847857141  L 17.4955720838384 8.27634302857143  L 15.4789094868687 8.80213629285712  L 15.4061891151515 8.50456174285713  Z M 10.5085800666667 9.78148832142856  L 12.5252425737374 9.25569505714285  L 12.5979630353535 9.5532695142857  L 10.5813004383838 10.0790627785714  L 10.5085800666667 9.78148832142856  Z M 5.61097092828283 11.0584149  L 7.62763352525252 10.5326216357143  L 7.7003538969697 10.8301960928571  L 5.68369138989899 11.3559893571428  L 5.61097092828283 11.0584149  Z M 0.713361879797978 12.3353413857143  L 2.73002438686869 11.8095481214286  L 2.80274484848485 12.1071226714286  L 0.786082341414141 12.6329159357143  L 0.713361879797978 12.3353413857143  Z " fill-rule="nonzero" fill="#ffffff" stroke="none" transform="matrix(1 0 0 1 40 324 )" />
  </g>
</svg>