<?xml version="1.0" encoding="utf-8"?>
<svg version="1.1" xmlns:xlink="http://www.w3.org/1999/xlink" width="150px" height="98px" xmlns="http://www.w3.org/2000/svg">
  <g transform="matrix(1 0 0 1 -132 -234 )">
    <path d="M 14 97.8080313636364  L 14 65.2145000181818  L 15 65.2145000181818  L 15 97.8080313636364  L 14 97.8080313636364  Z M 1 97.8080313636364  L 1 66.1304498909091  L 2 66.1304498909091  L 2 97.8080313636364  L 1 97.8080313636364  Z M 28 97.8602680363636  L 28 57.6795802545455  L 28 97.8602680363636  Z M 41 97.8602680363636  L 41 45.1830870909091  L 42 45.1830870909091  L 42 97.8602680363636  L 41 97.8602680363636  Z M 55 97.8602680363636  L 55 35.8107172181818  L 55 97.8602680363636  Z M 68 97.8602680363636  L 68 35.3644136363636  L 69 35.3644136363636  L 69 97.8602680363636  L 68 97.8602680363636  Z M 81 97.8602680363636  L 81 39.3811440909091  L 81 97.8602680363636  Z M 94 97.8602680363636  L 94 44.2904799272727  L 95 44.2904799272727  L 95 97.8602680363636  L 94 97.8602680363636  Z M 108 97.8602680363636  L 108 42.5052673818182  L 108 97.8602680363636  Z M 121 97.8602680363636  L 121 21.9753139327273  L 122 21.9753139327273  L 122 97.8602680363636  L 121 97.8602680363636  Z M 135 97.8602680363636  L 135 4.12318081636362  L 135 97.8602680363636  Z M 148 97.8602680363636  L 148 0.552754121818172  L 149 0.552754121818172  L 149 97.8602680363636  L 148 97.8602680363636  Z " fill-rule="nonzero" fill="#58acfe" stroke="none" transform="matrix(1 0 0 1 132 234 )" />
  </g>
</svg>