<?xml version="1.0" encoding="utf-8"?>
<svg version="1.1" xmlns:xlink="http://www.w3.org/1999/xlink" width="26px" height="28px" xmlns="http://www.w3.org/2000/svg">
  <g transform="matrix(1 0 0 1 -276 -223 )">
    <path d="M 18.08 6.44000000000001  C 13.24 3.28  9.68000000000004 1.16000000000001  7.44000000000003 0.200000000000003  C 2.28000000000003 5.12  1.20000000000002 8.80000000000001  4.12000000000003 11.24  C 5.64000000000001 12.52  9.76000000000005 15.96  8.56000000000006 18.68  C 8.20000000000005 19.56  5.80000000000007 22.04  4.16000000000005 22.68  C 2.60000000000005 23.28  0.600000000000051 20.8  0.560000000000059 21.4  C 0.560000000000059 21.6  -0.15999999999994 22.92  0.560000000000059 23.8  C 0.920000000000044 24.24  2.16000000000005 25  2.96000000000004 25.4  C 3.48000000000002 25.68  4.16000000000005 25.68  4.96000000000004 25.48  C 8.68000000000004 21.2  10.68 19.76  10.96 21.08  C 11.2400000000001 22.4  10.28 23.36  8.16000000000005 23.88  C 7.88000000000002 26  8.96000000000004 27.36  11.36 27.88  C 14.76 28.64  22.72 22.44  24.2 17.36  C 24.2800000000001 17.12  25.2400000000001 18.04  25.4400000000001 17.32  C 25.64 16.6  24.4 16.88  24.4 16.64  C 24.4800000000001 15.88  25.64 15.44  24.76 15.2  C 24.0000000000001 15  23.72 10.12  18.08 6.44000000000001  Z " fill-rule="nonzero" fill="#251414" stroke="none" transform="matrix(1 0 0 1 276 223 )" />
  </g>
</svg>