<?xml version="1.0" encoding="utf-8"?>
<svg version="1.1" xmlns:xlink="http://www.w3.org/1999/xlink" width="23px" height="21px" xmlns="http://www.w3.org/2000/svg">
  <g transform="matrix(1 0 0 1 -108 -302 )">
    <path d="M 5.23999999999999 13.48  C 6.68000000000001 13.24  6.88 14.4  5.84 17  C 7.72 15  8.52 13.2  8.2 11.6  C 7.76000000000001 9.16  13.96 17.52  18.28 16.76  C 22.6 16  23.24 10.32  22.12 8.60000000000002  C 20.96 6.84000000000003  13.88 -3.55999999999997  5.28 1.28  C -0.440000000000012 4.52000000000001  -1 10.92  3.67999999999999 20.44  L 4.64 18.04  C 3.60000000000001 15.28  3.8 13.76  5.23999999999999 13.48  Z " fill-rule="nonzero" fill="#251414" stroke="none" transform="matrix(1 0 0 1 108 302 )" />
  </g>
</svg>