<?xml version="1.0" encoding="utf-8"?>
<svg version="1.1" xmlns:xlink="http://www.w3.org/1999/xlink" width="56px" height="22px" xmlns="http://www.w3.org/2000/svg">
  <g transform="matrix(1 0 0 1 -44 -322 )">
    <path d="M 54.740990256073 20.7595435067442  C 54.5160917866878 20.9377860203688  54.2012339295485 21.0714679055872  53.8863760724093 21.0714679055872  C 53.526538521393 21.0714679055872  53.2116806642537 20.9377860203688  52.9418025009915 20.670422249932  C 43.5860261745674 10.421477716521  32.2061636236766 4.62859602372349  19.1620523993354 3.42545905675783  C 9.40145882801794 2.53424648863515  2.29466719544581 4.71771728053572  2.20470780769173 4.76227790894187  C 1.53001239953615 4.98508105097255  0.81033729750353 4.58403539531734  0.585438828118336 3.96018659763147  C 0.360540358733143 3.29177717153945  0.720377909749451 2.57880711704127  1.39507331790503 2.35600397501062  C 1.70993117504431 2.26688271819831  8.99664158312458 -0.00570933051453375  19.2520117870894 0.93006386601427  C 28.6977475012676 1.77671580573082  42.5514932153955 5.56436922025227  54.8309496438271 18.9771183704988  C 55.3257262764745 19.5118459113724  55.2807465825975 20.3139372226828  54.740990256073 20.7595435067442  Z " fill-rule="nonzero" fill="#d4daff" stroke="none" transform="matrix(1 0 0 1 44 322 )" />
  </g>
</svg>