<?xml version="1.0" encoding="utf-8"?>
<svg version="1.1" xmlns:xlink="http://www.w3.org/1999/xlink" width="49px" height="86px" xmlns="http://www.w3.org/2000/svg">
  <g transform="matrix(1 0 0 1 -32 -222 )">
    <path d="M 0.719224478261237 3.38954854982737  C -0.444514856459399 0.823648340288031  3.36001758397347 0.238443029340438  4.1656832772416 1.85901158273372  C 6.31412512595663 6.04548034566636  8.68636300057947 20.8106604988051  8.68636300057947 30.1739454739663  C 8.68636300057947 39.5372304491274  7.4331052554957 51.2413366680789  9.9843799508448 56.3731370871576  C 12.5804138513755 61.5049375062363  41.5843788090283 68.9325433759555  48.2535003810812 80.7716969743564  C 49.6410357417097 83.2475655975961  47.8506675344472 87.2539711879295  45.612707275369 85.1832447030381  C 43.3299878111093 83.1125182181467  26.5452858680231 69.3827013074536  10.0291391560264 63.2155376459292  C 4.47899771351254 61.1448111610378  -0.892106908275034 57.0033581912549  0.7639836834428 49.1706101831875  C 2.37531506997907 41.562941140869  3.18098076324721 37.961677688884  3.40477678915502 28.4633453342733  C 3.62857281506284 18.9650129796627  1.92772301816344 5.91043296621687  0.719224478261237 3.38954854982737  Z " fill-rule="nonzero" fill="#ffffff" stroke="none" transform="matrix(1 0 0 1 32 222 )" />
  </g>
</svg>