<?xml version="1.0" encoding="utf-8"?>
<svg version="1.1" xmlns:xlink="http://www.w3.org/1999/xlink" width="90px" height="57px" xmlns="http://www.w3.org/2000/svg">
  <g transform="matrix(1 0 0 1 -36 -251 )">
    <path d="M 51.3926893257714 0.0388184696166819  C 53.890497858092 5.21461441850024  82.8383145987369 12.6857633534105  89.4842694436615 24.5225836539008  C 90.4209476432817 26.1878397418024  89.9303066815759 28.4831927278291  88.8598173105813 29.2483103898379  L 88.8152135867899 29.2483103898379  C 88.7706098629984 29.2933173111326  88.6814024154155 29.3383242324272  88.6367986916241 29.3383242324272  L 42.1597185009432 56.4324908518004  L 31.2318061720403 44.7756982364887  L 0.544444203529267 28.123137357472  C 1.7933484696896 26.4578812695703  2.99764901205849 25.1076736307311  3.97893093547018 24.3875628900168  C 8.26088841944846 21.1470645568028  14.996050711956 24.3875628900168  29.0908274300511 17.5465108532316  C 43.1856041481463 10.7054588164463  48.4042398317448 0.623908446446965  51.3926893257714 0.0388184696166819  Z " fill-rule="nonzero" fill="#d4daff" stroke="none" transform="matrix(1 0 0 1 36 251 )" />
  </g>
</svg>