<?xml version="1.0" encoding="utf-8"?>
<svg version="1.1" xmlns:xlink="http://www.w3.org/1999/xlink" width="13px" height="23px" xmlns="http://www.w3.org/2000/svg">
  <g transform="matrix(1 0 0 1 -289 -110 )">
    <path d="M 9.9817711041324 21.934518610181  C 9.20311752594474 22.3363238220022  8.38120541563546 22.514903916145  7.60255183744774 22.514903916145  C 5.87221055258618 22.514903916145  4.18512779984612 21.5327133983598  3.27669862529378 19.8808475275392  C -0.0109498159432714 13.675189256078  0.118825780421401 6.26411534915321  0.162084312542906 5.46050492551076  C 0.248601376785968 2.69251346629787  2.41152798286295 0.549552336584667  5.09355697439841 0.549552336584667  C 5.13681550651996 0.549552336584667  5.18007403864152 0.549552336584667  5.26659110288458 0.549552336584667  C 7.99187862654155 0.638842383656053  10.111546700497 2.96038360751202  10.025029636254 5.7730200902606  C 9.9817711041324 7.24630586693843  10.2845808289832 11.8447432911147  11.9716635817233 15.0591849856845  C 13.2694195453695 17.5146612801475  12.4042489029386 20.5951679041103  9.9817711041324 21.934518610181  Z " fill-rule="nonzero" fill="#633b25" stroke="none" transform="matrix(1 0 0 1 289 110 )" />
  </g>
</svg>