<?xml version="1.0" encoding="utf-8"?>
<svg version="1.1" xmlns:xlink="http://www.w3.org/1999/xlink" width="36px" height="39px" xmlns="http://www.w3.org/2000/svg">
  <g transform="matrix(1 0 0 1 -275 -128 )">
    <path d="M 8.71482925639273 38.3112971320425  C 8.76015628381329 38.4021400494978  8.76015628381329 38.4021400494978  8.71482925639284 38.4021400494978  C 5.40595625469698 38.4021400494978  2.68633460946758 36.9032319114864  1.32652378685286 34.2687873052846  C -0.486557309966798 30.7713349832581  0.238675128761075 26.2291891104965  3.72885624013886 19.4159703013539  C 5.76857247406089 15.4643033920513  8.08025087250599 12.1031154462076  8.17090492734689 11.9668510700248  C 9.80267791448457 9.60493521618869  13.0208968613395 9.05987771145729  15.3325752597844 10.6496287669239  C 17.68958068565 12.2848012811181  18.2335050146958 15.5097248507789  16.6470590549787 17.8262192458873  C 14.8793049855795 20.3698209346339  13.2022049710213 23.322215751929  12.1143563129296 25.7295530644927  C 13.2022049710213 24.6394380550299  14.5166887662155 23.0951084582909  16.1031347259328 20.7786140631824  C 19.5026617824696 15.8276750618722  22.5395726196424 9.78662105109915  24.5792888535645 5.74411122434125  C 25.07788615519 4.74483913233368  25.5311564293949 3.88183141650896  25.8937726487587 3.15508807686709  C 27.208256443953 0.61148638812055  30.3358213359668 -0.342364245159406  32.8288078440939 0.974858057941481  C 35.3671213796413 2.29208036104237  36.3189889554716 5.42616101324793  35.0045051602774 7.92434124326686  C 34.6418889409135 8.60566312418111  34.233945694129 9.42324938127821  33.7353483925037 10.3771000145582  C 26.9816213068505 23.8672732566604  18.8680833985827 38.2658756733149  8.71482925639273 38.3112971320425  Z " fill-rule="nonzero" fill="#633b25" stroke="none" transform="matrix(1 0 0 1 275 128 )" />
  </g>
</svg>