<?xml version="1.0" encoding="utf-8"?>
<svg version="1.1" xmlns:xlink="http://www.w3.org/1999/xlink" width="54px" height="44px" xmlns="http://www.w3.org/2000/svg">
  <g transform="matrix(1 0 0 1 -281 -146 )">
    <path d="M 29.8496194081068 42.9155057061657  C 28.8613283280993 43.1828694766025  27.8281149262733 43.2719907334148  26.8398238462658 43.2719907334148  C 19.4276407462097 43.2719907334148  11.1619335316016 37.9692759530848  1.1891780878897 26.8291188515511  C -0.472947819395636 25.0021330868996  -0.293258532121529 22.1948134973131  1.54855666243786 20.5460702462861  C 3.39037185699726 18.8973269952591  6.22047813156416 19.0755695088837  7.83768171703096 20.9025552735352  C 18.7538059189318 33.06760682841  24.8632416862508 34.8945925930615  28.0527265353659 34.2261831669695  C 34.3867739117776 32.9339249431915  38.7442391281742 20.2787064758493  42.5626364827485 9.0939887459095  C 43.1915489882078 7.31156360966411  43.7755391718486 5.52913847341872  44.404451677308 3.79127396557946  C 45.2130534700413 1.47412128846046  47.7736258136971 0.270984321494825  50.1095865482603 1.07307563280525  C 52.4455472828234 1.87516694411568  53.6584499719235 4.41512276326535  52.8498481791901 6.73227544038435  C 52.2209356737308 8.47013994822361  51.63694549009 10.2080044560629  51.0529553064493 11.9458689639021  C 46.2013445500489 26.0715881686468  41.2149668281929 40.6429136574529  29.8496194081068 42.9155057061657  Z " fill-rule="nonzero" fill="#633b25" stroke="none" transform="matrix(1 0 0 1 281 146 )" />
  </g>
</svg>