<?xml version="1.0" encoding="utf-8"?>
<svg version="1.1" xmlns:xlink="http://www.w3.org/1999/xlink" width="23px" height="30px" xmlns="http://www.w3.org/2000/svg">
  <g transform="matrix(1 0 0 1 -37 -505 )">
    <path d="M 22.6976438492839 26.5628229125977  C 22.6976438492839 27.9071489501953  21.5834742480469 28.9970974731445  20.2092742610677 29  L 2.79064910970052 29  C 1.41644916015625 28.9970974731445  0.302279558919269 27.9071489501953  0.302279558919269 26.5628229125977  L 0.302279558919269 5.87141418457031  C 0.302279558919269 4.52712561035156  1.41644916015625 3.43713962402344  2.79064910970052 3.43713962402344  L 4.65694543945312 3.43713962402344  L 4.65694543945312 4.04572701416016  C 4.65694543945312 5.7261251953125  6.04995432779948 7.08855146484375  7.76738821126302 7.08855146484375  L 15.2325351595052 7.08855146484375  C 16.9499690804036 7.08855146484375  18.3429779313151 5.7261251953125  18.34297796875 4.04572701416016  L 18.34297796875 3.43713962402344  L 20.2092742610677 3.43713962402344  C 21.583474210612 3.43713962402344  22.697643811849 4.52712561035156  22.6976438492839 5.87141418457031  L 22.6976438492839 26.5628229125977  Z M 18.9650894856771 13.1742753295898  C 18.9650894856771 12.5020935791016  18.4080238330078 11.9571380493164  17.7209047102865 12  L 5.27901866048177 12  C 4.59189953776042 11.9571380493164  4.03483388509114 12.5021310424805  4.03483388509114 13.1742753295898  C 4.03483388509114 13.8464196166992  4.59189953776042 14.3914126098633  5.27901866048177 14.3914126098633  L 17.7209047102865 14.3914126098633  C 18.4080238330078 14.3914126098633  18.9650894856771 13.8464570800781  18.9650894856771 13.1742753295898  Z M 18.9650894856771 17.4342745605469  C 18.9650894856771 16.7620928100586  18.4080238330078 16.2171372802734  17.7209047102865 16  L 5.27901866048177 16  C 4.59189953776042 16.2171372802734  4.03483388509114 16.7621302734375  4.03483388509114 17.4342745605469  C 4.03483388509114 18.1064188476562  4.59189953776042 18.6514118408203  5.27901866048177 18.6514118408203  L 17.7209047102865 18.6514118408203  C 18.4080238330078 18.6514118408203  18.9650894856771 18.1064563110352  18.9650894856771 17.4342745605469  Z M 18.9650894856771 21.6942362915039  C 18.9650894856771 21.0220920043945  18.4080238330078 20.4770990112305  17.7209047102865 20  L 5.27901866048177 20  C 4.59189953776042 20.4770990112305  4.03483388509114 21.0220920043945  4.03483388509114 21.6942362915039  C 4.03483388509114 22.3663805786133  4.59189953776042 22.9113735717773  5.27901866048177 23  L 17.7209047102865 23  C 18.4080238330078 22.9113735717773  18.9650894856771 22.3663805786133  18.9650894856771 21.6942362915039  Z M 16.4767199348958 3.43713962402344  C 16.4767199348958 4.78146566162109  15.3625503336589 5.87141418457031  13.9883503841146 5.87141418457031  L 9.01161128255208 5.87141418457031  C 7.63741133300781 5.87141418457031  6.52324173177083 4.78146566162109  6.52324173177083 3.43713962402344  C 6.52324173177083 2.09285104980469  7.63741133300781 1.00286506347656  9.01161128255208 1.00286506347656  L 13.9883503841146 1.00286506347656  C 15.3625503336589 1.00286506347656  16.4767199348958 2.09285104980468  16.4767199348958 3.43713962402344  Z " fill-rule="nonzero" fill="#ffffff" stroke="none" transform="matrix(1 0 0 1 37 505 )" />
  </g>
</svg>