<?xml version="1.0" encoding="utf-8"?>
<svg version="1.1" xmlns:xlink="http://www.w3.org/1999/xlink" width="16px" height="7px" xmlns="http://www.w3.org/2000/svg">
  <g transform="matrix(1 0 0 1 -317 -391 )">
    <path d="M 3.2509765625 5.482421875  C 3.2509765625 6.126953125  2.7236328125 6.654296875  2.0791015625 6.654296875  C 1.4345703125 6.654296875  0.907226562499999 6.126953125  0.907226562499999 5.482421875  L 0.907226562499999 1.498046875  C 0.907226562499999 0.853515624999999  1.4345703125 0.326171874999999  2.0791015625 0.326171874999999  C 2.7236328125 0.326171874999999  3.2509765625 0.853515624999999  3.2509765625 1.498046875  L 3.2509765625 5.482421875  Z M 15.0986328125 5.482421875  C 15.0986328125 6.126953125  14.5712890625 6.654296875  13.9267578125 6.654296875  C 13.2822265625 6.654296875  12.7548828125 6.126953125  12.7548828125 5.482421875  L 12.7548828125 1.498046875  C 12.7548828125 0.853515624999999  13.2822265625 0.326171874999999  13.9267578125 0.326171874999999  C 14.5712890625 0.326171874999999  15.0986328125 0.853515624999999  15.0986328125 1.498046875  L 15.0986328125 5.482421875  Z " fill-rule="nonzero" fill="#ffffff" stroke="none" transform="matrix(1 0 0 1 317 391 )" />
  </g>
</svg>