<?xml version="1.0" encoding="utf-8"?>
<svg version="1.1" xmlns:xlink="http://www.w3.org/1999/xlink" width="18px" height="16px" xmlns="http://www.w3.org/2000/svg">
  <g transform="matrix(1 0 0 1 -25 -26 )">
    <path d="M 12.9868076962025 15.9767565714286  L 12.9855255949367 14.23023248  L 14.2886440253165 14.23023248  C 14.560465443038 14.23023248  14.7818545063291 14.0146439085714  14.7818545063291 13.7502912685714  L 14.7818545063291 2.25993371428571  C 14.7818545063291 1.99515330285714  14.560465443038 1.77999248  14.2886440253165 2  L 0.191115865822784 2  L 0.191115865822784 1.47243657142857  C 0.191115865822784 0.679378612571429  0.855283192405065 0.0330406537142857  1.66989251392405 0  L 17.803516556962 0  L 17.803516556962 1.77999248  L 16.8269256455696 1.77999248  L 16.8269256455696 14.5373606628571  C 16.8269256455696 15.3308463771429  16.1627582278481 15.9767565714286  15.3477216455696 15.9767565714286  L 12.9868076962025 15.9767565714286  Z " fill-rule="nonzero" fill="#5183f5" stroke="none" transform="matrix(1 0 0 1 25 26 )" />
  </g>
</svg>