<?xml version="1.0" encoding="utf-8"?>
<svg version="1.1" xmlns:xlink="http://www.w3.org/1999/xlink" width="13px" height="7px" xmlns="http://www.w3.org/2000/svg">
  <g transform="matrix(1 0 0 1 -52 -26 )">
    <path d="M 12.7648404 1.55453781875  C 12.7648404 0.7959659378125  12.1046694363636 0.177400313125  11.2605019090909 0.177400313125  L 0.108533690909091 0.177400313125  L 0.108533690909091 7  L 12.7648404 7  L 12.7648404 1.55453781875  Z M 10.6730427818182 4.7185971875  L 10.6730427818182 5.40593781875  L 2.31649316363636 5.40593781875  L 2.31649316363636 4.25968781875  L 10.160956 4.25968781875  C 10.4429361636364 4.25968781875  10.6730427818182 4.465194059375  10.6730427818182 4.7185971875  Z M 2.31649316363636 2.742953434375  L 2.31649316363636 1.674075309375  L 10.160956 1.674075309375  C 10.4429361636364 1.674075309375  10.6730427818182 1.880809678125  10.6730427818182 2.13339406875  L 10.6730427818182 2.742953434375  L 2.31649316363636 2.742953434375  Z " fill-rule="nonzero" fill="#5183f5" stroke="none" transform="matrix(1 0 0 1 52 26 )" />
  </g>
</svg>