<?xml version="1.0" encoding="utf-8"?>
<svg version="1.1" xmlns:xlink="http://www.w3.org/1999/xlink" width="28px" height="28px" xmlns="http://www.w3.org/2000/svg">
  <g transform="matrix(1 0 0 1 -35 -390 )">
    <path d="M 27.04296875 22.6689453125  C 27.0400390625 20.3896484375  25.1943359375 18.546875  22.91796875 18.546875  L 22.6015625 18.546875  C 20.7763671875 18.546875  19.2294921875 19.7333984375  18.6875 21.376953125  L 8.8291015625 21.2392578125  C 7.572265625 21.2216796875  6.5673828125 19.9970703125  6.587890625 18.5087890625  L 6.5908203125 18.2392578125  C 6.611328125 16.7626953125  7.63671875 15.5732421875  8.87890625 15.5732421875  L 8.9052734375 15.5732421875  L 19.1826171875 15.716796875  C 20.8349609375 15.7373046875  22.40234375 15.0634765625  23.57421875 13.806640625  C 24.69921875 12.6025390625  25.33203125 11.0029296875  25.35546875 9.2978515625  C 25.4052734375 5.7119140625  22.71875 2.755859375  19.3642578125 2.708984375  L 8.7265625 2.5625  C 7.9765625 1.5283203125  6.7607421875 0.854492187499997  5.38671875 0.854492187499997  L 5.0703125 0.854492187499997  C 2.7939453125 0.854492187499997  0.9482421875 2.7001953125  0.9482421875 4.9765625  L 0.9482421875 5.29296875  C 0.9482421875 7.5693359375  2.7939453125 9.4150390625  5.0703125 9.4150390625  L 5.38671875 9.4150390625  C 7.2880859375 9.4150390625  8.8876953125 8.1259765625  9.3623046875 6.376953125  L 19.314453125 6.517578125  C 20.5712890625 6.53515625  21.576171875 7.759765625  21.5556640625 9.248046875  C 21.5439453125 10.00390625  21.27734375 10.701171875  20.796875 11.2109375  C 20.3662109375 11.6708984375  19.806640625 11.92578125  19.23828125 11.9140625  L 8.9609375 11.767578125  C 5.6123046875 11.7177734375  2.837890625 14.59765625  2.7880859375 18.18359375  L 2.78515625 18.453125  C 2.7353515625 22.0390625  5.421875 24.9921875  8.7763671875 25.0419921875  L 19.12109375 25.1884765625  C 19.8505859375 26.33984375  21.13671875 27.107421875  22.6044921875 27.107421875  L 22.9208984375 27.107421875  C 25.197265625 27.107421875  27.04296875 25.26171875  27.04296875 22.9853515625  L 27.04296875 22.6689453125  Z " fill-rule="nonzero" fill="#ffffff" stroke="none" transform="matrix(1 0 0 1 35 390 )" />
  </g>
</svg>