<?xml version="1.0" encoding="utf-8"?>
<svg version="1.1" xmlns:xlink="http://www.w3.org/1999/xlink" width="28px" height="31px" xmlns="http://www.w3.org/2000/svg">
  <g transform="matrix(1 0 0 1 -219 -389 )">
    <path d="M 28 2.34479551757812  C 27.8716853183376 1.00584074359891  26.7495182001329 -0.0409569339692745  25.4102619238281 0  L 3.3995640625 0  C 2.06030778619521 -0.0409569339692763  0.938140667990487 1.00584074359891  0.887269755859375 2.34479551757812  L 0.887269755859375 7.27564180664062  L 2.76211624023437 7.27564180664062  C 2.7811866203223 7.27493132995913  2.80026857622619 7.27457599924152  2.81935218630952 7.27457599924152  C 3.6469461333988 7.27457599924152  4.32603166369256 7.92970984269457  4.35573575195312 8.756770546875  C 4.33594068801724 9.59140217278518  3.65366015101357 10.2576928410542  2.81879381708598 10.2576928410542  C 2.7998964739283 10.2576928410542  2.78100073698139 10.2573444129458  2.76211624023437 10.256647734375  L 0.887269755859375 10.256647734375  L 0.887269755859375 13.8001076074219  L 2.76211624023437 13.8001076074219  C 3.59047554559983 13.8001076074219  4.26199344238281 14.4716255042049  4.26199344238281 15.2999848095703  C 4.26199344238281 16.1283441149358  3.59047554559984 16.7998620117188  2.76211624023437 16.7998620117188  L 0.887269755859375 16.7998620117188  L 0.887269755859375 20.3433218847656  L 2.76211624023437 20.3433218847656  C 3.59047554559983 20.3433218847656  4.26199344238281 21.0148397815486  4.26199344238281 21.8431990869141  C 4.26199344238281 22.6715583922795  3.59047554559983 23.3430762890625  2.76211624023437 23.3430762890625  L 0.887269755859375 23.3430762890625  L 0.887269755859375 27.6552232324219  C 0.938140667990488 28.9941780064011  2.06030778619521 30.0409756839693  3.3995640625 30  L 25.4102619238281 30  C 26.7495182001329 30.0409756839693  27.8716853183376 28.9941780064011  28 27.6552232324219  L 28 2.34479551757812  Z M 23.091812484294 22.0587963754681  C 23.091812484294 22.6141915281202  22.6799740091754 23.0834772442189  22.129280546875 23  L 9.00535506835937 23  C 8.45466161877476 23.083477231335  8.04282315942854 22.6141915209156  8.04282315942854 22.0587963791987  C 8.04282315942854 21.980009850349  8.05124048150648 21.9014487817406  8.06793182617188 21.824450625  C 8.30279084648679 18.28822652019  10.6506065834354 15.2442130676343  14.011195234375 14.1188315332031  C 12.6750027096184 13.5093493993148  11.8176248242187 12.1759122097215  11.8176248242187 10.707280555853  C 11.8176248242187 8.63638229648444  13.496419562897 6.95758755780616  15.5673178222656 6.95758755780616  C 17.6382160816342 6.95758755780616  19.3170108203125 8.63638229648444  19.3170108203125 10.707280555853  C 19.3170108203125 12.1759122097215  18.4596329349128 13.5093493993148  17.1234404101562 14.1188315332031  C 20.4840290610958 15.2442130676343  22.8318447980445 18.28822652019  23.0667038183594 21.824450625  C 23.0833951624887 21.9014487805511  23.091812484294 21.9800098478944  23.091812484294 22.0587963754681  Z " fill-rule="nonzero" fill="#ffffff" stroke="none" transform="matrix(1 0 0 1 219 389 )" />
  </g>
</svg>