<?xml version="1.0" encoding="utf-8"?>
<svg version="1.1" xmlns:xlink="http://www.w3.org/1999/xlink" width="12px" height="14px" xmlns="http://www.w3.org/2000/svg">
  <g transform="matrix(1 0 0 1 -229 -512 )">
    <path d="M 6.88441875 6.83125  L 10.16566875 6.83125  C 10.6834357029664 6.83125  11.10316875 6.41151695296637  11.10316875 5.89375  C 11.10316875 5.37598304703363  10.6834357029664 4.95625  10.16566875 4.95625  L 7.87816875 4.95625  L 10.40941875 1.95625  C 10.5966543293382 1.77917212567985  10.7027396630772 1.53282754138917  10.7027396630772 1.27511891572088  C 10.7027396630772 0.757351962754514  10.2830066160435 0.337618915720883  9.76523966307715 0.337618915720883  C 9.45128873815581 0.337618915720883  9.15817808440374 0.494767922284268  8.98441875 0.756250000000001  L 6.00316875 4.3  L 3.02191875 0.75625  C 2.84784169878596 0.591616791365915  2.61733706111087 0.499881084279117  2.37773966307715 0.499881084279117  C 1.85997271011078 0.499881084279117  1.44023966307715 0.919614131312748  1.44023966307715 1.43738108427912  C 1.44023966307715 1.62199133534548  1.49474432781145 1.80249261887889  1.59691875 1.95625  L 4.10941875 4.95625  L 1.72816875 4.95625  C 1.21040179703363 4.95625  0.79066875 5.37598304703363  0.79066875 5.89375  C 0.79066875 6.41151695296637  1.21040179703363 6.83125  1.72816875 6.83125  L 5.00941875 6.83125  L 5.00941875 8.2375  L 1.72816875 8.2375  C 1.21040179703363 8.2375  0.79066875 8.65723304703363  0.79066875 9.175  C 0.79066875 9.69276695296637  1.21040179703363 10.1125  1.72816875 10.1125  L 5.00941875 10.1125  L 5.00941875 12.625  C 5.00941875 13.1427669529664  5.42915179703363 13.5625  5.94691875 13.5625  C 6.46468570296637 13.5625  6.88441875 13.1427669529664  6.88441875 12.625  L 6.88441875 10.1125  L 10.16566875 10.1125  C 10.6834357029664 10.1125  11.10316875 9.69276695296637  11.10316875 9.175  C 11.10316875 8.65723304703363  10.6834357029664 8.2375  10.16566875 8.2375  L 6.88441875 8.2375  L 6.88441875 6.83125  Z " fill-rule="nonzero" fill="#ffffff" stroke="none" transform="matrix(1 0 0 1 229 512 )" />
  </g>
</svg>