<?xml version="1.0" encoding="utf-8"?>
<svg version="1.1" xmlns:xlink="http://www.w3.org/1999/xlink" width="35px" height="30px" xmlns="http://www.w3.org/2000/svg">
  <g transform="matrix(1 0 0 1 -124 -505 )">
    <path d="M 24.9675619873047 7.19707537841797  C 24.9675619873047 3.27940654296875  21.791665234375 0.103584753417968  17.8740338989258 0.103584753417968  C 13.9564025634766 0.103584753417968  10.7805058105469 3.27944400634766  10.7805058105469 7.19711284179687  C 10.7805058105469 11.1147816772461  13.9563651000977 14.2906034667969  17.8740338989258 14.2906034667969  C 21.7917026977539 14.2906034667969  24.9675619873047 11.1147442138672  24.9675619873047 7.19707537841797  Z M 21.4182683227539 8.67987005615235  C 21.4182683227539 9.07755041503907  21.0958744873047 9.39990686035156  20.698194128418 9.39990686035156  L 18.730066027832 9.39990686035156  L 18.730066027832 11.2721  C 18.730066027832 11.6697803588867  18.4077095825195 11.9921368041992  18.0100292236328 11.9921368041992  C 17.6123488647461 11.9921368041992  17.2899924194336 11.6697803588867  17.2899924194336 11.2721  L 17.2899924194336 9.39990686035156  L 15.2258543579102 9.39990686035156  C 14.8281739990234 9.39990686035156  14.5058175537109 9.07755041503906  14.5058175537109 8.67987005615234  C 14.5058175537109 8.28218969726562  14.8281739990234 7.95983325195313  15.2258543579102 7.95983325195313  L 17.2899548828125 7.95983325195313  L 17.2899548828125 6.50364555664062  L 15.0498361694336 6.50364555664062  C 14.6521558105469 6.50364555664062  14.3297993652344 6.18128911132812  14.3297993652344 5.78360875244141  C 14.3297993652344 5.38592839355469  14.6521558105469 5.06357194824219  15.0498361694336 5.06357194824219  L 16.2764920043945 5.06357194824219  L 15.3130951782227 3.48757797851562  C 15.1112944946289 3.14491030273437  15.2255170410156 2.7035345703125  15.5681847167969 2.50173388671875  C 15.9108523925781 2.299933203125  16.352228125 2.41415574951172  16.5540288085938 2.75682342529297  L 17.9254114990234 5.06357194824219  L 17.9763020019531 5.06357194824219  L 19.3269612548828 2.77323729248047  C 19.5287619384766 2.43056961669922  19.9701376708984 2.31638453369141  20.3128053466797 2.51814775390625  C 20.6554730224609 2.7199484375  20.7696581054688 3.16132416992187  20.5678948852539 3.50399184570312  L 19.6127424926758 5.06357194824219  L 20.5222133666992 5.06357194824219  C 20.9198937255859 5.06357194824219  21.2422501708984 5.38592839355469  21.2422501708984 5.78360875244141  C 21.2422501708984 6.18128911132813  20.9198937255859 6.50364555664063  20.5222133666992 6.50364555664063  L 18.7301034179687 6.50364555664063  L 18.7301034179687 7.95983325195313  L 20.6982315185547 7.95983325195313  C 21.0959118774414 7.95983325195313  21.4182683227539 8.28218969726563  21.4182683227539 8.67987005615235  Z M 23.8585013549805 27  L 25.3833051147461 29.02310234375  L 33.8525629638672 29.02310234375  L 26.0737370239258 17.2987264648437  C 25.7802360229492 16.8022630493164  25.2398523803711 16.4691139282227  24.6213342651367 16  L 11.9549220947266 16  C 11.0235660522461 16.5065885131836  10.2685654418945 17.2615891235352  10.2685654418945 18.1929451660156  C 10.2685654418945 19.1243012084961  11.0235660522461 19.8793018188477  11.9549220947266 19.8793018188477  L 16.7300845336914 19.8651739135742  L 16.7300845336914 21.7905060546875  L 9.8093517578125 21.7905060546875  L 4.03530405273438 12.871553112793  C 3.47266053466797 12.1293688232422  2.41486522216797 11.9838549804687  1.67268089599609 12.5464984985352  C 0.930496606445313 13.1091420166016  0.784982763671875 14.1669373291016  1.34762628173828 14.9091216552734  L 8.26247551269531 25.5902048706055  C 8.36058400878906 25.7196421264648  8.4740195678711 25.8304919433594  8.59798552246094 25.9230167114258  C 9.05525048828125 26.5666053710938  9.80620384521485 26.9869578491211  10.6558277954102 26.9869578491211  C 10.8010043579102 26.9869578491211  10.9430705444336 26.9740291015625  11.0815391479492 27  L 23.8585013549805 27  Z " fill-rule="nonzero" fill="#ffffff" stroke="none" transform="matrix(1 0 0 1 124 505 )" />
  </g>
</svg>