<?xml version="1.0" encoding="utf-8"?>
<svg version="1.1" xmlns:xlink="http://www.w3.org/1999/xlink" width="32px" height="26px" xmlns="http://www.w3.org/2000/svg">
  <g transform="matrix(1 0 0 1 -216 -506 )">
    <path d="M 31 2.29375  C 31.0117355556069 1.12784075331969  30.0690779966803 0.185183194393068  28.90316875 0.175  L 1.95941875 0.175  C 1.61696334120695 0.17804431214411  1.30228215017801 0.363992288661213  1.13441875 0.6625  C 0.95440618710662 0.949076381760445  0.95440618710662 1.31342361823955  1.13441875 1.6  L 3.32816875 5.06875  L 1.17191875 8.5375  C 0.986284964824014 8.84274252664244  0.986284964824014 9.22600747335756  1.17191875 9.53125  L 3.32816875 13  L 1.17191875 16.46875  C 0.986284964824014 16.7739925266424  0.986284964824014 17.1572574733576  1.17191875 17.4625  L 3.32816875 20.93125  L 1.17191875 24.4  C 0.99190618710662 24.6865763817604  0.99190618710662 25.0509236182396  1.17191875 25.3375  C 1.33978215017801 25.6360077113388  1.65446334120695 25.8219556878559  1.99691875 25.825  L 28.90316875 25.825  C 30.0690779966803 25.8148168056069  31.0117355556069 24.8721592466803  31 23.70625  L 31 2.29375  Z M 29 2.29375  L 29 23.70625  C 29.14691875 23.8408694077713  29.0377881577713 23.95  28.90316875 24  L 9.51566875 24  L 9.51566875 23.03125  C 9.51566875 22.5134830470336  9.09593570296637 22.09375  8.57816875 22.09375  C 8.06040179703363 22.09375  7.64066875 22.5134830470336  7.64066875 23.03125  L 7.64066875 23.95  L 3.62816875 23.95  L 5.22191875 21.41875  C 5.40755253517598 21.1135074733576  5.40755253517598 20.7302425266424  5.22191875 20.425  L 3.04691875 16.95625  L 5.22191875 13.4875  C 5.40859076713524 13.1893049553703  5.40859076713524 12.8106950446297  5.22191875 12.5125  L 3.04691875 9.04375  L 5.22191875 5.5  C 5.40755253517599 5.19475747335756  5.40755253517599 4.81149252664244  5.22191875 4.50625  L 3.62816875 2.05  L 7.64066875 2.05  L 7.64066875 2.96875  C 7.64066875 3.48651695296637  8.06040179703363 3.90625  8.57816875 3.90625  C 9.09593570296637 3.90625  9.51566875 3.48651695296637  9.51566875 2.96875  L 9.51566875 2  L 28.90316875 2  C 29.0377881577713 2.05  29.14691875 2.15913059222874  29 2.29375  Z " fill-rule="nonzero" fill="#ffffff" stroke="none" transform="matrix(1 0 0 1 216 506 )" />
  </g>
</svg>