<?xml version="1.0" encoding="utf-8"?>
<svg version="1.1" xmlns:xlink="http://www.w3.org/1999/xlink" width="26px" height="26px" xmlns="http://www.w3.org/2000/svg">
  <g transform="matrix(1 0 0 1 -312 -141 )">
    <path d="M 25.8468665380117 1.65100552436647  L 25.8468665380117 1.52209580116959  C 25.8211569581558 1.33031255137655  25.7611148508355 1.14472785602297  25.669615668616 0.974229477582846  L 25.5729333762183 0.845319754385966  C 25.4839235647076 0.706901106517828  25.3753769265187 0.582072472600618  25.2506590682261 0.474704300194932  C 25.0599876093407 0.281453003177648  24.8288524966056 0.132866144990799  24.5738830214425 0.0396339844054588  L 24.428859582846 0.0396339844054588  C 24.2736761682588 0.0205831269361943  24.1167452508445 0.0205831269361946  23.9615618362573 0.0396339844054588  L 23.768197251462 0.0396339844054588  C 23.5730010447853 0.063852502477056  23.3827445295786 0.118211506821834  23.2042172124756 0.20077113840156  L 0.999517442495127 11.8187599161793  C 0.395064332167684 12.067054292112  0.000414079782117068 12.6558157686677  0.000414079782117068 13.3092785906433  C 0.000414079782117068 13.9627414126189  0.395064332167683 14.5515028891745  0.999517442495127 14.7997972651072  L 4.35117024561404 16.5884196744639  C 5.21477795505762 17.0538367965103  6.29124919713907 16.7724064035309  6.81656867641326 15.9438710584795  C 6.97740818833286 15.6873408107722  7.06271658643371 15.3906844962651  7.06271658643371 15.0879022038778  C 7.06271658643371 14.4582200134794  6.69593084834107 13.8862266725929  6.12367891423002 13.6234960409357  L 5.59192630604289 13.3334491637427  L 16.8715270604288 7.4197156374269  L 9.50755914814815 16.1533493586745  C 9.24848648915739 16.4471092148256  9.10527989186785 16.82517463167  9.1047162631579 17.2168545750487  L 9.1047162631579 24.1618658869396  C 9.1047162631579 25.1630438057504  9.91633132680323 25.9746588693957  10.917509245614 25.9746588693957  C 11.9186871644248 25.9746588693957  12.7303022280702 25.1630438057504  12.7303022280702 24.1618658869396  L 12.7303022280702 20.1173233469786  L 19.8525644093567 24.0490698791423  C 20.3854747207149 24.3138165973394  21.0115942149576 24.3138165973394  21.5445045263158 24.0490698791423  C 22.0787741225531 23.8182475381984  22.4605385156482 23.3334673564904  22.5596685964912 22.7599726471735  L 25.8468665380117 1.97327983235867  C 25.8576360062632 1.86612497621264  25.8576360062632 1.75816038051251  25.8468665380117 1.65100552436647  Z M 21.3027987953216 7.64530765302144  L 19.4013803781676 19.8272764697856  L 13.6971251520468 16.6045333898635  L 21.3027987953216 7.64530765302144  Z " fill-rule="nonzero" fill="#ffffff" stroke="none" transform="matrix(1 0 0 1 312 141 )" />
  </g>
</svg>