<?xml version="1.0" encoding="utf-8"?>
<svg version="1.1" xmlns:xlink="http://www.w3.org/1999/xlink" width="17px" height="8px" xmlns="http://www.w3.org/2000/svg">
  <g transform="matrix(1 0 0 1 -42 -141 )">
    <path d="M 3.5 6.375  C 3.3125 7.125  2.75 7.875  1.8125 7.875  C 1.0625 7.875  0.5 7.125  0.5 6.375  L 0.5 2.25  C 0.5 1.5  1.0625 0.75  2 0.75  C 2.75 0.75  3.5 1.3125  3.5 2.25  L 3.5 6.375  Z M 16.0625 6.375  C 16.0625 7.125  15.3125 7.875  14.5625 7.875  C 13.8125 7.875  13.0625 7.3125  13.0625 6.375  L 13.0625 2.25  C 13.0625 1.5  13.625 0.75  14.5625 0.75  C 15.3125 0.75  16.0625 1.3125  16.0625 2.25  L 16.0625 6.375  Z " fill-rule="nonzero" fill="#ffffff" stroke="none" transform="matrix(1 0 0 1 42 141 )" />
  </g>
</svg>