<?xml version="1.0" encoding="utf-8"?>
<svg version="1.1" xmlns:xlink="http://www.w3.org/1999/xlink" width="37px" height="24px" xmlns="http://www.w3.org/2000/svg">
  <g transform="matrix(1 0 0 1 -295 -142 )">
    <path d="M 0.00579890909091422 9  L 0.00579890909091422 13.5656152666667  L 27.7269093090909 13.5069771333333  L 27.7269093090909 16.0383962  C 27.7269093090909 17.5817009333333  26.4183336727273 18.8380533333333  24.8169999090909 18.8380533333333  L 18.8230422909091 18.8380533333333  L 18.8230422909091 23.9345771333333  L 26.4864755636364 23.9345771333333  C 30.4954867818182 23.9345771333333  33.7650334909091 20.7918247333333  33.7650334909091 16.9354342666667  L 33.7650334909091 13.5656152666667  L 36.3291852909091 13.5643676  L 36.3304473272727 8.70863426666667  L 33.7650334909091 8.70863426666667  L 33.7650334909091 5.44985333333333  L 36.3304473272727 5.44985333333333  L 36.3304473272727 1  L 0.0613217818181743 1  L 0.0613217818181743 5.44985333333333  L 27.7269093090909 5.44985333333333  L 27.7269093090909 9  L 0.00579890909091422 9  Z " fill-rule="nonzero" fill="#5183f5" stroke="none" transform="matrix(1 0 0 1 295 142 )" />
  </g>
</svg>