<?xml version="1.0" encoding="utf-8"?>
<svg version="1.1" xmlns:xlink="http://www.w3.org/1999/xlink" width="19px" height="10px" xmlns="http://www.w3.org/2000/svg">
  <g transform="matrix(1 0 0 1 -339 -115 )">
    <path d="M 18.3517383214286 0.000267346938571429  L 18.3517383214286 9.56861428571429  L 16.7975905714286 9.56861428571429  L 16.7975905714286 2.71651224285714  L 16.7466766785714 2.71651224285714  L 13.8153071428571 9.56861428571429  L 12.88485475 9.56861428571429  L 10.0425850357143 2.71651224285714  L 9.99167114285713 2.71651224285714  L 9.99167114285713 9.56861428571429  L 8.51389389285713 9.56861428571429  L 8.51389389285713 0.000267346938571429  L 10.4002552857143 0.000267346938571429  L 13.3939943571429 7.10634897857143  L 13.44618125 7.10634897857143  L 16.4908342142857 0.000267346938571429  L 18.3517383214286 0.000267346938571429  Z M 7.39251457142856 0.000267346938571429  L 7.39251457142856 1.4586449  L 4.55024485714286 1.4586449  L 4.55024485714286 9.56861428571429  L 2.97063982142858 9.56861428571429  L 2.97063982142858 1.4586449  L 0.180556321428558 1.4586449  L 0.180556321428558 0.000267346938571429  L 7.39251457142856 0.000267346938571429  Z " fill-rule="nonzero" fill="#5183f5" stroke="none" transform="matrix(1 0 0 1 339 115 )" />
  </g>
</svg>