<?xml version="1.0" encoding="utf-8"?>
<svg version="1.1" xmlns:xlink="http://www.w3.org/1999/xlink" width="16px" height="16px" xmlns="http://www.w3.org/2000/svg">
  <g transform="matrix(1 0 0 1 -280 -184 )">
    <path d="M 4.78282 7.5215616  L 4.78282 13.67422016  L 10.934116 13.67422016  L 10.934116 7.5215616  L 4.78282 7.5215616  Z M 9.94620733333333 2.70675008  C 9.60481600000001 3.32716608  9.22966066666667 3.89847616  8.80448466666667 4.42067904  L 7.76405400000001 3.78469312  C 8.61690666666667 2.77262464  9.22966066666667 1.67911104  9.60481600000001 0.471815040000001  L 10.7815526666667 0.71614912  C 10.6790106666667 1.04192704  10.5589606666667 1.36890304  10.422654 1.67911104  L 15.398464 1.67911104  L 15.398464 2.70675008  L 12.5697926666667 2.70675008  C 12.9624553333333 3.2289536  13.2850893333333 3.73558656  13.5414453333333 4.19191616  L 12.450994 4.58356864  C 12.1108533333333 3.93081408  11.7181906666667 3.31039808  11.258 2.70675008  L 9.94620733333333 2.70675008  Z M 12.774878 15.42048704  L 11.2067286666667 15.42048704  L 10.9166086666667 14.35931264  L 12.518522 14.39284864  C 12.944948 14.39284864  13.16629 14.14731712  13.16629 13.67422016  L 13.16629 6.06873408  L 6.55480333333333 6.06873408  L 6.55480333333333 4.99198912  L 14.3767906666667 4.99198912  L 14.3767906666667 14.00119616  C 14.3767906666667 14.94739008  13.8315653333333 15.42048704  12.774878 15.42048704  Z M 3.09587133333334 4.32246656  C 3.99874533333334 5.0734336  4.69778466666666 5.72618816  5.17548266666667 6.2974976  L 4.271358 6.9011456  C 3.76114666666666 6.2974976  3.06210733333334 5.61240512  2.19299800000001 4.86143808  L 3.09587133333334 4.32246656  Z M 1.37515933333333 6.75502464  L 1.37515933333333 15.4863616  L 2.58440999999999 15.4863616  L 2.58440999999999 6.75502464  L 1.37515933333333 6.75502464  Z M 2.70445933333334 2.70675008  C 2.26177666666666 3.42537856  1.78407866666667 4.09490112  1.23885333333334 4.69854912  L 0.199672666666667 4.06136512  C 1.221346 2.96785216  1.971656 1.76055616  2.44810333333334 0.455047039999999  L 3.64109733333333 0.699381119999998  C 3.50479066666666 1.04192704  3.36848466666667 1.36890304  3.232178 1.67911104  L 7.73154066666666 1.67911104  L 7.73154066666666 2.70675008  L 5.17548266666667 2.70675008  C 5.60065866666667 3.27806016  5.94204999999999 3.81703104  6.179648 4.32246656  L 5.08919666666666 4.71411904  C 4.749056 4.01225856  4.34013666666668 3.34393408  3.879946 2.70675008  L 2.70445933333334 2.70675008  Z M 9.79239333333334 12.67891904  L 5.95830666666666 12.67891904  L 5.95830666666666 11.04643456  L 9.79239333333334 11.04643456  L 9.79239333333334 12.67891904  Z M 9.79239333333334 10.10024064  L 5.95830666666666 10.10024064  L 5.95830666666666 8.50129216  L 9.79239333333334 8.50129216  L 9.79239333333334 10.10024064  Z " fill-rule="nonzero" fill="#5183f5" stroke="none" transform="matrix(1 0 0 1 280 184 )" />
  </g>
</svg>