<?xml version="1.0" encoding="utf-8"?>
<svg version="1.1" xmlns:xlink="http://www.w3.org/1999/xlink" width="105px" height="40px" xmlns="http://www.w3.org/2000/svg">
  <g transform="matrix(1 0 0 1 -619 -3571 )">
    <path d="M 708.053521825875 3571.5  C 708.053521825875 3571.5  711.712847615341 3572.19701443609  711.712847615341 3572.19701443609  C 711.712847615341 3572.19701443609  723.441442571048 3591  723.441442571048 3591  C 723.441442571048 3591  711.712847615341 3609.80298556391  711.712847615341 3609.80298556391  C 711.712847615341 3609.80298556391  708.053521825875 3610.5  708.053521825875 3610.5  C 708.053521825875 3610.5  619.5 3610.5  619.5 3610.5  C 619.5 3610.5  619.5 3571.5  619.5 3571.5  C 619.5 3571.5  708.053521825875 3571.5  708.053521825875 3571.5  Z " fill-rule="nonzero" fill="#ffffff" stroke="none" />
    <path d="M 708.053521825875 3571.5  C 708.053521825875 3571.5  711.712847615341 3572.19701443609  711.712847615341 3572.19701443609  C 711.712847615341 3572.19701443609  723.441442571048 3591  723.441442571048 3591  C 723.441442571048 3591  711.712847615341 3609.80298556391  711.712847615341 3609.80298556391  C 711.712847615341 3609.80298556391  708.053521825875 3610.5  708.053521825875 3610.5  C 708.053521825875 3610.5  619.5 3610.5  619.5 3610.5  C 619.5 3610.5  619.5 3571.5  619.5 3571.5  C 619.5 3571.5  708.053521825875 3571.5  708.053521825875 3571.5  Z " stroke-width="1" stroke="#f2f2f2" fill="none" />
  </g>
</svg>