<?xml version="1.0" encoding="utf-8"?>
<svg version="1.1" xmlns:xlink="http://www.w3.org/1999/xlink" width="98px" height="40px" xmlns="http://www.w3.org/2000/svg">
  <g transform="matrix(1 0 0 1 -443 -3571 )">
    <path d="M 525.0350465843 3571.5  C 525.0350465843 3571.5  528.709356599735 3572.24985918682  528.709356599735 3572.24985918682  C 528.709356599735 3572.24985918682  540.438168087126 3591  540.438168087126 3591  C 540.438168087126 3591  528.709356599735 3609.75014081318  528.709356599735 3609.75014081318  C 528.709356599735 3609.75014081318  525.0350465843 3610.5  525.0350465843 3610.5  C 525.0350465843 3610.5  443.5 3610.5  443.5 3610.5  C 443.5 3610.5  443.5 3571.5  443.5 3571.5  C 443.5 3571.5  525.0350465843 3571.5  525.0350465843 3571.5  Z " fill-rule="nonzero" fill="#ffffff" stroke="none" />
    <path d="M 525.0350465843 3571.5  C 525.0350465843 3571.5  528.709356599735 3572.24985918682  528.709356599735 3572.24985918682  C 528.709356599735 3572.24985918682  540.438168087126 3591  540.438168087126 3591  C 540.438168087126 3591  528.709356599735 3609.75014081318  528.709356599735 3609.75014081318  C 528.709356599735 3609.75014081318  525.0350465843 3610.5  525.0350465843 3610.5  C 525.0350465843 3610.5  443.5 3610.5  443.5 3610.5  C 443.5 3610.5  443.5 3571.5  443.5 3571.5  C 443.5 3571.5  525.0350465843 3571.5  525.0350465843 3571.5  Z " stroke-width="1" stroke="#f2f2f2" fill="none" />
  </g>
</svg>