<?xml version="1.0" encoding="utf-8"?>
<svg version="1.1" xmlns:xlink="http://www.w3.org/1999/xlink" width="34px" height="6px" xmlns="http://www.w3.org/2000/svg">
  <g transform="matrix(1 0 0 1 -4 -9 )">
    <path d="M 0.5 3.25  C 0.5 1.73121694  1.73121694 0.5  3.25 0.5  C 4.76878306 0.5  6 1.73121694  6 3.25  C 6 4.76878306  4.76878306 6  3.25 6  C 1.73121694 6  0.5 4.76878306  0.5 3.25  Z M 7.5 3.25  C 7.5 1.73121694  8.73121694 0.5  10.25 0.5  C 11.7687831 0.5  13 1.73121694  13 3.25  C 13 4.76878306  11.7687831 6  10.25 6  C 8.73121694 6  7.5 4.76878306  7.5 3.25  Z M 14.5 3.25  C 14.5 1.73121694  15.7312169 0.5  17.25 0.5  C 18.7687831 0.5  20 1.73121694  20 3.25  C 20 4.76878306  18.7687831 6  17.25 6  C 15.7312169 6  14.5 4.76878306  14.5 3.25  Z M 21.5 3.25  C 21.5 1.73121694  22.7312169 0.5  24.25 0.5  C 25.7687831 0.5  27 1.73121694  27 3.25  C 27 4.76878306  25.7687831 6  24.25 6  C 22.7312169 6  21.5 4.76878306  21.5 3.25  Z M 28.5 3.25  C 28.5 1.73121694  29.7312169 0.5  31.25 0.5  C 32.7687831 0.5  34 1.73121694  34 3.25  C 34 4.76878306  32.7687831 6  31.25 6  C 29.7312169 6  28.5 4.76878306  28.5 3.25  Z " fill-rule="nonzero" fill="#ffffff" stroke="none" transform="matrix(1 0 0 1 4 9 )" />
  </g>
</svg>