<?xml version="1.0" encoding="utf-8"?>
<svg version="1.1" xmlns:xlink="http://www.w3.org/1999/xlink" width="10px" height="10px" xmlns="http://www.w3.org/2000/svg">
  <g transform="matrix(1 0 0 1 -30 -161 )">
    <path d="M 35 163  C 36.68 163  38 164.32  38 166  C 38 167.68  36.68 169  35 169  C 33.32 169  32 167.68  32 166  C 32 164.32  33.32 163  35 163  Z " fill-rule="nonzero" fill="#ffffff" stroke="none" />
    <path d="M 35 162.5  C 36.96 162.5  38.5 164.04  38.5 166  C 38.5 167.96  36.96 169.5  35 169.5  C 33.04 169.5  31.5 167.96  31.5 166  C 31.5 164.04  33.04 162.5  35 162.5  Z " stroke-width="3" stroke="#f95e5a" fill="none" />
  </g>
</svg>