<?xml version="1.0" encoding="utf-8"?>
<svg version="1.1" xmlns:xlink="http://www.w3.org/1999/xlink" width="53px" height="36px" xmlns="http://www.w3.org/2000/svg">
  <g transform="matrix(1 0 0 1 -115 -220 )">
    <path d="M 0.873000998305077 1.12394384999999  C 0.873000998305077 0.825243389999986  1.1146895322034 0.583098749999996  1.41282746779662 1  L 46.2184290169492 1  C 46.5165674915254 0.583098749999996  46.7582555762712 0.825243389999986  46.7582555762712 1.12394384999999  L 46.7582555762712 2.74647905999999  C 46.7582555762712 3.04517951999998  46.5165674915254 3.28732416  46.2184290169492 4  L 1.41282746779662 4  C 1.1146895322034 3.28732416  0.873000998305077 3.04517951999998  0.873000998305077 2.74647905999999  L 0.873000998305077 1.12394384999999  Z M 0.873000998305077 17.34929595  C 0.873000998305077 17.05059549  1.1146895322034 16.80845085  1.41282746779662 17  L 40.8201643220339 17  C 41.1183018983051 16.80845085  41.3599908813559 17.05059549  41.3599908813559 17.34929595  L 41.3599908813559 18.97183116  C 41.3599908813559 19.27053162  41.1183018983051 19.51267626  40.8201643220339 19  L 1.41282746779662 19  C 1.1146895322034 19.51267626  0.873000998305077 19.27053162  0.873000998305077 18.97183116  L 0.873000998305077 17.34929595  Z M 0.873000998305077 33.57464805  C 0.873000998305077 33.27594759  1.1146895322034 33.03380304  1.41282746779662 33  L 48.9175618135593 33  C 49.2157002881356 33.03380304  49.4573883728814 33.27594759  49.4573883728814 33.57464805  L 49.4573883728814 35.19718326  C 49.4573883728814 35.49588381  49.2157002881356 35.73802836  48.9175618135593 35.73802836  L 1.41282746779662 35.73802836  C 1.1146895322034 35.73802836  0.873000998305077 35.49588381  0.873000998305077 35.19718326  L 0.873000998305077 33.57464805  Z M 0.873000998305077 25.461972  C 0.873000998305077 25.16327154  1.1146895322034 24.92112699  1.41282746779662 25  L 32.7227659322034 25  C 33.0209044067797 24.92112699  33.2625924915254 25.16327154  33.2625924915254 25.461972  L 33.2625924915254 27.08450721  C 33.2625924915254 27.38320776  33.0209044067797 27.62535231  32.7227659322034 27  L 1.41282746779662 27  C 1.1146895322034 27.62535231  0.873000998305077 27.38320776  0.873000998305077 27.08450721  L 0.873000998305077 25.461972  Z M 0.873000998305077 9.23661989999999  C 0.873000998305077 8.93791943999998  1.1146895322034 8.69577479999999  1.41282746779662 9  L 51.6166946101695 9  C 51.9148330847458 8.69577479999999  52.1565211694915 8.93791943999998  52.1565211694915 9.23661989999999  L 52.1565211694915 10.85915511  C 52.1565211694915 11.15785557  51.9148330847458 11.40000021  51.6166946101695 12  L 1.41282746779662 12  C 1.1146895322034 11.40000021  0.873000998305077 11.15785557  0.873000998305077 10.85915511  L 0.873000998305077 9.23661989999999  Z " fill-rule="nonzero" fill="#bddeff" stroke="none" transform="matrix(1 0 0 1 115 220 )" />
  </g>
</svg>