<?xml version="1.0" encoding="utf-8"?>
<svg version="1.1" xmlns:xlink="http://www.w3.org/1999/xlink" width="28px" height="51px" xmlns="http://www.w3.org/2000/svg">
  <g transform="matrix(1 0 0 1 -111 -272 )">
    <path d="M 22.4375723870968 5.58880681578946  C 20.436775483871 2.97696681052631  18.9204481290323 1.25105371052631  17.8885903225806 0.411067605263159  C 11.9955603870968 4.71282696842105  7.98438967741936 7.78572057368419  5.85507819354838 9.62974833157894  C 2.66111187096774 12.395789968421  -1.29071148387097 19.7650236052631  1.39365935483871 25.6460044105263  C 4.07802929032258 31.5269852157895  4.43160154838709 32.7015279210526  4.43160154838709 36.2114127  C 4.43160154838709 38.5513358263158  4.43160154838709 43.4411786947368  4.43160154838709 50.8809412157894  C 8.22373819354839 50.8809412157894  15.9831532903226 50.8809412157894  27.7098459354839 50.8809412157894  C 27.7098459354839 45.0226109421053  27.7098459354839 38.1107027157895  27.7098459354839 30.1452164473684  C 27.7098459354839 18.1969871789473  25.4387686451613 9.50656686842103  22.4375723870968 5.58880681578946  Z " fill-rule="nonzero" fill="#ee3a33" stroke="none" transform="matrix(1 0 0 1 111 272 )" />
  </g>
</svg>