<?xml version="1.0" encoding="utf-8"?>
<svg version="1.1" xmlns:xlink="http://www.w3.org/1999/xlink" width="48px" height="16px" xmlns="http://www.w3.org/2000/svg">
  <g transform="matrix(1 0 0 1 -305 -323 )">
    <path d="M 0.690110408888914 13.3107184888889  C 3.75140348444443 12.4171656  10.0885303111111 10.7289494222222  19.7027462222222 8.24572231111112  L 22.7671958222222 0.189620444444447  C 22.8938061333333 -0.143224177777787  23.3930730666667 0.0466912888888752  23.2664627555555 0.379535911111109  L 20.3364921777778 8.08210737777778  C 27.5471221333333 6.2213528  36.5474962666667 3.92641182222224  47.3381212444445 1.19714400000001  C 47.4811243555555 1.1609743111111  47.6263726222222 1.24757991111111  47.6625423111111 1.39058302222222  C 47.6987120888889 1.53358613333333  47.6121064888889 1.67883439999999  47.4691033777778 1.71500408888889  C 41.5593023111111 3.20976737777778  36.1864904888889 4.57425635555556  31.3507512 5.808448  L 38.1551176888889 9.49059395555555  C 38.2848472888889 9.56079635555554  38.3331035555556 9.72287324444445  38.2629010666667 9.85260284444444  C 38.1926986666667 9.98233244444443  38.0306217777778 10.0305886222222  37.9008921777778 9.96038622222222  L 30.5881532444444 6.00313733333335  C 26.7134091555556 6.99264186666667  23.1917336888889 7.8964896  20.0231713777778 8.71466808888888  C 19.9931464888889 8.72928586666666  19.9608388444444 8.7372288888889  19.9281271111111 8.73921182222224  C 16.3455585777778 9.66441902222222  13.2164291555555 10.4796168  10.5408032888889 11.1847872  L 16.6416291555556 15.4664425777778  C 16.7623680888889 15.5511790222222  16.7915537777778 15.7177496888889  16.7068173333333 15.8384885333333  C 16.6220808888889 15.9592273777778  16.4555103111111 15.9884131555556  16.3347713777778 15.9036767111111  L 9.89404853333331 11.3834763555556  C 9.88470702222225 11.3769202666667  9.87591351111112 11.3698744  9.86767848888889 11.3623978666667  C 5.68092121777777 12.4684356444444  2.67153220444445 13.2888244444444  0.83978175111113 13.8234893333333  C 0.698184000000007 13.8648199111111  0.549891271111139 13.7835373333333  0.508560666666654 13.6419395555556  C 0.467230071111115 13.5003418666667  0.548512657777792 13.3520491555556  0.690110408888914 13.3107184888889  Z " fill-rule="nonzero" fill="#ffffff" stroke="none" transform="matrix(1 0 0 1 305 323 )" />
  </g>
</svg>