<?xml version="1.0" encoding="utf-8"?>
<svg version="1.1" xmlns:xlink="http://www.w3.org/1999/xlink" width="19px" height="22px" xmlns="http://www.w3.org/2000/svg">
  <g transform="matrix(1 0 0 1 -299 -185 )">
    <path d="M 13.2717193142857 20.21626332  C 13.0788479619047 20.802285064  12.6105352380952 21.176540176  11.866781052381 21.339028656  C 9.63803943333334 21.272705696  8.36429472380955 20.898450584  8.04554710476192 20.21626332  C 7.56742558571431 19.192982512  7.50474820476188 17.36863656  7.61136923809521 16.79286708  C 7.71799036190476 16.217097512  8.39279363809522 16.458087888  8.92563832380952 16.458087888  C 9.45848300952377 16.458087888  10.2856899 15.291613568  9.7336769285714 14.414606096  C 9.18166386666665 13.537598624  8.41800374285716 13.67496988  8.04554710476192 13.830693888  C 7.67309037619047 13.986417896  6.77743842857144 13.550255752  7.07752488095236 12.134015432  C 7.37761133333333 10.7177752  8.04750301904759 9.39131566560002  7.07752488095236 9.39131566560002  C 6.10754674285713 9.39131566560002  0.672435423809504 8.78512704080001  0.385736371428596 5.19676710080001  C 0.0990373190476356 1.60840716080001  2.24036970952379 -0.424822411199989  5.67845445238095 1.21232567280001  C 9.11653919523811 2.84947375680002  10.2235643333333 2.69725155920001  12.8139397380952 3.27205068960002  C 15.4043150523809 3.84684982000001  17.983041647619 4.55243853680002  18.5287955666666 8.97110139200001  C 19.0745495761905 13.389764256  17.2597742571429 15.638332512  15.1711656 17.242065984  C 13.0825570333333 18.845799456  13.561026252381 19.337230792  13.2717193142857 20.21626332  Z " fill-rule="nonzero" fill="#221e41" stroke="none" transform="matrix(1 0 0 1 299 185 )" />
  </g>
</svg>