<?xml version="1.0" encoding="utf-8"?>
<svg version="1.1" xmlns:xlink="http://www.w3.org/1999/xlink" width="150px" height="70px" xmlns="http://www.w3.org/2000/svg">
  <g transform="matrix(1 0 0 1 -132 -234 )">
    <path d="M 62.1148688622754 36.902328974359  C 60.0036332335329 36.9373675641025  58.0448595808383 37.2465405128205  56.1677110778443 37.8150078205128  C 52.9282904191617 38.7960183333333  49.7869823353293 40.5784525641025  46.2113694610778 43.3932755128205  C 43.2364841317365 45.7351883333333  40.3399616766467 48.4173917948718  34.8740595808383 53.7684287179487  C 23.2291553892216 65.1686152564102  11.8960483832335 70.4843353846154  0.88634739520959 69.6210298717949  L 1.05527155688623 67.4704261538461  C 11.3600305688623 68.2784541025641  22.1254068862276 63.2290247435897  33.3630098802395 52.2275797435897  C 38.8835775449102 46.823026025641  41.8196236526946 44.1042233333333  44.8751622754491 41.6988178205128  C 48.6465188622754 38.7299006410256  52.0153661676647 36.8183567948718  55.5414458083832 35.7505351538461  C 57.7135805389221 35.0927356410256  59.968398502994 34.7512428846154  62.3929473053892 34.7400838076923  C 63.1370497005988 32.5346771794872  65.2251422155689 30.9465917564103  67.6844910179641 30.9465917564103  C 70.7636065868263 30.9465917564103  73.2607724550898 33.4359393846154  73.2669628742515 36.5094755128205  C 76.556695508982 37.4842685897436  80.1827209580838 38.8690058974359  84.2557913173653 40.6815329487179  C 95.8497700598802 45.8408838461538  103.833827245509 46.1228824358974  109.508832035928 42.3775584615385  C 111.953421556886 40.7642065384615  114.019541317365 38.3873080769231  115.901957784431 35.159423025641  C 117.450498502994 32.5040556794872  118.776194011976 29.5103436025641  120.5205 24.9624372307692  C 126.755921856287 8.70490384615384  136.067916467066 0.0238918076922946  149.137240419162 0.0238918076922946  L 149.137240419162 2.18110864102563  C 137.113996706587 2.18110864102563  128.484866766467 10.2255271282051  122.536597904192 25.7343708461538  C 120.753806586826 30.3826192564102  119.388548802395 33.4656696410256  117.76744491018 36.2454665641025  C 115.730056886228 39.7390888461538  113.450523053892 42.3615024358974  110.698803592814 44.177551025641  C 104.313985329341 48.3913284615385  95.5812296407186 48.082886025641  83.3773670658683 42.6521352564102  C 79.4559709580838 40.9071034615385  75.9830982035928 39.5757124358974  72.8513353293413 38.6354571794872  C 72.0171934131736 40.6655998717948  70.017952994012 42.0952673076923  67.6844910179641 42.0952673076923  C 64.7299140718563 42.0952673076923  62.3111631736527 39.8032169230769  62.1148688622754 36.902328974359  Z M 64.261069760479 36.5209294871795  C 64.261069760479 38.4079724358974  65.7936062874251 39.9380503846154  67.6844910179641 39.9380503846154  C 69.575375748503 39.9380503846154  71.1079122754491 38.4079724358974  71.1079122754491 36.5209294871795  C 71.1079122754491 34.6338869871795  69.575375748503 33.1038085  67.6844910179641 33.1038085  C 65.7936062874251 33.1038085  64.261069760479 34.6338869871795  64.261069760479 36.5209294871795  Z " fill-rule="nonzero" fill="#f03c31" stroke="none" transform="matrix(1 0 0 1 132 234 )" />
  </g>
</svg>