<?xml version="1.0" encoding="utf-8"?>
<svg version="1.1" xmlns:xlink="http://www.w3.org/1999/xlink" width="44px" height="47px" xmlns="http://www.w3.org/2000/svg">
  <g transform="matrix(1 0 0 1 -105 -252 )">
    <path d="M 12.3710462857143 11.8845387653846  C 9.98670424489796 8.76809278211537  1.81171984489796 13.6491508730769  0.237391044897962 10.0535641038461  C -0.628673436734689 7.80931748423075  2.30242454693878 3.536162265  5.78375689795918 2.01754831999998  C 10.7880780408163 -0.165418414346165  19.2550339591837 -1.69712895634616  24.3877686530612 9.13980085057691  C 29.5205033469388 19.9767306846154  27.0505543673469 25.1508752711538  36.4646713469388 28.9947605096154  C 45.8787892244898 32.8386456576923  45.5512514285714 41.8065085865385  33.8369805714286 46.6138660769231  C 32.5154827755102 39.6675708538461  31.3380391836735 36.2562890711538  28.5005537142857 34.6457063576923  C 25.2191908571429 32.7831740884615  16.2709566530612 33.715826  17.2871276734694 25.3528059807692  C 18.3032977959184 16.9897859615384  12.3710462857143 22.1296848115384  12.3710462857143 11.8845387653846  Z " fill-rule="nonzero" fill="#021038" stroke="none" transform="matrix(1 0 0 1 105 252 )" />
  </g>
</svg>