<?xml version="1.0" encoding="utf-8"?>
<svg version="1.1" xmlns:xlink="http://www.w3.org/1999/xlink" width="28px" height="83px" xmlns="http://www.w3.org/2000/svg">
  <g transform="matrix(1 0 0 1 -73 -234 )">
    <path d="M 1 2.92463039247312  C 0.449492851612907 1.44361846451612  1.66455529032258 0.243021054838699  3.16341082580645 1  L 24.6033623612903 1  C 26.1022178064516 0.243021054838699  27.3172802451613 1.44361846451612  27 2.92463039247312  L 27 20.6232522172043  C 27.3172802451613 22.1042642344086  26.1022178064516 23.304861644086  24.6033623612903 24  L 3.16341082580645 24  C 1.66455529032258 23.304861644086  0.449492851612907 22.1042642344086  1 20.6232522172043  L 1 2.92463039247312  Z M 1 32.4223334634409  C 0.449492851612907 30.9413215354839  1.66455529032258 29.7407241258064  3.16341082580645 30  L 24.6033623612903 30  C 26.1022178064516 29.7407241258064  27.3172802451613 30.9413215354839  27 32.4223334634409  L 27 50.1209556451613  C 27.3172802451613 51.601967483871  26.1022178064516 52.8025642688172  24.6033623612903 52  L 3.16341082580645 52  C 1.66455529032258 52.8025642688172  0.449492851612907 51.601967483871  1 50.1209556451613  L 1 32.4223334634409  Z M 1 61.9200366236559  C 0.449492851612907 60.4390247849462  1.66455529032258 59.2384271075269  3.16341082580645 59  L 24.6033623612903 59  C 26.1022178064516 59.2384271075269  27.3172802451613 60.4390247849462  27 61.9200366236559  L 27 79.6186585376344  C 27.3172802451613 81.0996703763441  26.1022178064516 82.3002680537634  24.6033623612903 82  L 3.16341082580645 82  C 1.66455529032258 82.3002680537634  0.449492851612907 81.0996703763441  1 79.6186585376344  L 1 61.9200366236559  Z " fill-rule="nonzero" fill="#53a5ff" stroke="none" transform="matrix(1 0 0 1 73 234 )" />
  </g>
</svg>