<?xml version="1.0" encoding="utf-8"?>
<svg version="1.1" xmlns:xlink="http://www.w3.org/1999/xlink" width="195px" height="154px" xmlns="http://www.w3.org/2000/svg">
  <g transform="matrix(1 0 0 1 -109 -185 )">
    <path d="M 1 20.4332898895349  C 0.86089959633028 19.8389762232558  1.34222677293578 19.3571898197674  1.9359738646789 20  L 193.836736444954 20  C 194.430483715596 19.3571898197674  194.911810802752 19.8389762232558  195 20.4332898895349  L 195 152.524566290698  C 194.911810802752 153.118880046512  194.430483715596 153.600666360465  193.836736444954 153  L 1.9359738646789 153  C 1.34222677293578 153.600666360465  0.86089959633028 153.118880046512  1 152.524566290698  L 1 20.4332898895349  Z M 1 1.60153966244185  C 0.86089959633028 1.00722603197673  1.34222677293578 0.525439646395337  1.9359738646789 1  L 193.836736444954 1  C 194.430483715596 0.525439646395337  194.911810802752 1.00722603197673  195 1.60153966244185  L 195 12.9005897593023  C 194.911810802752 13.4949034255814  194.430483715596 13.9766897395349  193.836736444954 14  L 1.9359738646789 14  C 1.34222677293578 13.9766897395349  0.86089959633028 13.4949034255814  1 12.9005897593023  L 1 1.60153966244185  Z " fill-rule="nonzero" fill="#ffffff" stroke="none" transform="matrix(1 0 0 1 109 185 )" />
  </g>
</svg>