<?xml version="1.0" encoding="utf-8"?>
<svg version="1.1" xmlns:xlink="http://www.w3.org/1999/xlink" width="17px" height="21px" xmlns="http://www.w3.org/2000/svg">
  <g transform="matrix(1 0 0 1 -297 -190 )">
    <path d="M 14.3109774894737 20.7812587956522  L 6.26940977894738 20.7812587956522  C 6.05536626842107 17.4372453652174  5.41642073157895 15.5395825565217  4.35257316842108 15.0882704608696  C 2.75680186842103 14.4113023173913  1.73249138421054 14.072061926087  1.94078245263158 12.3585492130435  C 2.14907343157897 10.6450365  1.69773783684209 10.0680156652174  1.00260738947368 9.72857486086958  C 0.307476942105274 9.38913405652175  -0.250765478947361 8.30060553913045  1.73364541578948 7.13465056956523  C 3.05658595263158 6.35734716521741  3.81562145789471 4.49117489739131  4.01075175263159 1.53613368391306  C 11.1648517315789 -0.849277233913032  15.1312830526316 0.518328473478273  15.9100458947368 5.63895086086958  C 16.6888086473684 10.7595731478261  16.1557858157895 14.7603184826087  14.3109774894737 17.6411867739131  L 14.3109774894737 20.7812587956522  Z " fill-rule="nonzero" fill="#fe9f9f" stroke="none" transform="matrix(1 0 0 1 297 190 )" />
  </g>
</svg>