<?xml version="1.0" encoding="utf-8"?>
<svg version="1.1" xmlns:xlink="http://www.w3.org/1999/xlink" width="43px" height="26px" xmlns="http://www.w3.org/2000/svg">
  <g transform="matrix(1 0 0 1 -315 -294 )">
    <path d="M 17.84798876875 15.2394907241379  C 14.6017902166667 17.0761067862069  11.7683070083333 18.6871754482759  9.34759728333333 20.072662462069  L 16.4034127270833 22.6514549793104  C 16.543051375 22.702490737931  16.6149113625 22.8571537103448  16.5639164979167 22.9969044275862  C 16.51292154375 23.1366550551724  16.3583825 23.2085726689655  16.2187438520833 23.1575368206897  L 8.76982581250002 20.4350713517241  C 8.7590219729167 20.4311227586207  8.74862394583332 20.4265538413793  8.73865717291667 20.4214194689655  C 4.95146576666669 22.5919338965517  2.23590056249998 24.1768017310345  0.592205137499994 25.1758793448276  C 0.465144347916689 25.2531099241379  0.299583687500023 25.2126319586207  0.222414991666683 25.0854693655172  C 0.145246295833343 24.9583066827586  0.185691827083327 24.7926132551724  0.31275252708333 24.7153826758621  C 3.05976067500001 23.045685  8.78842089375003 19.7466272137931  17.4998644416667 14.8175429103448  L 18.3816584541667 6.1688880275862  C 18.4180904729166 5.81156151034483  18.953650725 5.86625349655172  18.91721870625 6.22357992413792  L 18.07412093125 14.492701062069  C 24.6081070083333 10.7975190206896  32.77110544375 6.21211652413792  42.56357284375 0.736224517241367  C 42.69334791875 0.663655110344838  42.8573333458333 0.710113703448271  42.9298446041667 0.839992848275856  C 43.0023559520833 0.969871903448273  42.9559344958333 1.13398883448276  42.8261595104167 1.20655833103448  C 37.4630285854167 4.20559055172415  32.5886608333333 6.93752154482758  28.203131325 9.40230702068965  L 35.7874473166667 11.2133664275862  C 35.9320470895833 11.2478954137931  36.0212995916667 11.3932019724138  35.9867981833333 11.5379177931034  C 35.9522968645833 11.6826335241379  35.8071067375 11.7719575103448  35.6625069645833 11.7374285241379  L 27.51154646875 9.79106009655173  C 23.99769450625 11.7665905724138  20.8052022375 13.5665009103448  17.93410970625 15.1907675310345  C 17.9086941979167 15.2128469103448  17.8793155229167 15.2290193586207  17.84798876875 15.2394907241379  Z " fill-rule="nonzero" fill="#ffffff" stroke="none" transform="matrix(1 0 0 1 315 294 )" />
  </g>
</svg>