<?xml version="1.0" encoding="utf-8"?>
<svg version="1.1" xmlns:xlink="http://www.w3.org/1999/xlink" width="52px" height="20px" xmlns="http://www.w3.org/2000/svg">
  <g transform="matrix(1 0 0 1 -81 -297 )">
    <path d="M 4.85390835172413 18.1488004545454  C 5.72576339310345 17.6625108181818  6.17127626206896 17.3925679090909  6.17127626206896 17.1400875454545  C 6.17127626206896 16.8876071818182  4.71867786896551 17.7605432727273  3.78010037241379 18.1488004545454  C 2.84152296551725 18.5370576363636  1.83492435862069 18.5250923636364  2.56253902068966 17.9519480909091  C 3.29015368275862 17.3788039090909  4.19825980689655 16.769312  5.18476803448276 15.9941577272727  C 5.8424401862069 15.4773882727273  5.210504 15.7136767272727  3.28895947586207 16.7030231818182  C 2.49345988965517 17.257305  0.216046910344824 18.7196081818182  1.14440470344827 17.3925679090909  C 1.76330995862069 16.5078743636364  3.05183651724138 15.3762453636363  4.98960531034483 14.3044855454545  C 3.31236853103449 14.5905192727273  1.93341415172414 16.4067308181818  0.982353068965521 16.5367259090909  C 0.348312317241384 16.6233892727273  0.226296648275862 16.4016803636364  0.61630597241379 15.8715991818182  C 2.10370500689655 14.2103305454545  3.62652572413793 13.1380734545454  5.18476803448276 12.6548280909091  C 7.25271425517241 12.6548280909091  10.6456642275862 12.6548280909091  15.363617862069 12.6548280909091  C 20.0815714965517 12.6548280909091  28.5627446896552 11.8992746363636  40.8071380689655 10.3881677272727  L 41.8183569655172 0.38032545454544  L 51.5578448965517 1.15016072727271  L 48.4652569655172 18.5250923636364  C 41.1739846206897 19.2551432727273  35.4657339310345 19.4631835454545  31.340504 19.1492131818182  C 25.1526598206897 18.6782576363636  16.8656461103448 17.5383663636363  12.661854937931 17.3925679090909  C 8.45806385517241 17.2467694545454  8.18861339310344 17.7784166363636  6.47925746896552 18.5250923636364  C 4.76990154482758 19.271768  3.02584987586207 19.1684261818182  4.85390835172413 18.1488004545454  Z " fill-rule="nonzero" fill="#fda0a2" stroke="none" transform="matrix(1 0 0 1 81 297 )" />
  </g>
</svg>