<?xml version="1.0" encoding="utf-8"?>
<svg version="1.1" xmlns:xlink="http://www.w3.org/1999/xlink" width="13px" height="74px" xmlns="http://www.w3.org/2000/svg">
  <g transform="matrix(1 0 0 1 -295 -259 )">
    <path d="M 11.8991722571429 0.387614942168676  L 12.1606739428571 0.481011055421718  L 11.4797657928571 2.23857417831329  L 11.2182640142857 2.14517806506024  L 11.8991722571429 0.387614942168676  Z M 10.2455379928571 4.6559824626506  L 10.5070397714286 4.74937857590364  L 9.82613152857141 6.50694169879521  L 9.56462984285715 6.41354558554217  L 10.2455379928571 4.6559824626506  Z M 8.59190382142856 8.92435007228917  L 8.85340559999998 9.01774618554218  L 8.17249735714286 10.7753092192771  L 7.91099567142855 10.6819131060241  L 8.59190382142856 8.92435007228917  Z M 6.93826965000001 13.1927175927711  L 7.19977133571427 13.2861137060241  L 6.51886318571431 15.0436768289157  L 6.25736140714284 14.9502807156627  L 6.93826965000001 13.1927175927711  Z M 5.28463547857141 17.4610854698795  L 5.54613716428572 17.5544814939759  L 4.86522901428571 19.3120439036145  L 4.60372723571429 19.2186478795181  L 5.28463547857141 17.4610854698795  Z M 3.6310012142857 21.7294527228916  L 3.89250299285712 21.822848746988  L 3.21159475 23.5804120481928  L 2.95009306428569 23.4870160240964  L 3.6310012142857 21.7294527228916  Z M 1.97831929285712 25.999778746988  L 2.24084640000001 26.0904840240964  C 2.02134511428569 26.676155686747  1.82335195714283 27.2688270361446  1.64718385 27.8674139277109  L 1.37869020714285 27.7945676144578  C 1.55662900714287 27.189964433735  1.75661199999998 26.5913356385542  1.97831929285712 25.999778746988  Z M 0.751239449999982 30.4232419759036  L 1.02597643571427 30.4699333012048  C 0.913052400000006 31.0824937108434  0.822490871428556 31.6986943855422  0.754465957142863 32.3173994698795  L 0.477000271428584 32.2892759036145  C 0.54570889285716 31.6643521445783  0.637180607142856 31.0419586506024  0.751239449999982 30.4232419759036  Z M 0.322403157142868 34.9815091325301  L 0.601407021428547 34.9828438072289  C 0.599915921428553 35.2702170120482  0.60326490714285 35.5576472771084  0.611457878571416 35.8450258313253  L 0.640463942857118 36.857136313253  L 0.361562128571425 36.8645051084337  L 0.332555507142847 35.8523750120482  C 0.324279614285696 35.5620899518072  0.320897014285728 35.2717701204819  0.322403157142868 34.9815091325301  Z M 0.438307907142867 39.5423760963855  L 0.71720972142856 39.5350073012048  L 0.770931757142863 41.4095173493976  L 0.492029942857118 41.4168861445783  L 0.438307907142867 39.5423760963855  Z M 0.568775721428559 44.0947571325301  L 0.847677535714305 44.0873883373494  L 0.901399571428556 45.9618974939759  L 0.622497757142863 45.9692662891566  L 0.568775721428559 44.0947571325301  Z M 0.699243628571415 48.6471372771084  L 0.978145349999997 48.6397684819277  L 1.03186747857141 50.5142785301205  L 0.752965664285719 50.5216473253012  L 0.699243628571415 48.6471372771084  Z M 0.82971144285716 53.199518313253  L 1.10861325714285 53.1921495180723  L 1.16233529285716 55.0666586746988  L 0.883433478571411 55.0740274698795  L 0.82971144285716 53.199518313253  Z M 0.960179257142853 57.7518984578313  L 1.23908107142855 57.7445296626506  L 1.29280310714285 59.6190397108434  L 1.01390129285716 59.6264085060241  L 0.960179257142853 57.7518984578313  Z M 1.09064716428571 62.3042794939759  L 1.3695489785714 62.2969106987952  L 1.42327101428571 64.1714198554217  L 1.14436920000001 64.1787886506024  L 1.09064716428571 62.3042794939759  Z M 1.2211149785714 66.8566596385542  L 1.50001679285715 66.8492908433735  L 1.5537388285714 68.7238008915663  L 1.2748370142857 68.731169686747  L 1.2211149785714 66.8566596385542  Z M 1.35158279285715 71.4090397831325  L 1.63048460714284 71.4016718795181  L 1.68420673571425 73.2761810361446  L 1.40530492142856 73.2835498313253  L 1.35158279285715 71.4090397831325  Z " fill-rule="nonzero" fill="#a587ff" stroke="none" transform="matrix(1 0 0 1 295 259 )" />
  </g>
</svg>