<?xml version="1.0" encoding="utf-8"?>
<svg version="1.1" xmlns:xlink="http://www.w3.org/1999/xlink" width="17px" height="48px" xmlns="http://www.w3.org/2000/svg">
  <g transform="matrix(1 0 0 1 -316 -278 )">
    <path d="M 0.813793847368438 46.9508179555555  C 1.57557986315788 43.8528839111111  3.29333233684211 37.5206631111111  5.96737999473682 27.9528943111111  L 0.486996405263169 21.2709521777778  C 0.260569736842103 20.9948820444444  0.677399178947356 20.6574619555555  0.903825936842126 20.933532  L 6.14371070526317 27.3222466666667  C 8.15068247894736 20.1472807111111  10.679923331579 11.2052575111111  13.7315658631579 0.495668319999999  C 13.7720078789474 0.35373912  13.9206058631579 0.271253217777788  14.0634688526316 0.311430888888885  C 14.2063317526316 0.351608551111111  14.2893603789474 0.499235342222215  14.2489183631579 0.641164533333343  C 12.5775970947368 6.5065839911111  11.0629738631579 11.84182  9.70507032105262 16.6467888888889  L 16.3394474631579 12.5951075555556  C 16.4659360526316 12.5178597333333  16.6315090736842 12.5571070222222  16.7092651947368 12.6827688888889  C 16.7870212263158 12.8084307555555  16.747515731579 12.9729216  16.6210271421053 13.0501695111111  L 9.49097795789473 17.4045626666667  C 8.40343382631579 21.2549418666667  7.41891649473686 24.7567261333333  6.53743732631578 27.9098708444444  C 6.53506877894735 27.9431820444445  6.52573282631578 27.9751328  6.51099794210525 28.0044535111111  C 5.51445320000002 31.5696523555556  4.65022187368419 34.6871568888889  3.91832087368422 37.3569020444444  L 10.7212194631579 34.2142594666667  C 10.8558527526316 34.1520648  11.0157450894737 34.2100744888889  11.0783490210526 34.3438278222222  C 11.1409528631579 34.4775812444444  11.082561531579 34.6364285333333  10.9479282421053 34.6986232  L 3.76601778421054 38.0163526222222  C 3.75560125789476 38.0211646222222  3.74503361052634 38.0252570666667  3.73437147894735 38.0286504888889  C 2.59137916315792 42.2075075555556  1.79193707368424 45.2239093333333  1.33611598421051 47.0775841777778  C 1.30088017368421 47.2208767111111  1.15539005789474 47.3086607111111  1.0111548105263 47.2736552  C 0.866919563157909 47.2386496888889  0.778558036842089 47.0941104888889  0.813793847368438 46.9508179555555  Z " fill-rule="nonzero" fill="#ffffff" stroke="none" transform="matrix(1 0 0 1 316 278 )" />
  </g>
</svg>