<?xml version="1.0" encoding="utf-8"?>
<svg version="1.1" xmlns:xlink="http://www.w3.org/1999/xlink" width="28px" height="6px" xmlns="http://www.w3.org/2000/svg">
  <g transform="matrix(1 0 0 1 -62 -209 )">
    <path d="M 5.86036676129033 2.85714299999998  C 5.86036676129033 4.27952631428571  4.64530432258065 5.43259577142856  3.14644878709678 5.43259577142856  C 1.64759334193549 5.43259577142856  0.432530912258064 4.27952631428571  0.432530912258064 2.85714299999998  C 0.432530912258064 1.43475977142856  1.64759334193549 0.281690314285713  3.14644878709678 0.281690314285713  C 4.64530432258065 0.281690314285713  5.86036676129033 1.43475977142856  5.86036676129033 2.85714299999998  Z M 16.7160383870968 2.85714299999998  C 16.7160383870968 4.27952631428571  15.5009759483871 5.43259577142856  14.0021205032258 5.43259577142856  C 12.5032649677419 5.43259577142856  11.2882025290323 4.27952631428571  11.2882025290323 2.85714299999998  C 11.2882025290323 1.43475977142856  12.5032649677419 0.281690314285713  14.0021205032258 0.281690314285713  C 15.5009759483871 0.281690314285713  16.7160383870968 1.43475977142856  16.7160383870968 2.85714299999998  Z M 27.5717101032258 2.85714299999998  C 27.5717101032258 4.27952631428571  26.3566476645161 5.43259577142856  24.8577921290323 5.43259577142856  C 23.358936683871 5.43259577142856  22.1438742451613 4.27952631428571  22.1438742451613 2.85714299999998  C 22.1438742451613 1.43475977142856  23.358936683871 0.281690314285713  24.8577921290323 0.281690314285713  C 26.3566476645161 0.281690314285713  27.5717101032258 1.43475977142856  27.5717101032258 2.85714299999998  Z " fill-rule="nonzero" fill="#e1dafe" stroke="none" transform="matrix(1 0 0 1 62 209 )" />
  </g>
</svg>