<?xml version="1.0" encoding="utf-8"?>
<svg version="1.1" xmlns:xlink="http://www.w3.org/1999/xlink" width="25px" height="23px" xmlns="http://www.w3.org/2000/svg">
  <g transform="matrix(1 0 0 1 -258 -192 )">
    <path d="M 3.72000000000008 2.32000000000001  C 2.75999999999999 2.44000000000001  1.84000000000003 2.16  0.880000000000024 1.48  C 0.360000000000042 5.72000000000001  1.48000000000002 8.92000000000002  4.24000000000001 11.04  C 7 13.16  8.20000000000002 15.16  7.84000000000003 17.08  C 9.40000000000001 15.04  10.36 14.68  10.72 15.96  C 11.08 17.24  10.5600000000001 18.16  9.20000000000005 18.76  C 9.44000000000005 21.04  10.8800000000001 22.32  13.4400000000001 22.64  C 17.0000000000001 23.08  23.2 14.28  23.3200000000001 8.88  C 23.3200000000001 8.63999999999999  24.5200000000001 9.28  24.5200000000001 8.52000000000001  C 24.5200000000001 7.76000000000002  23.3600000000001 8.36000000000001  23.3200000000001 8.12  C 23.2000000000001 7.36000000000001  24.2000000000001 6.60000000000001  23.3200000000001 6.60000000000001  C 22.5200000000001 6.60000000000001  22.9600000000001 7.64000000000002  22.5200000000001 7.36  C 21.0800000000001 6.4  21.2800000000001 1.68000000000001  14.4800000000001 0.480000000000004  C 11.3200000000001 -0.0799999999999841  6.84000000000006 1.75999999999999  3.72000000000008 2.32000000000001  Z " fill-rule="nonzero" fill="#251414" stroke="none" transform="matrix(1 0 0 1 258 192 )" />
  </g>
</svg>