<?xml version="1.0" encoding="utf-8"?>
<svg version="1.1" xmlns:xlink="http://www.w3.org/1999/xlink" width="65px" height="59px" xmlns="http://www.w3.org/2000/svg">
  <g transform="matrix(1 0 0 1 -218 -212 )">
    <path d="M 0.0800000000000409 6.72  L 5.28 0.320000000000022  L 24.56 21.88  C 32.52 12.88  38.44 8.12  42.36 7.63999999999999  C 45.36 7.28  50.2 6.72  56.84 5.99999999999997  C 60.12 5.63999999999999  63.08 7.99999999999997  63.44 11.32  C 63.44 11.48  63.48 11.64  63.48 11.8  L 64.6 51.6  C 58.72 51.04  53.8 51.32  49.84 52.44  C 42.3200000000001 54.6  35.92 57.68  33.4 58.76  C 30.92 59.8  33.84 47.8  34.68 42.32  C 35.24 38.68  35.8 34.24  36.3200000000001 29.04  C 31.24 34.88  26.28 36.68  21.36 34.48  C 16.4400000000001 32.28  9.36000000000004 23  0.0800000000000409 6.72  Z " fill-rule="nonzero" fill="#ffffff" stroke="none" transform="matrix(1 0 0 1 218 212 )" />
  </g>
</svg>