<?xml version="1.0" encoding="utf-8"?>
<svg version="1.1" xmlns:xlink="http://www.w3.org/1999/xlink" width="2px" height="5px" xmlns="http://www.w3.org/2000/svg">
  <g transform="matrix(1 0 0 1 -241 -354 )">
    <path d="M 1.64000000000007 4.36000000000007  L 1.60000000000002 4.64000000000004  C 1.56 4.84000000000003  1.28000000000003 4.88000000000005  1.20000000000002 4.68000000000001  L 1.08000000000004 4.36000000000007  C 0.640000000000015 3.20000000000005  0.400000000000006 2.36000000000007  0.32000000000005 1.76000000000005  C 0.240000000000009 1.04000000000008  0.480000000000018 0.60000000000008  1.00000000000006 0.680000000000007  C 1.88000000000008 0.800000000000011  2.08000000000007 2.04000000000002  1.64000000000007 4.36000000000007  Z M 1.24000000000001 3.52000000000004  L 1.36000000000001 3.84000000000003  C 1.64000000000001 2.04000000000002  1.47999999999999 1.12000000000006  1 1.04000000000002  C 0.800000000000011 1  0.719999999999999 1.16000000000003  0.759999999999991 1.68000000000001  C 0.800000000000011 2.12000000000006  0.960000000000008 2.72000000000003  1.24000000000001 3.52000000000004  Z " fill-rule="nonzero" fill="#4482fa" stroke="none" transform="matrix(1 0 0 1 241 354 )" />
  </g>
</svg>