<?xml version="1.0" encoding="utf-8"?>
<svg version="1.1" xmlns:xlink="http://www.w3.org/1999/xlink" width="178px" height="101px" xmlns="http://www.w3.org/2000/svg">
  <g transform="matrix(1 0 0 1 -95 -181 )">
    <path d="M 0 14.16  C 0.0399999999999991 6.64  6.12000000000001 0.560000000000002  13.64 1  L 163.64 1  C 171.16 0.560000000000002  177.24 6.64  177 14.16  L 177 87.16  C 177.24 94.68  171.16 100.76  163.64 100  L 13.64 100  C 6.12000000000001 100.76  0.0400000000000134 94.68  0 87.16  L 0 14.16  Z M 163.64 5  L 13.64 5  L 13.48 4.96000000000001  C 8.48 5.04  4.44 9.12  5 14.16  L 5 87.16  C 4.44 92.24  8.56 96.36  13.64 96  L 163.64 96  C 168.72 96.36  172.84 92.24  172 87.16  L 172 14.16  C 172.84 9.08000000000001  168.72 4.96000000000001  163.64 5  Z " fill-rule="nonzero" fill="#377d87" stroke="none" transform="matrix(1 0 0 1 95 181 )" />
  </g>
</svg>