<?xml version="1.0" encoding="utf-8"?>
<svg version="1.1" xmlns:xlink="http://www.w3.org/1999/xlink" width="57px" height="57px" xmlns="http://www.w3.org/2000/svg">
  <g transform="matrix(1 0 0 1 -41 -251 )">
    <path d="M 34.4 1  L 34.4 0.159999999999997  L 34.4 7.35999999999999  C 36.16 7.84  37.8 8.56  39.36 9.44  L 44.72 3.59999999999999  L 53.44 11.6  L 47.64 17.92  C 48.4 19.36  49.04 20.84  49.48 22.44  L 56 22.44  L 56 34.28  L 49.48 34.28  C 49.12 35.56  48.64 36.84  48.04 38  L 53.12 43.52  L 44.4 51.52  L 40.08 46.8  C 38.32 47.92  36.4 48.76  34.4 49.32  L 34.4 56  L 22.56 56  L 22.56 49.32  C 20.8 48.84  19.16 48.12  17.6 47.24  L 12.8 52.48  L 4.08 44.48  L 9.32 38.8  C 8.68 37.68  8.16 36.48  7.76 35.2  L 1 35.2  L 1 23.36  L 7.2 23.36  C 7.64 21.48  8.32 19.68  9.2 18.04  L 4.08 12.44  L 12.8 4.44000000000003  L 17.44 9.48000000000002  C 19.04 8.56000000000003  20.72 7.80000000000004  22.56 7.32000000000002  L 22.56 1  L 34.4 1  Z M 39.16 28.36  C 39.12 22.48  34.36 17.68  28.48 17.68  C 22.6 17.68  17.8 22.44  17.8 28.36  C 17.8 34.24  22.56 39.04  28.48 39.04  C 34.4 39.04  39.16 34.28  39.16 28.36  Z " fill-rule="nonzero" fill="#ffffff" stroke="none" transform="matrix(1 0 0 1 41 251 )" />
  </g>
</svg>