<?xml version="1.0" encoding="utf-8"?>
<svg version="1.1" xmlns:xlink="http://www.w3.org/1999/xlink" width="60px" height="61px" xmlns="http://www.w3.org/2000/svg">
  <g transform="matrix(1 0 0 1 -232 -174 )">
    <path d="M 23.76 1  L 36.36 1  L 36.36 8.32000000000001  C 38.2 8.84000000000001  39.96 9.6  41.6 10.52  L 47.28 4.32000000000001  L 56.52 12.8  L 50.36 19.48  C 51.2 21  51.84 22.6  52.32 24.28  L 60 24.28  L 60 36.84  L 52.32 36.84  C 51.92 38.2  51.44 39.52  50.8 40.8  L 56.2 46.68  L 47 55.24  L 42.4 50.24  C 40.56 51.4  38.5199999999999 52.32  36.36 52.92  L 36.36 60  L 23.8 60  L 23.8 52.92  C 21.96 52.4  20.2 51.64  18.56 50.72  L 13.48 56.28  L 4.20000000000001 47.76  L 9.75999999999998 41.72  C 9.12 40.52  8.56 39.24  8.12 37.92  L 1 37.92  L 1 25.36  L 7.56 25.36  C 8.03999999999998 23.36  8.75999999999998 21.48  9.68 19.72  L 4.20000000000001 13.76  L 13.44 5.28000000000001  L 18.36 10.64  C 20.04 9.64000000000001  21.84 8.88000000000001  23.76 8.32000000000001  L 23.76 1  Z M 41.4 30.64  C 41.4 24.36  36.32 19.32  30.08 19.32  C 23.84 19.32  18.76 24.4  18.76 30.64  C 18.76 36.88  23.84 41.96  30.08 41.96  C 36.32 41.96  41.4 36.88  41.4 30.64  Z " fill-rule="nonzero" fill="#303799" stroke="none" transform="matrix(1 0 0 1 232 174 )" />
  </g>
</svg>