<?xml version="1.0" encoding="utf-8"?>
<svg version="1.1" xmlns:xlink="http://www.w3.org/1999/xlink" width="7px" height="7px" xmlns="http://www.w3.org/2000/svg">
  <g transform="matrix(1 0 0 1 -120 -154 )">
    <path d="M 0.280000000000001 3.88  C 0.280000000000001 5.56  1.60000000000001 6.88  3.28 6.88  C 4.92 6.88  6.28 5.52  6.28 3.88  C 6.28 2.23999999999999  4.92 0.879999999999995  3.28 0.879999999999995  C 1.64 0.879999999999995  0.280000000000001 2.2  0.280000000000001 3.88  Z M 5.48 3.88  C 5.44 5.12  4.48 6.08  3.28 6.08  C 2.08 6.08  1.08 5.08  1.08 3.88  C 1.08 2.67999999999999  2.08 1.67999999999999  3.28 1.67999999999999  C 4.48 1.67999999999999  5.48 2.67999999999999  5.48 3.88  Z " fill-rule="nonzero" fill="#bfe4e0" stroke="none" transform="matrix(1 0 0 1 120 154 )" />
  </g>
</svg>