<?xml version="1.0" encoding="utf-8"?>
<svg version="1.1" xmlns:xlink="http://www.w3.org/1999/xlink" width="6px" height="7px" xmlns="http://www.w3.org/2000/svg">
  <g transform="matrix(1 0 0 1 -131 -155 )">
    <path d="M 0 3.12  C 0 4.76000000000001  1.36 6.12  3 6.12  C 4.64000000000001 6.12  6 4.76000000000001  6 3.12  C 6 1.48  4.64000000000001 0.120000000000005  3 0.120000000000005  C 1.36 0.120000000000005  0 1.48  0 3.12  Z M 5.2 3.12  C 5.2 4.32000000000001  4.24000000000001 5.32000000000001  3 5.32000000000001  C 1.80000000000001 5.32000000000001  0.800000000000011 4.32000000000001  0.800000000000011 3.12  C 0.800000000000011 1.92  1.80000000000001 0.920000000000002  3 0.920000000000002  C 4.2 0.920000000000002  5.2 1.92  5.2 3.12  Z " fill-rule="nonzero" fill="#bfe4e0" stroke="none" transform="matrix(1 0 0 1 131 155 )" />
  </g>
</svg>