<?xml version="1.0" encoding="utf-8"?>
<svg version="1.1" xmlns:xlink="http://www.w3.org/1999/xlink" width="53px" height="66px" xmlns="http://www.w3.org/2000/svg">
  <g transform="matrix(1 0 0 1 -248 -243 )">
    <path d="M 0.159999999999968 15.4  L 9.40000000000001 0.200000000000003  C 12.08 1.80000000000001  15.92 3.68000000000001  21 5.80000000000001  C 28.6 9  31 7  34.6 8.60000000000001  C 37 9.68000000000001  39.36 9.68000000000001  41.72 8.68000000000001  C 43.28 7.88  44.72 7.88  46.04 8.68000000000001  C 50.04 11.08  50.4 16.68  50.84 20.28  C 51.36 24.8  51.8 38.16  52.16 60.28  C 45.3199999999999 63.44  40.4 65.16  37.36 65.48  C 24.36 66.84  17.96 63.4  16.96 63  C 15.64 62.48  15.64 50.08  16.96 25.8  L 0.159999999999968 15.4  Z " fill-rule="nonzero" fill="#4482fa" stroke="none" transform="matrix(1 0 0 1 248 243 )" />
  </g>
</svg>