<?xml version="1.0" encoding="utf-8"?>
<svg version="1.1" xmlns:xlink="http://www.w3.org/1999/xlink" width="214px" height="127px" xmlns="http://www.w3.org/2000/svg">
  <g transform="matrix(1 0 0 1 -103 -190 )">
    <path d="M 0.746023064846767 69.9063910321736  L 1.9585210483449 69.9063910321736  C 2.99138970095441 67.665316728208  4.74277567711837 65.6931713407183  7.16777164411463 64.2588837861803  L 109.960656245123 5.04970067541039  C 121.277304091105 -1.44941480608971  135.198577234973 -1.44941480608971  146.515225080955 5.04970067541039  L 207.140124255862 40.0104598172731  C 209.744749553746 41.4895688578903  211.541042862633 43.6858216757766  212.52900418252 46.1061819240594  L 213.516965502407 46.1061819240594  L 213.516965502407 50.9020809345457  C 213.56187283513 55.2945865703182  211.451228197188 59.6870922060906  207.09521692314 62.1522739404527  L 104.347239654854 121.406278537302  C 93.030591808871 127.905394018802  79.1093186650036 127.905394018802  67.7926708190211 121.406278537302  L 7.16777164411465 86.4455193954394  C 2.90157503551011 83.9803376610773  0.746023064846767 79.6774749974634  0.746023064846767 75.3746123338495  L 0.746023064846767 69.9063910321736  Z " fill-rule="nonzero" fill="#d4daff" stroke="none" transform="matrix(1 0 0 1 103 190 )" />
  </g>
</svg>