<?xml version="1.0" encoding="utf-8"?>
<svg version="1.1" xmlns:xlink="http://www.w3.org/1999/xlink" width="28px" height="79px" xmlns="http://www.w3.org/2000/svg">
  <g transform="matrix(1 0 0 1 -217 -266 )">
    <path d="M 26.5680995577331 74.1840488728078  C 24.9038508842827 76.8769533677284  21.9801707822752 78.3580508399348  19.0115109863906 78.3580508399348  C 17.3922420068172 78.3580508399348  15.7279933333668 77.9092334241147  14.2436634354245 76.9667168508925  C 14.1537040476704 76.9218351093105  11.8597396599414 75.4856193786861  7.00193272122125 72.1643705016174  C 3.13367904779592 69.5163477482788  -1.13939187052278 64.1754205000196  0.434897415173588 53.7179747114111  C 1.19955221108323 48.6463379126439  3.13367904779592 43.4849376307127  4.84290741512338 38.9518817309297  C 5.74250129266417 36.5731494270831  6.91197333346719 33.3416640331784  7.04691241509827 32.2645022352102  C 7.09189210897533 31.681039594644  7.18185149672939 31.0526952124959  7.22683119060642 30.4692325719298  C 7.81156721100795 24.5897244246864  8.21638445590127 20.7298946486335  4.57302925186115 13.7283429618399  C 2.27906486413216 9.37481402838487  3.98829323145965 3.94412329696161  8.39630323140944 1.70003621786111  C 12.7593335374822 -0.588932602821455  18.2018764966039 1.11657357729495  20.4508611904558 5.51498425233199  C 26.5680995577331 17.2291188052367  25.7134853740694 25.5771227394906  25.0387899659138 32.3093839767922  C 24.9938102720367 32.8928466173583  24.9038508842827 33.4314275163424  24.8588711904056 34.0148901569086  C 24.5440133332664 37.2912572923953  23.1946225169552 40.9715601021202  21.6203332312589 45.1904438108292  C 20.3609018027018 48.5116926878979  17.8870186394646 55.1990721836175  17.9769780272187 58.0266219032841  C 21.8902113945211 60.7195263982047  23.7793585373567 61.886451679337  23.7793585373567 61.886451679337  C 27.9624700679213 64.5344744326756  29.2219014964784 70.0549286472629  26.5680995577331 74.1840488728078  Z " fill-rule="nonzero" fill="#f05a24" stroke="none" transform="matrix(1 0 0 1 217 266 )" />
  </g>
</svg>