<?xml version="1.0" encoding="utf-8"?>
<svg version="1.1" xmlns:xlink="http://www.w3.org/1999/xlink" width="34px" height="94px" xmlns="http://www.w3.org/2000/svg">
  <g transform="matrix(1 0 0 1 -194 -276 )">
    <path d="M 10.1300667595616 93.400806938003  C 10.0848116798037 93.3114376628508  9.99430152028784 93.3114376628508  9.9490464405299 93.3114376628508  C 5.06149782667471 93.3114376628508  1.07905080797784 89.4685588313066  0.943285568704113 84.6426179730882  C -0.0070711062121794 44.2923902418735  7.1884865752969 30.8423143314685  12.3928207474575 21.0116940647274  C 14.8365950543851 16.4538610319656  16.058482207849 14.1302598780086  15.9227169685752 9.66179612039899  C 15.7869517293014 4.74648598702842  19.7241436682403 0.680183967603678  24.7022024416114 0.546130054875389  C 24.7927126011272 0.546130054875389  24.883222760643 0.546130054875389  24.928477840401 0.546130054875389  C 29.7707713744983 0.546130054875389  33.798473472953 4.38900888641967  33.9342387122268 9.21494974463804  C 34.2057691907743 18.3753004477377  31.2189339267516 23.9608801447498  28.3226088222449 29.3677212914574  C 24.0233762452426 37.4556406927308  18.0949607969553 48.5374308116026  18.9095522325978 84.2851408724795  C 19.0453174718716 89.20045100585  15.0628704531747 93.2667530252748  10.1300667595616 93.400806938003  Z " fill-rule="nonzero" fill="#f05a24" stroke="none" transform="matrix(1 0 0 1 194 276 )" />
  </g>
</svg>