<?xml version="1.0" encoding="utf-8"?>
<svg version="1.1" xmlns:xlink="http://www.w3.org/1999/xlink" width="22px" height="26px" xmlns="http://www.w3.org/2000/svg">
  <g transform="matrix(1 0 0 1 -107 -310 )">
    <path d="M 20.36 6  L 19.84 6  C 17.64 12.92  15.56 16.56  13.56 16.96  C 11.56 17.32  10.28 17.04  9.72000000000001 16.12  L 9.60000000000001 16.08  C 10.92 21.68  9.72000000000001 24.36  6 24.08  C 2.28 23.8  0.52000000000001 20.88  0.799999999999997 15.28  C 3.28 14.4  4.52000000000001 12.76  4.52000000000001 10.4  C 4.52000000000001 9.31999999999999  4 7.55999999999997  4.40000000000001 6.07999999999998  C 4.72000000000001 4.91999999999999  5.76000000000001 3.07999999999998  7.52000000000001 0.519999999999982  L 20.36 6  Z " fill-rule="nonzero" fill="#fb9ea8" stroke="none" transform="matrix(1 0 0 1 107 310 )" />
  </g>
</svg>