<?xml version="1.0" encoding="utf-8"?>
<svg version="1.1" xmlns:xlink="http://www.w3.org/1999/xlink" width="59px" height="18px" xmlns="http://www.w3.org/2000/svg">
  <g transform="matrix(1 0 0 1 -45 -323 )">
    <path d="M 2.18759978902602 17.3626744105861  C 1.96230629891005 17.5392112542238  1.69195411077089 17.6274796760427  1.42160192263173 17.6274796760427  C 1.016073640423 17.6274796760427  0.610545358214263 17.450942832405  0.3852518680983 17.0978691451295  C -0.0202764141104351 16.524124403307  0.114899679959142 15.7738428178468  0.655604056237457 15.3325007087525  C 16.4712070623781 4.12241113775853  31.0702252218926 1.16541900682702  40.5325518067631 0.635808475913941  C 50.8509936540743 0.0620637340914467  57.339446169414 2.13637164683439  57.6097983575532 2.22464006865328  C 58.2856788279011 2.44531112320039  58.6461484120866 3.15145849775121  58.4208549219707 3.81347166139259  C 58.1955614318547 4.47548482503397  57.4746222634836 4.82855851230936  56.7987417931357 4.60788745776222  C 56.7086243970893 4.56375324685278  50.3553479758192 2.57771375592864  40.5776105047863 3.15145849775121  C 31.4757535041014 3.68106902866434  17.4624984188884 6.54979273777698  2.18759978902602 17.3626744105861  Z " fill-rule="nonzero" fill="#d4daff" stroke="none" transform="matrix(1 0 0 1 45 323 )" />
  </g>
</svg>