<?xml version="1.0" encoding="utf-8"?>
<svg version="1.1" xmlns:xlink="http://www.w3.org/1999/xlink" width="50px" height="86px" xmlns="http://www.w3.org/2000/svg">
  <g transform="matrix(1 0 0 1 -30 -223 )">
    <path d="M 1.16465278788761 3.32357227799218  C -0.0447943379956773 0.757672068452847  3.7627243916369 0.172466757505255  4.56902247555909 1.74801951774873  C 6.7191506993516 5.93448828068135  9.0932506131225 20.6996684338201  9.0932506131225 30.0629534089813  C 9.0932506131225 39.4262383841424  7.83900914924353 51.1303446030939  10.3922864149971 56.2621450221726  C 12.9903580187464 61.3939454412513  42.0170890399453 68.8215513109705  48.6914454013013 80.6607049093714  C 50.0800698791673 83.1365735326111  48.2882963593402 87.1429791229445  46.0485794595563 85.0722526380531  C 43.7640682217768 83.0015261531617  26.9661914733978 69.2717092424686  10.4370807529928 63.1045455809442  C 4.92737717952451 61.0788348892026  -0.447943379956773 56.9373819194198  1.20944712588329 49.1046339113523  C 2.82204329372767 41.4969648690339  3.62834137764987 37.8957014170488  3.85231306762825 28.3973690624382  C 4.07628475760664 18.8990367078276  2.3740999137709 5.84445669438171  1.16465278788761 3.32357227799218  Z " fill-rule="nonzero" fill="#d4daff" stroke="none" transform="matrix(1 0 0 1 30 223 )" />
  </g>
</svg>