<?xml version="1.0" encoding="utf-8"?>
<svg version="1.1" xmlns:xlink="http://www.w3.org/1999/xlink" width="49px" height="131px" xmlns="http://www.w3.org/2000/svg">
  <g transform="matrix(1 0 0 1 -282 -188 )">
    <path d="M 43.7747824126011 122.486116225497  C 43.5062271815117 127.287568616033  39.5674171255341 130.967186335882  34.86770058147 130.967186335882  C 34.6886637607438 130.967186335882  34.5543861451991 130.967186335882  34.3753493244728 130.967186335882  C 29.4518367545009 130.697946014918  25.6920635192496 126.479847653139  25.960618750339 121.588648488949  C 26.0053779555206 121.139914620674  28.2880974197803 77.3434890770983  28.2880974197803 61.2788165928768  C 28.2880974197803 49.1630021494695  29.541355164864 32.6047224101463  30.3022616529506 23.9441587524514  L 27.5719501368753 22.3735902134912  C 23.5883808757161 33.6368103071772  18.7096275109258 49.6117360177439  18.7096275109258 58.5415399964033  C 18.7096275109258 74.3369721596602  22.8274743876296 108.575366308993  22.8722335928111 108.934353403612  C 23.4541032601714 113.825552567803  19.9628852560095 118.268017863719  15.0841318912192 118.851371892475  C 10.2053785264288 119.434725921232  5.77421721345407 115.934601748692  5.19234754609373 111.043402584502  C 5.01331072536746 109.607454206024  0.895463848663662 75.3690600566913  0.895463848663662 58.4966666095759  C 0.895463848663662 40.7716788127393  13.249004478775 9.49492819401753  14.6812990445851 5.99480402147764  C 15.6660015585795 3.6165145196236  17.5906473813866 1.73183227287136  20.0524036663726 0.8792379231501  C 22.469400746177 0.0266435734288531  25.1549530570708 0.295883894393447  27.392913316149 1.59721211238906  L 44.1328560540535 11.2898636671149  C 47.1764820063998 13.0399257533848  48.8773318032993 16.4054297654424  48.5640173670283 19.8606805511549  C 48.5192581618467 20.1299208721195  46.1470202872239 45.3487642691376  46.1470202872239 61.189069819222  C 46.1470202872239 77.7473495585453  43.8643008229642 120.646307365573  43.7747824126011 122.486116225497  Z " fill-rule="nonzero" fill="#4d88ff" stroke="none" transform="matrix(1 0 0 1 282 188 )" />
  </g>
</svg>