<?xml version="1.0" encoding="utf-8"?>
<svg version="1.1" xmlns:xlink="http://www.w3.org/1999/xlink" width="16px" height="21px" xmlns="http://www.w3.org/2000/svg">
  <g transform="matrix(1 0 0 1 -274 -153 )">
    <path d="M 14.6092675532871 18.4702947365635  C 13.6885067609807 19.5375402003732  12.3292884485283 20.1156314932702  10.9262243840614 20.1156314932702  C 9.74238907966735 20.1156314932702  8.55855377527341 19.6709458833494  7.59394723095235 18.8260432245001  C 7.19933546282102 18.4702947365635  6.84856944670425 18.159014809619  6.49780343058752 17.8477348826745  C 3.03398902143475 14.6904670522373  -0.91212865987855 11.1329821728715  1.19246743682186 5.84122341481492  C 2.15707398114292 3.39545256025094  3.7793668056828 2.0169271694967  4.2616700778433 1.66117868156011  C 6.45395767857297 -0.0286266361386376  9.56700607160902 0.371590412790015  11.2331446481635 2.59501846239364  C 12.5923629606159 4.41822946306861  12.5923629606159 6.86400031763259  11.3208361521927 8.64274275731548  C 11.8469851763678 9.17636548922035  12.5485172086013 9.75445678211729  13.118511984791 10.2880795140222  C 13.4692780009077 10.5993594409667  13.8638897690391 10.9551079289032  14.2585015371704 11.3108564168398  C 16.3192518818563 13.1785359785069  16.4507891379001 16.3802723699361  14.6092675532871 18.4702947365635  Z " fill-rule="nonzero" fill="#633b25" stroke="none" transform="matrix(1 0 0 1 274 153 )" />
  </g>
</svg>