<?xml version="1.0" encoding="utf-8"?>
<svg version="1.1" xmlns:xlink="http://www.w3.org/1999/xlink" width="71px" height="109px" xmlns="http://www.w3.org/2000/svg">
  <g transform="matrix(1 0 0 1 -196 -180 )">
    <path d="M 23.1940838786085 107.908170219674  C 21.942554288165 108.447414767127  20.6463272123485 108.672099995233  19.4394951072779 108.672099995233  C 16.0424862189311 108.672099995233  12.8242672720763 106.739807033524  11.3492502547678 103.45940270318  C 11.1257628279029 102.965095201347  5.98555201000971 91.5510856135749  2.81203054852783 77.0364198779434  C -1.70241547414355 56.275504800972  -0.00391102997017247 39.9184201948732  7.86284639567504 28.3246624246164  C 16.1765786750501 16.1017860156636  29.4070343454533 13.4505003240157  40.0003383788505 11.3384591798216  C 45.6769190212195 10.2150330392929  52.0686594295562 8.91185871627951  52.9626091370159 6.62006938960085  C 54.7505085519352 1.99155369062235  59.8907193698284 -0.300235636056302  64.4498628778728 1.49724618878971  C 69.0537038712901 3.29472801363573  71.3332756253123 8.462488260068  69.5453762103929 13.0460669134253  C 65.1650226438405 24.5050135468187  53.6330714176106 26.8417399191185  43.4867422379433 28.8639069720702  C 34.9048250463303 30.571514705674  26.7698827084473 32.2341853936565  22.5683190833868 38.4354976893753  C 12.1985024768545 53.6691561549452  22.9705964517436 85.9339549109311  27.5744374451609 96.04479017569  C 29.6305217723182 100.538494737805  27.6638324159069 105.841066121101  23.1940838786085 107.908170219674  Z " fill-rule="nonzero" fill="#6ae3e0" stroke="none" transform="matrix(1 0 0 1 196 180 )" />
  </g>
</svg>