<?xml version="1.0" encoding="utf-8"?>
<svg version="1.1" xmlns:xlink="http://www.w3.org/1999/xlink" width="61px" height="88px" xmlns="http://www.w3.org/2000/svg">
  <g transform="matrix(1 0 0 1 -211 -125 )">
    <path d="M 58.0738121812514 23.8252764850523  C 57.803169057209 22.3386163988872  57.4423115584857 20.4915538675911  57.1265612471028 18.9147931701433  C 52.7962712624236 -2.12369956437505  20.5897395013715 -2.21380017565779  13.2823751522252 3.23728680694762  C 5.97501080307896 8.68837378955301  4.89243830690914 9.40917867981488  2.09579269180379 11.3012915167523  C -2.55024760425835 14.3647123003652  2.23111425382502 25.9876911558379  8.185262982759 23.2846728173559  C 9.7189073523329 22.6089182327354  10.2601936004178 20.5816544788739  12.154695468715 27.8798039927753  C 18.8756663824359 53.5134279027131  4.215830496803 54.8198867663127  4.215830496803 54.8198867663127  C 8.95208516754596 54.7748364606714  14.8611267091395 58.4689615232635  26.047709169561 64.9562055356203  C 37.2793988173228 71.4434495479771  46.120407536043 80.5436112875332  45.0378350398732 87.751660190152  C 44.9476206651924 88.4274147747725  68.4484652695455 78.3811966167476  58.0738121812514 23.8252764850523  Z " fill-rule="nonzero" fill="#f6921e" stroke="none" transform="matrix(1 0 0 1 211 125 )" />
  </g>
</svg>