<?xml version="1.0" encoding="utf-8"?>
<svg version="1.1" xmlns:xlink="http://www.w3.org/1999/xlink" width="62px" height="75px" xmlns="http://www.w3.org/2000/svg">
  <g transform="matrix(1 0 0 1 -29 -210 )">
    <path d="M 61.6238671931868 69.6052218999519  C 61.1274339423497 72.5168538696709  58.5098768015723 74.6669820934634  55.5312772965497 74.6669820934634  C 55.1702349323046 74.6669820934634  54.8091925680594 74.6221877554677  54.4932804993449 74.5773934174721  C 54.1322381350997 74.5325990794764  45.4220910976853 73.0095915876234  35.1775140122289 69.5156332239605  C 20.8712103290144 64.588256044436  10.8974150167419 58.2722543870455  5.52690984859514 50.702011265776  C 1.60057413742903 45.1475133543121  0.20153497597904 39.0554833868999  1.32979236424516 32.6050987155224  C 2.90935270781774 23.780614130374  13.1087994977435 5.28055253815919  14.2821871815403 3.22001299035805  C 15.9520081161741 0.26358668264334  19.6978226452176 -0.856271767248601  22.7215524457709 0.801118738591483  C 25.7001519507934 2.45850924443154  26.8284093390595 6.17643929807278  25.1585884044257 9.17765994378316  C 21.1871223977289 16.3447540230915  14.5078386591935 29.6486724078077  13.5601024530499 34.8000212773106  C 12.9734086111516 37.9804192750037  13.6503630441112 40.8024625687314  15.6812263429902 43.624505862459  C 23.5338977653225 54.733501685387  47.8591270563401 61.0047090047818  56.5692740937545 62.4829221586392  C 59.9540462585529 63.065248552583  62.2105610350852 66.2456465502761  61.6238671931868 69.6052218999519  Z " fill-rule="nonzero" fill="#4d88ff" stroke="none" transform="matrix(1 0 0 1 29 210 )" />
  </g>
</svg>