<?xml version="1.0" encoding="utf-8"?>
<svg version="1.1" xmlns:xlink="http://www.w3.org/1999/xlink" width="7px" height="7px" xmlns="http://www.w3.org/2000/svg">
  <g transform="matrix(1 0 0 1 -141 -155 )">
    <path d="M 0.759999999999991 3.12  C 0.759999999999991 4.76000000000001  2.12 6.12  3.75999999999999 6.12  C 5.40000000000001 6.12  6.75999999999999 4.76000000000001  6.75999999999999 3.12  C 6.75999999999999 1.48  5.40000000000001 0.120000000000005  3.75999999999999 0.120000000000005  C 2.11999999999999 0.120000000000005  0.759999999999991 1.48  0.759999999999991 3.12  Z M 5.95999999999999 3.12  C 5.95999999999999 4.32000000000001  4.95999999999999 5.32000000000001  3.75999999999999 5.32000000000001  C 2.56 5.32000000000001  1.56 4.32000000000001  1.56 3.12  C 1.56 1.92  2.56 0.920000000000002  3.75999999999999 0.920000000000002  C 4.95999999999999 0.920000000000002  5.95999999999999 1.92  5.95999999999999 3.12  Z " fill-rule="nonzero" fill="#bfe4e0" stroke="none" transform="matrix(1 0 0 1 141 155 )" />
  </g>
</svg>