<?xml version="1.0" encoding="utf-8"?>
<svg version="1.1" xmlns:xlink="http://www.w3.org/1999/xlink" width="144px" height="88px" xmlns="http://www.w3.org/2000/svg">
  <g transform="matrix(1 0 0 1 -138 -176 )">
    <path d="M 0.36000000000007 87.4800000000001  C 0.720000000000013 87.8  1.24000000000001 87.76  1.52000000000001 87.4  C 10.96 76.48  18.28 70.72  23.32 70.12  C 26.36 69.76  28.28 70.12  31.6 71.28  L 32.6 71.64  C 35.84 72.8  37.92 73.12  40.88 72.64  C 41.64 72.52  42.4 72.2  43.16 71.64  C 44.68 70.6  46.2 68.8  48 66.08  L 48.16 65.84  C 48.76 64.92  49.36 63.96  50.12 62.72  L 53.24 57.56  L 53.72 56.8  L 54.04 56.28  C 58.6 48.96  61.92 45.16  65.76 43.72  C 69.52 42.32  72.36 42.16  76.08 42.76  L 76.32 42.8  L 76.72 42.88  C 76.92 42.92  77.12 42.96  77.36 43  L 79.2 43.36  C 84.72 44.48  88.2 44.68  93.52 43.76  C 97.1600000000001 43.12  100.56 40.76  103.88 36.8  L 104.16 36.44  C 106.6 33.52  108.88 29.96  111.76 24.8800000000001  L 115.6 18.0000000000001  C 116.32 16.76  116.92 15.6400000000001  117.28 15.0400000000001  L 117.6 14.4800000000001  L 117.92 13.9600000000001  C 119.52 11.3200000000001  120.88 9.40000000000008  122.16 8.00000000000007  C 122.68 7.40000000000008  123.24 6.92000000000007  123.72 6.56000000000007  C 129.08 2.48000000000008  135.2 1.44000000000007  142.16 3.52000000000008  C 142.6 3.64000000000009  143.04 3.40000000000008  143.16 3.00000000000007  C 143.28 2.56000000000007  143.04 2.12000000000008  142.64 2.00000000000007  C 135.24 -0.199999999999932  128.56 0.920000000000073  122.8 5.32000000000008  C 122.2 5.76000000000008  121.64 6.32000000000008  121.04 6.96000000000008  C 119.6 8.56000000000009  118.08 10.6800000000001  116.32 13.6800000000001  L 115.92 14.3600000000001  L 115.28 15.4800000000001  C 113.68 18.3200000000001  110.68 23.7200000000001  110.76 23.5200000000001  L 110.24 24.4400000000001  L 109.88 25.0800000000001  C 107.16 29.8000000000001  105 33.1200000000001  102.68 35.8400000000001  C 99.5600000000001 39.5200000000001  96.4400000000001 41.7200000000001  93.2400000000001 42.2800000000001  C 88.2800000000001 43.1600000000001  85.0000000000001 42.9600000000001  79.8800000000001 41.9600000000001  L 78.0800000000001 41.6000000000001  L 77.4800000000001 41.4800000000001  L 77.0400000000001 41.4000000000001  C 76.8800000000001 41.3600000000001  76.7600000000001 41.3600000000001  76.6000000000001 41.3200000000001  C 72.4800000000001 40.6000000000001  69.2800000000001 40.8000000000001  65.2000000000001 42.3200000000001  C 60.7600000000001 43.9600000000001  57.1600000000001 48.1600000000001  52.2000000000001 56.2800000000001  L 51.2000000000001 57.9200000000001  L 49.2800000000001 61.1200000000001  L 48.7600000000001 61.9600000000001  C 48.0400000000001 63.1200000000001  47.4800000000001 64.0400000000001  46.9200000000001 64.8800000000001  L 46.8400000000001 65.0400000000001  C 45.0800000000001 67.7200000000001  43.6000000000001 69.4400000000001  42.2800000000001 70.3600000000001  C 41.7200000000001 70.7600000000001  41.1600000000001 71.0000000000001  40.6400000000001 71.0800000000001  C 38.1200000000001 71.4800000000001  36.3600000000001 71.2400000000001  33.6000000000001 70.3200000000001  L 32.8800000000001 70.0800000000001  L 32.4000000000001 69.9200000000001  C 28.7200000000001 68.6000000000001  26.5600000000001 68.2000000000001  23.1200000000001 68.5600000000001  C 17.5200000000001 69.2000000000002  9.96000000000009 75.1600000000001  0.280000000000072 86.3600000000001  C 0 86.6800000000001  0.0400000000000631 87.2000000000002  0.36000000000007 87.4800000000001  Z " fill-rule="nonzero" fill="#bfe4e0" stroke="none" transform="matrix(1 0 0 1 138 176 )" />
  </g>
</svg>