<?xml version="1.0" encoding="utf-8"?>
<svg version="1.1" xmlns:xlink="http://www.w3.org/1999/xlink" width="10px" height="17px" xmlns="http://www.w3.org/2000/svg">
  <g transform="matrix(1 0 0 1 -199 -147 )">
    <path d="M 3.63999999999999 4.52000000000002  C 3.24000000000001 4.76000000000002  3.04000000000002 5.16000000000001  3.04000000000002 5.60000000000001  C 3.04000000000002 6  3.16000000000003 6.32000000000001  3.40000000000001 6.56  C 3.64000000000001 6.8  3.92000000000002 7  4.28 7.16000000000001  C 4.60000000000002 7.28000000000002  5 7.44  5.56 7.60000000000001  L 5.72 7.64  C 6.47999999999999 7.88  7.07999999999998 8.08  7.56 8.31999999999999  C 8.03999999999999 8.52  8.44 8.84  8.75999999999999 9.28  C 9.08000000000001 9.72  9.24000000000001 10.24  9.24000000000001 10.96  C 9.24000000000001 11.84  8.91999999999999 12.52  8.31999999999999 13.08  C 7.72 13.64  6.88 13.96  5.84 14.08  L 5.84 16.2  L 4.68000000000001 16.2  L 4.68000000000001 14.08  C 3.96000000000001 14.04  3.24000000000001 13.84  2.56 13.52  C 1.88 13.2  1.28 12.8  0.759999999999991 12.32  L 1.44 11  C 1.96000000000001 11.52  2.56 11.92  3.24000000000001 12.2  C 3.91999999999999 12.48  4.56 12.64  5.19999999999999 12.64  C 5.95999999999998 12.64  6.51999999999998 12.48  6.95999999999998 12.2  C 7.39999999999998 11.92  7.59999999999999 11.52  7.59999999999999 11  C 7.59999999999999 10.6  7.47999999999999 10.28  7.24000000000001 10.04  C 7 9.8  6.72 9.59999999999999  6.36000000000001 9.43999999999998  L 6.16 9.36  C 5.88 9.23999999999999  5.51999999999998 9.11999999999999  5.08000000000001 8.99999999999999  L 4.92000000000002 8.95999999999999  C 4.16000000000003 8.72  3.56000000000003 8.52  3.08000000000001 8.31999999999999  C 2.60000000000002 8.11999999999999  2.20000000000002 7.8  1.88 7.36  C 1.56 6.95999999999999  1.40000000000001 6.39999999999999  1.40000000000001 5.72  C 1.40000000000001 4.88  1.68000000000001 4.23999999999999  2.28 3.67999999999999  C 2.88 3.16  3.68000000000001 2.84  4.68000000000001 2.72  L 4.68000000000001 0.799999999999997  L 5.84 0.799999999999997  L 5.84 2.72000000000001  C 6.44 2.76000000000001  7 2.88000000000001  7.56 3.08000000000001  C 8.12 3.28000000000002  8.60000000000002 3.52000000000001  9.03999999999999 3.80000000000001  L 8.39999999999998 5.16000000000001  C 7.88 4.84000000000002  7.31999999999999 4.60000000000001  6.75999999999999 4.40000000000002  C 6.19999999999999 4.24000000000001  5.67999999999998 4.16000000000001  5.19999999999999 4.16000000000001  C 4.55999999999997 4.16000000000001  4.03999999999999 4.28000000000002  3.63999999999999 4.52000000000002  Z " fill-rule="nonzero" fill="#85c6bf" stroke="none" transform="matrix(1 0 0 1 199 147 )" />
  </g>
</svg>