<?xml version="1.0" encoding="utf-8"?>
<svg version="1.1" xmlns:xlink="http://www.w3.org/1999/xlink" width="29px" height="12px" xmlns="http://www.w3.org/2000/svg">
  <g transform="matrix(1 0 0 1 -66 -291 )">
    <path d="M 0.600000000000023 1.60000000000002  C 7.92 -0.119999999999976  15.44 0.480000000000018  23.16 3.40000000000001  C 23 2.56  22.8 1.80000000000001  22.56 1.12  C 22.76 1.23999999999998  22.92 1.31999999999999  23.12 1.43999999999997  C 23.32 1.99999999999997  23.48 2.63999999999999  23.56 3.31999999999999  L 23.6 3.56  C 25.04 4.12  26.48 4.72  27.92 5.44000000000003  C 28.2 5.72000000000003  28.44 6  28.72 6.28000000000003  C 25.6 4.68000000000004  22.48 3.44000000000003  19.44 2.56000000000006  C 16.16 4.28000000000003  13.96 7.16000000000005  12.8 11.1600000000001  C 12.72 11.0000000000001  12.6 10.8400000000001  12.52 10.68  C 13.68 6.92000000000004  15.8 4.16000000000005  18.88 2.40000000000001  C 12.52 0.680000000000035  6.32000000000002 0.600000000000023  0.240000000000023 2.08000000000004  C 0.320000000000022 1.92000000000004  0.440000000000026 1.76000000000005  0.600000000000023 1.60000000000002  Z " fill-rule="nonzero" fill="#4b8b95" stroke="none" transform="matrix(1 0 0 1 66 291 )" />
  </g>
</svg>