<?xml version="1.0" encoding="utf-8"?>
<svg version="1.1" xmlns:xlink="http://www.w3.org/1999/xlink" width="28px" height="78px" xmlns="http://www.w3.org/2000/svg">
  <g transform="matrix(1 0 0 1 -102 -254 )">
    <path d="M 9.88 75.24  C 11.16 78.44  9.92000000000002 77.92  6.12 73.64  C 8.28000000000002 67.72  7.16000000000001 60.64  2.72000000000001 52.4  C -3.91999999999999 40.04  6.40000000000001 42.64  6.60000000000001 40  C 6.80000000000001 37.36  5.16000000000001 33.8  5.48 29.16  C 5.80000000000001 24.52  12.12 25.4  12.36 21.96  C 12.6 18.52  14.16 12.12  19.2 9.75999999999999  C 24.24 7.44  22.44 0.759999999999991  25.8 1  C 29.16 1.24000000000001  25.64 8.32000000000002  22.16 20.72  C 18.68 33.12  25.52 37.08  16.8 43.76  C 8.07999999999998 50.44  16.28 56.84  13.8 59.68  C 11.32 62.52  7.95999999999999 70.44  9.88 75.24  Z " fill-rule="nonzero" fill="#85c6bf" stroke="none" transform="matrix(1 0 0 1 102 254 )" />
  </g>
</svg>